# Blender 4.2.1 LTS
# www.blender.org
mtllib Bottle.mtl
o Circle
v 0.000000 0.140000 -0.050797
v -0.035919 0.140000 -0.035919
v -0.050797 0.140000 -0.000000
v -0.035919 0.140000 0.035919
v 0.000000 0.140000 0.050797
v 0.035919 0.140000 0.035919
v 0.050797 0.140000 -0.000000
v 0.035919 0.140000 -0.035919
v -0.000000 0.170000 -0.040637
v -0.028735 0.170000 -0.028735
v -0.040637 0.170000 -0.000000
v -0.028735 0.170000 0.028735
v -0.000000 0.170000 0.040637
v 0.028735 0.170000 0.028735
v 0.040637 0.170000 -0.000000
v 0.028735 0.170000 -0.028735
v -0.000000 0.180000 -0.032510
v -0.022988 0.180000 -0.022988
v -0.032510 0.180000 -0.000000
v -0.022988 0.180000 0.022988
v -0.000000 0.180000 0.032510
v 0.022988 0.180000 0.022988
v 0.032510 0.180000 -0.000000
v 0.022988 0.180000 -0.022988
v -0.000000 0.185740 -0.032510
v -0.022988 0.185740 -0.022988
v -0.032510 0.185740 -0.000000
v -0.022988 0.185740 0.022988
v -0.000000 0.185740 0.032510
v 0.022988 0.185740 0.022988
v 0.032510 0.185740 -0.000000
v 0.022988 0.185740 -0.022988
v -0.000000 0.185740 -0.035435
v -0.025056 0.185740 -0.025056
v -0.035435 0.185740 -0.000000
v -0.025056 0.185740 0.025056
v -0.000000 0.185740 0.035435
v 0.025056 0.185740 0.025056
v 0.035435 0.185740 -0.000000
v 0.025056 0.185740 -0.025056
v -0.000000 0.205740 -0.035435
v -0.025056 0.205740 -0.025056
v -0.035435 0.205740 -0.000000
v -0.025056 0.205740 0.025056
v -0.000000 0.205740 0.035435
v 0.025056 0.205740 0.025056
v 0.035435 0.205740 -0.000000
v 0.025056 0.205740 -0.025056
v -0.002924 -0.000000 -0.043739
v 0.000000 0.006339 -0.050797
v -0.035919 0.006339 -0.035919
v -0.030579 -0.000000 -0.032244
v -0.050797 0.006339 -0.000000
v -0.044423 -0.000000 0.001178
v -0.035919 0.006339 0.035919
v -0.032995 -0.000000 0.028861
v 0.000000 0.006339 0.050797
v 0.002924 -0.000000 0.043739
v 0.035919 0.006339 0.035919
v 0.030579 -0.000000 0.032244
v 0.050797 0.006339 -0.000000
v 0.044423 -0.000000 -0.001178
v 0.035919 0.006339 -0.035919
v 0.032995 -0.000000 -0.028861
vn -0.3827 -0.0000 -0.9239
vn 0.9239 -0.0000 -0.3827
vn -0.0000 -1.0000 -0.0000
vn -0.9239 -0.0000 0.3827
vn 0.9239 -0.0000 0.3827
vn -0.3827 -0.0000 0.9239
vn -0.8817 0.2986 -0.3652
vn 0.8817 0.2986 -0.3652
vn 0.3652 0.2986 0.8817
vn -0.8817 0.2986 0.3652
vn -0.3652 0.2986 -0.8817
vn 0.3652 0.2986 -0.8817
vn 0.8817 0.2986 0.3652
vn -0.3652 0.2986 0.8817
vn 0.3060 0.6005 -0.7388
vn 0.7388 0.6005 0.3060
vn -0.3060 0.6005 0.7388
vn -0.7388 0.6005 -0.3060
vn 0.7388 0.6005 -0.3060
vn 0.3060 0.6005 0.7388
vn -0.7388 0.6005 0.3060
vn -0.3060 0.6005 -0.7388
vn 0.3827 -0.0000 -0.9239
vn -0.9239 -0.0000 -0.3827
vn 0.3827 -0.0000 0.9239
vn -0.0000 1.0000 -0.0000
vn -0.2912 -0.6498 -0.7021
vn -0.6533 -0.7071 -0.2706
vn -0.7024 -0.6498 0.2905
vn -0.2444 -0.7696 0.5900
vn 0.2912 -0.6498 0.7021
vn 0.6533 -0.7071 0.2706
vn 0.7024 -0.6498 -0.2905
vn 0.2444 -0.7696 -0.5900
vt 0.225494 0.431874
vt 0.225494 0.431026
vt 0.225742 0.431026
vt 0.225742 0.431874
vt 0.226514 0.431876
vt 0.226565 0.431029
vt 0.226812 0.431044
vt 0.226761 0.431891
vt 0.225733 0.431952
vt 0.225868 0.432087
vt 0.225368 0.432087
vt 0.225503 0.431952
vt 0.226988 0.431876
vt 0.227039 0.431029
vt 0.227286 0.431044
vt 0.227235 0.431891
vt 0.226988 0.431041
vt 0.226937 0.431888
vt 0.226339 0.431874
vt 0.226339 0.431026
vt 0.226514 0.431013
vt 0.226514 0.431861
vt 0.225868 0.432334
vt 0.225368 0.432334
vt 0.225320 0.431013
vt 0.225379 0.430820
vt 0.225519 0.430831
vt 0.226602 0.430836
vt 0.226799 0.430848
vt 0.226092 0.431026
vt 0.226117 0.430831
vt 0.226315 0.430831
vt 0.227075 0.430836
vt 0.227273 0.430848
vt 0.225717 0.430831
vt 0.225857 0.430820
vt 0.225917 0.431013
vt 0.225977 0.430820
vt 0.226455 0.430820
vt 0.225697 0.430764
vt 0.225809 0.430755
vt 0.226024 0.430755
vt 0.226136 0.430764
vt 0.226295 0.430764
vt 0.226407 0.430755
vt 0.225427 0.430755
vt 0.225539 0.430764
vt 0.226626 0.430770
vt 0.226784 0.430780
vt 0.227099 0.430770
vt 0.227257 0.430780
vt 0.227101 0.430734
vt 0.227259 0.430744
vt 0.225539 0.430727
vt 0.225697 0.430727
vt 0.226514 0.430755
vt 0.226516 0.430719
vt 0.226628 0.430734
vt 0.226024 0.430719
vt 0.226136 0.430727
vt 0.226988 0.430755
vt 0.226990 0.430719
vt 0.225427 0.430719
vt 0.226786 0.430744
vt 0.226295 0.430727
vt 0.287617 0.419168
vt 0.287587 0.419156
vt 0.287796 0.418947
vt 0.287809 0.418977
vt 0.288080 0.418977
vt 0.288092 0.418947
vt 0.288301 0.419156
vt 0.288272 0.419168
vt 0.288272 0.419439
vt 0.288301 0.419452
vt 0.288092 0.419661
vt 0.288080 0.419631
vt 0.287809 0.419631
vt 0.287796 0.419661
vt 0.287587 0.419452
vt 0.287617 0.419439
vt 0.288310 0.418954
vt 0.288527 0.418947
vt 0.288518 0.419156
vt 0.288301 0.419163
vt 0.289333 0.418980
vt 0.289551 0.418973
vt 0.289541 0.419183
vt 0.289324 0.419190
vt 0.288301 0.419675
vt 0.288518 0.419668
vt 0.288527 0.419964
vt 0.288310 0.419970
vt 0.289324 0.419701
vt 0.289541 0.419695
vt 0.289551 0.419990
vt 0.289333 0.419997
vt 0.288527 0.419452
vt 0.288310 0.419459
vt 0.289551 0.419478
vt 0.289333 0.419485
vt 0.288310 0.419466
vt 0.288527 0.419459
vt 0.289333 0.419492
vt 0.289551 0.419485
vt 0.288610 0.419183
vt 0.288819 0.418973
vt 0.289115 0.418973
vt 0.288610 0.419478
vt 0.289324 0.419183
vt 0.288819 0.419687
vt 0.289324 0.419478
vt 0.289115 0.419687
vt 0.225917 0.431861
vt 0.227461 0.431041
vt 0.227410 0.431888
vt 0.226092 0.431874
vt 0.225517 0.431912
vt 0.225708 0.431912
vt 0.225733 0.432469
vt 0.225742 0.432509
vt 0.225494 0.432509
vt 0.225503 0.432469
vt 0.227020 0.431916
vt 0.227210 0.431927
vt 0.225917 0.432087
vt 0.225917 0.432334
vt 0.226114 0.431912
vt 0.226305 0.431912
vt 0.225494 0.431912
vt 0.225742 0.431912
vt 0.226546 0.431916
vt 0.226737 0.431927
vt 0.225320 0.432334
vt 0.225320 0.432087
s 0
usemtl LowPoly
f 51/1/1 2/2/1 1/3/1 50/4/1
f 63/5/2 8/6/2 7/7/2 61/8/2
f 60/9/3 58/10/3 64/11/3 62/12/3
f 55/13/4 4/14/4 3/15/4 53/16/4
f 61/8/5 7/7/5 6/17/5 59/18/5
f 57/19/6 5/20/6 4/21/6 55/22/6
f 58/10/3 56/23/3 49/24/3 64/11/3
f 3/25/7 11/26/7 10/27/7 2/2/7
f 8/6/8 16/28/8 15/29/8 7/7/8
f 6/30/9 14/31/9 13/32/9 5/20/9
f 4/14/10 12/33/10 11/34/10 3/15/10
f 2/2/11 10/27/11 9/35/11 1/3/11
f 1/3/12 9/35/12 16/36/12 8/37/12
f 7/37/13 15/38/13 14/31/13 6/30/13
f 5/20/14 13/32/14 12/39/14 4/21/14
f 9/35/15 17/40/15 24/41/15 16/36/15
f 15/38/16 23/42/16 22/43/16 14/31/16
f 13/32/17 21/44/17 20/45/17 12/39/17
f 11/26/18 19/46/18 18/47/18 10/27/18
f 16/28/19 24/48/19 23/49/19 15/29/19
f 14/31/20 22/43/20 21/44/20 13/32/20
f 12/33/21 20/50/21 19/51/21 11/34/21
f 10/27/22 18/47/22 17/40/22 9/35/22
f 20/50/4 28/52/4 27/53/4 19/51/4
f 18/47/1 26/54/1 25/55/1 17/40/1
f 17/56/23 25/57/23 32/58/23 24/48/23
f 23/42/5 31/59/5 30/60/5 22/43/5
f 21/61/6 29/62/6 28/52/6 20/50/6
f 19/46/24 27/63/24 26/54/24 18/47/24
f 24/48/2 32/58/2 31/64/2 23/49/2
f 22/43/25 30/60/25 29/65/25 21/44/25
f 32/66/3 40/67/3 39/68/3 31/69/3
f 30/70/3 38/71/3 37/72/3 29/73/3
f 28/74/3 36/75/3 35/76/3 27/77/3
f 26/78/3 34/79/3 33/80/3 25/81/3
f 25/81/3 33/80/3 40/67/3 32/66/3
f 31/69/3 39/68/3 38/71/3 30/70/3
f 29/73/3 37/72/3 36/75/3 28/74/3
f 27/77/3 35/76/3 34/79/3 26/78/3
f 37/82/6 45/83/6 44/84/6 36/85/6
f 35/86/24 43/87/24 42/88/24 34/89/24
f 40/90/2 48/91/2 47/92/2 39/93/2
f 38/94/25 46/95/25 45/96/25 37/97/25
f 36/85/4 44/84/4 43/98/4 35/99/4
f 34/89/1 42/88/1 41/100/1 33/101/1
f 33/102/23 41/103/23 48/91/23 40/90/23
f 39/104/5 47/105/5 46/95/5 38/94/5
f 42/106/26 43/107/26 44/108/26 41/109/26
f 45/110/26 48/111/26 41/109/26 44/108/26
f 46/112/26 47/113/26 48/111/26 45/110/26
f 50/4/23 1/3/23 8/37/23 63/114/23
f 53/16/24 3/15/24 2/115/24 51/116/24
f 59/117/25 6/30/25 5/20/25 57/19/25
f 52/118/27 51/1/27 50/4/27 49/119/27
f 54/120/28 53/121/28 51/122/28 52/123/28
f 56/124/29 55/13/29 53/16/29 54/125/29
f 58/10/30 57/126/30 55/127/30 56/23/30
f 60/128/31 59/117/31 57/19/31 58/129/31
f 62/12/32 61/130/32 59/131/32 60/9/32
f 64/132/33 63/5/33 61/8/33 62/133/33
f 49/24/34 50/134/34 63/135/34 64/11/34
f 52/123/3 49/24/3 56/23/3 54/120/3
