# Blender 4.2.1 LTS
# www.blender.org
mtllib Bowl_2.mtl
o Sphere
v 0.000000 0.000061 -0.068404
v 0.115771 0.154343 -0.159345
v 0.101807 0.088000 -0.140126
v 0.075564 0.034791 -0.104005
v 0.040207 0.000061 -0.055340
v 0.187322 0.154343 -0.060864
v 0.164728 0.088000 -0.053523
v 0.122265 0.034791 -0.039726
v 0.065056 0.000061 -0.021138
v 0.187322 0.154343 0.060864
v 0.164728 0.088000 0.053523
v 0.122265 0.034791 0.039726
v 0.065056 0.000061 0.021138
v 0.115771 0.154343 0.159345
v 0.101807 0.088000 0.140126
v 0.075564 0.034791 0.104005
v 0.040207 0.000061 0.055340
v 0.000000 0.154343 0.196962
v 0.000000 0.088000 0.173205
v 0.000000 0.034791 0.128558
v 0.000000 0.000061 0.068404
v -0.115771 0.154343 0.159345
v -0.101807 0.088000 0.140126
v -0.075564 0.034791 0.104005
v -0.040207 0.000061 0.055340
v -0.187322 0.154343 0.060864
v -0.164728 0.088000 0.053523
v -0.122265 0.034791 0.039726
v -0.065056 0.000061 0.021138
v -0.187322 0.154343 -0.060864
v -0.164728 0.088000 -0.053523
v -0.122265 0.034791 -0.039726
v -0.065056 0.000061 -0.021138
v -0.115771 0.154343 -0.159345
v -0.101807 0.088000 -0.140126
v -0.075564 0.034791 -0.104005
v -0.040207 0.000061 -0.055340
v -0.000000 0.154343 -0.196962
v -0.000000 0.088000 -0.173205
v -0.000000 0.034791 -0.128558
v 0.000000 0.005998 -0.066498
v 0.112306 0.154343 -0.154576
v 0.098559 0.091071 -0.135655
v 0.073142 0.039455 -0.100671
v 0.039086 0.005998 -0.053798
v 0.181715 0.154343 -0.059043
v 0.159472 0.091071 -0.051815
v 0.118346 0.039455 -0.038453
v 0.063234 0.006029 -0.020546
v 0.181715 0.154343 0.059043
v 0.159472 0.091071 0.051815
v 0.118346 0.039455 0.038453
v 0.063234 0.006029 0.020546
v 0.112306 0.154343 0.154576
v 0.098559 0.091071 0.135655
v 0.073142 0.039455 0.100671
v 0.039081 0.006029 0.053790
v 0.000000 0.154343 0.191066
v 0.000000 0.091071 0.167678
v 0.000000 0.039455 0.124436
v 0.000000 0.005998 0.066498
v -0.112306 0.154343 0.154576
v -0.098559 0.091071 0.135655
v -0.073142 0.039455 0.100671
v -0.039086 0.005998 0.053798
v -0.181715 0.154343 0.059043
v -0.159472 0.091071 0.051815
v -0.118346 0.039455 0.038453
v -0.063234 0.006029 0.020546
v -0.181715 0.154343 -0.059043
v -0.159472 0.091071 -0.051815
v -0.118346 0.039455 -0.038453
v -0.063234 0.006029 -0.020546
v -0.112306 0.154343 -0.154576
v -0.098559 0.091071 -0.135655
v -0.073142 0.039455 -0.100671
v -0.039081 0.006029 -0.053790
v -0.000000 0.154343 -0.191066
v -0.000000 0.091071 -0.167678
v -0.000000 0.039455 -0.124436
vn 0.2925 -0.3224 -0.9003
vn 0.2415 -0.6238 -0.7434
vn 0.1604 -0.8548 -0.4935
vn 0.6323 -0.6238 -0.4594
vn 0.4198 -0.8548 -0.3050
vn 0.7658 -0.3224 -0.5564
vn 0.5189 -0.8548 -0.0000
vn 0.9466 -0.3224 -0.0000
vn 0.7816 -0.6238 -0.0000
vn 0.7658 -0.3224 0.5564
vn 0.6323 -0.6238 0.4594
vn 0.4198 -0.8548 0.3050
vn -0.0000 -1.0000 -0.0000
vn 0.1604 -0.8548 0.4935
vn 0.2925 -0.3224 0.9003
vn 0.2415 -0.6238 0.7434
vn -0.2925 -0.3224 0.9003
vn -0.2415 -0.6238 0.7434
vn -0.1604 -0.8548 0.4935
vn -0.6323 -0.6238 0.4594
vn -0.4198 -0.8548 0.3050
vn -0.7658 -0.3224 0.5564
vn -0.5189 -0.8548 -0.0000
vn -0.9466 -0.3224 -0.0000
vn -0.7816 -0.6238 -0.0000
vn -0.7658 -0.3224 -0.5564
vn -0.6323 -0.6238 -0.4594
vn -0.4198 -0.8548 -0.3050
vn -0.1604 -0.8548 -0.4935
vn -0.2925 -0.3224 -0.9003
vn -0.2415 -0.6238 -0.7434
vn -0.2915 0.3317 0.8972
vn -0.2417 0.6231 0.7438
vn -0.1604 0.8548 0.4936
vn -0.6327 0.6231 0.4597
vn -0.4199 0.8549 0.3047
vn -0.7632 0.3317 0.5545
vn -0.5186 0.8550 -0.0000
vn -0.9434 0.3317 -0.0000
vn -0.7821 0.6231 -0.0000
vn -0.7632 0.3317 -0.5545
vn -0.6327 0.6231 -0.4597
vn -0.4195 0.8550 -0.3048
vn 0.0004 1.0000 -0.0012
vn -0.1606 0.8549 -0.4933
vn -0.2915 0.3317 -0.8972
vn -0.2417 0.6231 -0.7438
vn 0.2915 0.3317 -0.8972
vn 0.2417 0.6231 -0.7438
vn 0.1604 0.8548 -0.4936
vn 0.6327 0.6231 -0.4597
vn 0.4199 0.8549 -0.3047
vn -0.0000 1.0000 -0.0000
vn 0.7632 0.3317 -0.5545
vn 0.5186 0.8550 -0.0000
vn 0.9434 0.3317 -0.0000
vn 0.7821 0.6231 -0.0000
vn 0.7632 0.3317 0.5545
vn 0.6327 0.6231 0.4597
vn 0.4195 0.8550 0.3048
vn -0.0004 1.0000 0.0012
vn 0.1606 0.8549 0.4933
vn 0.2915 0.3317 0.8972
vn 0.2417 0.6231 0.7438
vt 0.091163 0.371088
vt 0.106730 0.371088
vt 0.106730 0.371845
vt 0.091163 0.371845
vt 0.075597 0.371088
vt 0.075597 0.371845
vt 0.060031 0.371088
vt 0.060031 0.371845
vt 0.091163 0.372602
vt 0.075597 0.372602
vt 0.060031 0.372602
vt 0.106730 0.372602
vt 0.075597 0.373358
vt 0.060031 0.373358
vt 0.106730 0.373358
vt 0.091163 0.373358
vt 0.106730 0.374115
vt 0.091163 0.374115
vt 0.075597 0.374115
vt 0.060031 0.374115
vt 0.060031 0.370332
vt 0.075597 0.374871
vt 0.060031 0.374871
vt 0.106730 0.374871
vt 0.091163 0.374871
vt 0.106730 0.375628
vt 0.091163 0.375628
vt 0.075597 0.375628
vt 0.060031 0.375628
vt 0.091163 0.376385
vt 0.075597 0.376385
vt 0.060031 0.376385
vt 0.060031 0.369575
vt 0.106730 0.376385
vt 0.060031 0.368819
vt 0.075597 0.368819
vt 0.075597 0.369575
vt 0.091163 0.368819
vt 0.106730 0.368819
vt 0.106730 0.369575
vt 0.091163 0.369575
vt 0.106730 0.370332
vt 0.091163 0.370332
vt 0.075597 0.370332
s 0
usemtl LowPoly
f 39/1/1 38/2/1 2/3/1 3/4/1
f 40/5/2 39/1/2 3/4/2 4/6/2
f 1/7/3 40/5/3 4/6/3 5/8/3
f 4/6/4 3/4/4 7/9/4 8/10/4
f 5/8/5 4/6/5 8/10/5 9/11/5
f 3/4/6 2/3/6 6/12/6 7/9/6
f 9/11/7 8/10/7 12/13/7 13/14/7
f 7/9/8 6/12/8 10/15/8 11/16/8
f 8/10/9 7/9/9 11/16/9 12/13/9
f 11/16/10 10/15/10 14/17/10 15/18/10
f 12/13/11 11/16/11 15/18/11 16/19/11
f 13/14/12 12/13/12 16/19/12 17/20/12
f 1/7/13 5/8/13 9/11/13 37/21/13
f 17/20/14 16/19/14 20/22/14 21/23/14
f 15/18/15 14/17/15 18/24/15 19/25/15
f 16/19/16 15/18/16 19/25/16 20/22/16
f 19/25/17 18/24/17 22/26/17 23/27/17
f 20/22/18 19/25/18 23/27/18 24/28/18
f 21/23/19 20/22/19 24/28/19 25/29/19
f 24/28/20 23/27/20 27/30/20 28/31/20
f 25/29/21 24/28/21 28/31/21 29/32/21
f 13/14/13 33/33/13 37/21/13 9/11/13
f 23/27/22 22/26/22 26/34/22 27/30/22
f 29/35/23 28/36/23 32/37/23 33/33/23
f 17/20/13 29/32/13 33/33/13 13/14/13
f 27/38/24 26/39/24 30/40/24 31/41/24
f 28/36/25 27/38/25 31/41/25 32/37/25
f 31/41/26 30/40/26 34/42/26 35/43/26
f 32/37/27 31/41/27 35/43/27 36/44/27
f 33/33/28 32/37/28 36/44/28 37/21/28
f 21/23/13 25/29/13 29/32/13 17/20/13
f 37/21/29 36/44/29 40/5/29 1/7/29
f 35/43/30 34/42/30 38/2/30 39/1/30
f 36/44/31 35/43/31 39/1/31 40/5/31
f 79/1/32 43/4/32 42/3/32 78/2/32
f 80/5/33 44/6/33 43/4/33 79/1/33
f 41/7/34 45/8/34 44/6/34 80/5/34
f 44/6/35 48/10/35 47/9/35 43/4/35
f 45/8/36 49/11/36 48/10/36 44/6/36
f 43/4/37 47/9/37 46/12/37 42/3/37
f 49/11/38 53/14/38 52/13/38 48/10/38
f 47/9/39 51/16/39 50/15/39 46/12/39
f 48/10/40 52/13/40 51/16/40 47/9/40
f 51/16/41 55/18/41 54/17/41 50/15/41
f 52/13/42 56/19/42 55/18/42 51/16/42
f 53/14/43 57/20/43 56/19/43 52/13/43
f 41/7/44 77/21/44 49/11/44 45/8/44
f 57/20/45 61/23/45 60/22/45 56/19/45
f 55/18/46 59/25/46 58/24/46 54/17/46
f 56/19/47 60/22/47 59/25/47 55/18/47
f 59/25/48 63/27/48 62/26/48 58/24/48
f 60/22/49 64/28/49 63/27/49 59/25/49
f 61/23/50 65/29/50 64/28/50 60/22/50
f 64/28/51 68/31/51 67/30/51 63/27/51
f 65/29/52 69/32/52 68/31/52 64/28/52
f 53/14/53 49/11/53 77/21/53 73/33/53
f 63/27/54 67/30/54 66/34/54 62/26/54
f 69/35/55 73/33/55 72/37/55 68/36/55
f 57/20/53 53/14/53 73/33/53 69/32/53
f 67/38/56 71/41/56 70/40/56 66/39/56
f 68/36/57 72/37/57 71/41/57 67/38/57
f 71/41/58 75/43/58 74/42/58 70/40/58
f 72/37/59 76/44/59 75/43/59 71/41/59
f 73/33/60 77/21/60 76/44/60 72/37/60
f 61/23/61 57/20/61 69/32/61 65/29/61
f 77/21/62 41/7/62 80/5/62 76/44/62
f 75/43/63 79/1/63 78/2/63 74/42/63
f 76/44/64 80/5/64 79/1/64 75/43/64
f 6/12/53 2/3/53 42/3/53 46/12/53
f 10/15/53 6/12/53 46/12/53 50/15/53
f 14/17/53 10/15/53 50/15/53 54/17/53
f 18/24/53 14/17/53 54/17/53 58/24/53
f 22/26/53 18/24/53 58/24/53 62/26/53
f 26/34/53 22/26/53 62/26/53 66/34/53
f 30/40/53 26/39/53 66/39/53 70/40/53
f 34/42/53 30/40/53 70/40/53 74/42/53
f 38/2/53 34/42/53 74/42/53 78/2/53
f 2/3/53 38/2/53 78/2/53 42/3/53
