# Blender 4.2.1 LTS
# www.blender.org
mtllib Chair.mtl
o Cube.015
v -0.246749 0.379667 0.260485
v -0.246749 0.424742 0.260485
v -0.246749 0.379667 0.249777
v -0.246749 0.424742 0.249777
v 0.246749 0.379667 0.260485
v 0.246749 0.424742 0.260485
v 0.246749 0.379667 0.249777
v 0.246749 0.424742 0.249777
v -0.201943 0.524360 -0.215785
v -0.201943 0.524360 -0.238049
v -0.251543 0.524360 -0.215785
v -0.251543 0.524360 -0.238049
v -0.201943 0.524360 -0.201870
v -0.251543 0.524360 -0.201870
v -0.201942 0.524360 -0.251965
v -0.251543 0.524360 -0.251965
v -0.201942 -0.000641 -0.215785
v -0.201942 -0.000641 -0.238049
v -0.251543 -0.000641 -0.215785
v -0.251543 -0.000641 -0.238049
v -0.201942 -0.000641 -0.201870
v -0.251543 -0.000641 -0.201870
v -0.201942 -0.000641 -0.251965
v -0.251542 -0.000641 -0.251965
v 0.198808 0.524360 -0.215785
v 0.198808 0.524360 -0.238049
v 0.248408 0.524360 -0.215785
v 0.248408 0.524360 -0.238049
v 0.198808 0.524360 -0.201870
v 0.248408 0.524360 -0.201870
v 0.198808 0.524360 -0.251965
v 0.248408 0.524360 -0.251965
v 0.198807 -0.000641 -0.215785
v 0.198807 -0.000641 -0.238049
v 0.248407 -0.000641 -0.215785
v 0.248407 -0.000641 -0.238049
v 0.198807 -0.000641 -0.201870
v 0.248408 -0.000641 -0.201870
v 0.198807 -0.000641 -0.251965
v 0.248407 -0.000641 -0.251965
v -0.261172 1.166786 0.295048
v -0.211572 1.166786 0.295048
v -0.261172 1.166786 0.244952
v -0.211572 1.166786 0.244952
v -0.211572 1.111124 0.295048
v -0.261172 1.111124 0.295048
v -0.211572 1.111124 0.244952
v -0.261172 1.111124 0.244952
v -0.211572 0.570800 0.275093
v -0.261172 0.570800 0.275093
v -0.211572 0.570800 0.224998
v -0.261172 0.570800 0.224998
v -0.211571 0.002048 0.261178
v -0.211571 0.002048 0.238913
v -0.261172 0.002048 0.261178
v -0.261172 0.002048 0.238913
v -0.211571 0.002048 0.275093
v -0.261172 0.002048 0.275093
v -0.211571 0.002048 0.224998
v -0.261172 0.002048 0.224998
v 0.261172 1.166786 0.295048
v 0.211572 1.166786 0.295048
v 0.211572 1.111124 0.295048
v 0.261172 1.111124 0.295048
v 0.211572 1.111124 0.244952
v 0.261172 1.111124 0.244952
v 0.211572 0.570800 0.275093
v 0.261172 0.570800 0.275093
v 0.211572 0.570800 0.224998
v 0.261172 0.570800 0.224998
v 0.211571 0.002048 0.261178
v 0.211571 0.002048 0.238913
v 0.261172 0.002048 0.261178
v 0.261172 0.002048 0.238913
v 0.211571 0.002048 0.275093
v 0.261172 0.002048 0.275093
v 0.211571 0.002048 0.224998
v 0.261172 0.002048 0.224998
v 0.254735 0.495059 0.266573
v 0.254735 0.495058 -0.275364
v -0.254735 0.495059 0.266573
v -0.254735 0.495058 -0.275364
v -0.254735 0.552872 -0.275364
v 0.254735 0.525041 0.266573
v -0.254735 0.552872 0.266573
v 0.254735 0.525041 -0.275364
v 0.254735 0.552872 -0.275364
v -0.254735 0.525041 0.266573
v 0.254735 0.552872 0.266573
v -0.254735 0.525041 -0.275364
v 0.211572 1.166786 0.244952
v 0.261172 1.166786 0.244952
v -0.211572 1.111124 0.295048
v -0.211572 1.111124 0.244952
v 0.211572 1.111124 0.295048
v 0.211572 1.111124 0.244952
v -0.211572 1.021070 0.241627
v -0.211572 0.660854 0.228323
v -0.211572 1.021070 0.291722
v -0.211572 0.660854 0.278419
v 0.211572 1.021070 0.241627
v 0.211572 0.660854 0.228323
v 0.211572 1.021070 0.291722
v 0.211572 0.660854 0.278419
v -0.211572 0.615827 0.226661
v -0.211572 0.615827 0.276756
v 0.211572 0.615827 0.226661
v 0.211572 0.615827 0.276756
v -0.141048 0.660854 0.262138
v -0.141048 0.660854 0.245439
v -0.176310 0.660854 0.262138
v -0.176310 0.660854 0.245439
v 0.070524 1.022653 0.276053
v 0.070524 1.022653 0.259355
v 0.035262 1.022653 0.276053
v 0.035262 1.022653 0.259355
v -0.070524 1.022653 0.259355
v -0.070524 1.022653 0.276053
v -0.035262 1.022653 0.259355
v -0.035262 1.022653 0.276053
v -0.070524 0.660854 0.245439
v -0.070524 0.660854 0.262138
v -0.035262 0.660854 0.245439
v -0.035262 0.660854 0.262138
v -0.141048 1.022653 0.276053
v -0.141048 1.022653 0.259355
v -0.176310 1.022653 0.276053
v -0.176310 1.022653 0.259355
v 0.035262 0.660854 0.245439
v 0.035262 0.660854 0.262138
v 0.070524 0.660854 0.245439
v 0.070524 0.660854 0.262138
v 0.176310 1.022653 0.276053
v 0.176310 1.022653 0.259355
v 0.141048 1.022653 0.276053
v 0.141048 1.022653 0.259355
v 0.141048 0.660854 0.245439
v 0.141048 0.660854 0.262138
v 0.176310 0.660854 0.245439
v 0.176310 0.660854 0.262138
vn -1.0000 -0.0000 -0.0000
vn -0.0000 -0.0000 -1.0000
vn 1.0000 -0.0000 -0.0000
vn -0.0000 -0.0000 1.0000
vn -0.0000 -1.0000 -0.0000
vn -0.0000 1.0000 -0.0000
vn -0.0000 -0.0185 0.9998
vn -0.0000 0.0185 -0.9998
vn -0.0000 0.0369 -0.9993
vn -0.0000 -0.0369 0.9993
vn -0.0000 -0.0384 0.9993
vn -0.0000 0.0384 -0.9993
vt 0.479462 0.863381
vt 0.479336 0.863381
vt 0.479336 0.862594
vt 0.479462 0.862594
vt 0.493189 0.857888
vt 0.493189 0.859690
vt 0.491389 0.859690
vt 0.491389 0.857888
vt 0.479688 0.863381
vt 0.479561 0.863381
vt 0.479561 0.862594
vt 0.479688 0.862594
vt 0.478160 0.862551
vt 0.478160 0.860749
vt 0.479960 0.860749
vt 0.479960 0.862551
vt 0.478512 0.864396
vt 0.478385 0.864396
vt 0.478385 0.862594
vt 0.478512 0.862594
vt 0.478160 0.862594
vt 0.478287 0.862594
vt 0.478287 0.864396
vt 0.478160 0.864396
vt 0.494170 0.891476
vt 0.493756 0.891476
vt 0.493756 0.882302
vt 0.494170 0.882302
vt 0.492288 0.882302
vt 0.492453 0.882302
vt 0.492453 0.891470
vt 0.492288 0.891470
vt 0.492025 0.891470
vt 0.491860 0.891470
vt 0.491860 0.882302
vt 0.492025 0.882302
vt 0.494782 0.882302
vt 0.495196 0.882302
vt 0.495196 0.891476
vt 0.494782 0.891476
vt 0.491596 0.891470
vt 0.491333 0.891470
vt 0.491168 0.891470
vt 0.491168 0.882302
vt 0.491333 0.882302
vt 0.491596 0.882302
vt 0.491761 0.882302
vt 0.491761 0.891470
vt 0.493657 0.882302
vt 0.493657 0.891476
vt 0.493244 0.891476
vt 0.493244 0.882302
vt 0.492980 0.891470
vt 0.492716 0.891470
vt 0.492552 0.891470
vt 0.492552 0.882302
vt 0.492716 0.882302
vt 0.492980 0.882302
vt 0.493145 0.882302
vt 0.493145 0.891470
vt 0.494683 0.882302
vt 0.494683 0.891476
vt 0.494269 0.891476
vt 0.494269 0.882302
vt 0.490905 0.882302
vt 0.491069 0.882302
vt 0.491069 0.891470
vt 0.490905 0.891470
vt 0.490641 0.891470
vt 0.490476 0.891470
vt 0.490476 0.882302
vt 0.490641 0.882302
vt 0.489865 0.892240
vt 0.489451 0.892240
vt 0.489451 0.882302
vt 0.489865 0.882302
vt 0.477213 0.901670
vt 0.476620 0.901668
vt 0.476499 0.892233
vt 0.477092 0.892235
vt 0.488425 0.883574
vt 0.488839 0.883574
vt 0.488839 0.893017
vt 0.488425 0.893017
vt 0.476620 0.882302
vt 0.476784 0.882303
vt 0.477048 0.882303
vt 0.477213 0.882304
vt 0.489865 0.901680
vt 0.489451 0.901680
vt 0.488839 0.902955
vt 0.488425 0.902955
vt 0.478246 0.883575
vt 0.478839 0.883574
vt 0.478718 0.893009
vt 0.478125 0.893010
vt 0.478839 0.902940
vt 0.478674 0.902940
vt 0.478410 0.902941
vt 0.478246 0.902941
vt 0.490377 0.893014
vt 0.490377 0.902952
vt 0.489963 0.902952
vt 0.489963 0.893014
vt 0.479652 0.883574
vt 0.479530 0.893009
vt 0.478937 0.893010
vt 0.479059 0.883575
vt 0.488938 0.901683
vt 0.488938 0.892240
vt 0.489352 0.892240
vt 0.489352 0.901683
vt 0.479652 0.902940
vt 0.479487 0.902940
vt 0.479223 0.902941
vt 0.479059 0.902941
vt 0.490377 0.883574
vt 0.489963 0.883574
vt 0.488938 0.882302
vt 0.489352 0.882302
vt 0.477433 0.901668
vt 0.477312 0.892233
vt 0.477905 0.892235
vt 0.478026 0.901670
vt 0.477433 0.882302
vt 0.477597 0.882303
vt 0.477861 0.882303
vt 0.478026 0.882304
vt 0.484434 0.885091
vt 0.485631 0.885091
vt 0.485631 0.887909
vt 0.484434 0.887909
vt 0.486926 0.887909
vt 0.485729 0.887909
vt 0.485729 0.885091
vt 0.486926 0.885091
vt 0.484071 0.885120
vt 0.479750 0.885120
vt 0.479750 0.882302
vt 0.484071 0.882302
vt 0.496493 0.886037
vt 0.495295 0.886037
vt 0.495295 0.884147
vt 0.496493 0.884147
vt 0.395907 0.891897
vt 0.395907 0.890007
vt 0.383848 0.890951
vt 0.383848 0.893768
vt 0.395907 0.893830
vt 0.395907 0.891940
vt 0.386340 0.893768
vt 0.386340 0.890951
vt 0.496493 0.887970
vt 0.495295 0.887970
vt 0.495295 0.886081
vt 0.496493 0.886081
vt 0.478818 0.885146
vt 0.478005 0.900097
vt 0.478225 0.885148
vt 0.477413 0.900096
vt 0.478135 0.892224
vt 0.477322 0.893020
vt 0.477332 0.893806
vt 0.478145 0.891438
vt 0.478728 0.892222
vt 0.478738 0.891436
vt 0.477925 0.893807
vt 0.477915 0.893021
vt 0.488243 0.867220
vt 0.488045 0.867220
vt 0.488175 0.867418
vt 0.487977 0.867418
s 1
usemtl LowPoly
f 2/1/1 4/2/1 3/3/1 1/4/1
f 4/5/2 8/6/2 7/7/2 3/8/2
f 8/9/3 6/10/3 5/11/3 7/12/3
f 6/13/4 2/14/4 1/15/4 5/16/4
f 1/17/5 3/18/5 7/19/5 5/20/5
f 6/21/6 8/22/6 4/23/6 2/24/6
f 13/25/4 14/26/4 22/27/4 21/28/4
f 12/29/1 16/30/1 24/31/1 20/32/1 19/33/1 22/34/1 14/35/1 11/36/1
f 16/37/2 15/38/2 23/39/2 24/40/2
f 10/41/3 9/42/3 13/43/3 21/44/3 17/45/3 18/46/3 23/47/3 15/48/3
f 29/49/4 37/50/4 38/51/4 30/52/4
f 28/53/3 27/54/3 30/55/3 38/56/3 35/57/3 36/58/3 40/59/3 32/60/3
f 32/61/2 40/62/2 39/63/2 31/64/2
f 26/65/1 31/66/1 39/67/1 34/68/1 33/69/1 37/70/1 29/71/1 25/72/1
f 49/73/7 50/74/7 58/75/4 57/76/4
f 46/77/1 48/78/1 52/79/1 50/80/1
f 48/81/8 47/82/8 51/83/8 52/84/8
f 52/79/1 60/85/1 56/86/1 55/87/1 58/88/1 50/80/1
f 45/89/7 46/90/7 50/74/7 49/73/7
f 52/84/8 51/83/8 59/91/2 60/92/2
f 47/93/3 45/94/3 49/95/3 51/96/3
f 51/96/3 49/95/3 57/97/3 53/98/3 54/99/3 59/100/3
f 67/101/7 75/102/4 76/103/4 68/104/7
f 64/105/3 68/106/3 70/107/3 66/108/3
f 66/109/8 70/110/8 69/111/8 65/112/8
f 70/107/3 68/106/3 76/113/3 73/114/3 74/115/3 78/116/3
f 63/117/7 67/101/7 68/104/7 64/118/7
f 70/110/8 78/119/2 77/120/2 69/111/8
f 65/121/1 69/122/1 67/123/1 63/124/1
f 69/122/1 77/125/1 72/126/1 71/127/1 75/128/1 67/123/1
f 90/129/1 82/130/1 81/131/1 88/132/1
f 84/133/3 79/134/3 80/135/3 86/136/3
f 79/137/5 81/138/5 82/139/5 80/140/5
f 86/141/2 80/142/2 82/143/2 90/144/2
f 86/145/2 90/146/2 83/146/2 87/145/2
f 90/147/1 88/148/1 85/148/1 83/147/1
f 88/149/4 84/150/4 89/150/4 85/149/4
f 84/151/3 86/152/3 87/152/3 89/151/3
f 88/153/4 81/154/4 79/155/4 84/156/4
f 65/121/1 63/124/1 62/124/1 91/121/1
f 64/105/3 66/108/3 92/108/3 61/105/3
f 45/94/3 47/93/3 44/93/3 42/94/3
f 48/78/1 46/77/1 41/77/1 43/78/1
f 66/109/8 65/112/8 91/112/2 92/109/2
f 63/117/7 64/118/7 61/118/4 62/117/4
f 47/82/8 48/81/8 43/81/2 44/82/2
f 46/90/7 45/89/7 42/89/4 41/90/4
f 61/118/6 92/109/6 91/121/6 62/117/6
f 41/90/6 42/89/6 44/93/6 43/81/6
f 85/148/6 89/151/6 87/145/6 83/147/6
f 99/157/9 93/94/9 95/124/9 103/158/9
f 93/94/5 94/93/5 96/121/5 95/124/5
f 97/159/10 101/160/10 96/121/10 94/93/10
f 105/161/10 107/162/10 102/163/10 98/164/10
f 106/165/9 100/166/9 104/167/9 108/168/9
f 96/121/1 101/160/1 103/158/1 95/124/1
f 94/93/3 93/94/3 99/157/3 97/159/3
f 101/160/6 97/159/6 99/157/6 103/158/6
f 106/165/6 108/168/6 107/162/6 105/161/6
f 102/163/5 104/167/5 100/166/5 98/164/5
f 102/163/1 107/162/1 108/168/1 104/167/1
f 98/164/3 100/166/3 106/165/3 105/161/3
f 122/169/1 118/169/1 117/170/1 121/170/1
f 111/169/1 127/169/1 128/170/1 112/170/1
f 109/171/11 125/171/11 127/169/11 111/169/11
f 110/172/3 126/172/3 125/171/3 109/171/3
f 112/170/12 128/170/12 126/172/12 110/172/12
f 124/171/11 120/171/11 118/169/11 122/169/11
f 123/172/3 119/172/3 120/171/3 124/171/3
f 121/170/12 117/170/12 119/172/12 123/172/12
f 130/169/1 115/169/1 116/170/1 129/170/1
f 132/171/11 113/171/11 115/169/11 130/169/11
f 131/172/3 114/172/3 113/171/3 132/171/3
f 129/170/12 116/170/12 114/172/12 131/172/12
f 138/169/1 135/169/1 136/170/1 137/170/1
f 140/171/11 133/171/11 135/169/11 138/169/11
f 139/172/3 134/172/3 133/171/3 140/171/3
f 137/170/12 136/170/12 134/172/12 139/172/12
