# Blender 4.2.1 LTS
# www.blender.org
mtllib Cup.mtl
o Circle
v -0.000000 0.082838 -0.042214
v -0.029850 0.082838 -0.029850
v -0.041842 0.083140 0.000000
v -0.029587 0.083140 0.029587
v -0.000000 0.082838 0.042214
v 0.029850 0.082838 0.029850
v 0.041842 0.083140 0.000000
v 0.029587 0.083140 -0.029587
v -0.000000 0.115954 -0.042423
v -0.029998 0.115954 -0.029998
v -0.042423 0.115954 0.000000
v -0.029998 0.115954 0.029998
v -0.000000 0.115954 0.042423
v 0.029998 0.115954 0.029998
v 0.042423 0.115954 0.000000
v 0.029998 0.115954 -0.029998
v -0.000000 -0.000000 -0.050000
v -0.035355 -0.000000 -0.035355
v -0.050000 -0.000000 0.000000
v -0.035355 -0.000000 0.035355
v -0.000000 -0.000000 0.050000
v 0.035355 -0.000000 0.035355
v 0.050000 -0.000000 0.000000
v 0.035355 -0.000000 -0.035355
v -0.000000 0.115954 -0.050000
v -0.035355 0.115954 -0.035355
v -0.050000 0.115954 0.000000
v -0.035355 0.115954 0.035355
v -0.000000 0.115954 0.050000
v 0.035355 0.115954 0.035355
v 0.050000 0.115954 0.000000
v 0.035355 0.115954 -0.035355
v 0.044872 0.095000 -0.010000
v 0.065000 0.095000 -0.010000
v 0.080000 0.080000 -0.010000
v 0.080000 0.050000 -0.010000
v 0.065000 0.025000 -0.010000
v 0.044872 0.025000 -0.010000
v 0.044872 0.095000 0.010000
v 0.065000 0.095000 0.010000
v 0.080000 0.080000 0.010000
v 0.080000 0.050000 0.010000
v 0.065000 0.025000 0.010000
v 0.044872 0.025000 0.010000
v 0.044872 0.090000 -0.010000
v 0.062929 0.090000 -0.010000
v 0.075000 0.077929 -0.010000
v 0.075000 0.051385 -0.010000
v 0.062169 0.030000 -0.010000
v 0.044872 0.030000 -0.010000
v 0.044872 0.090000 0.010000
v 0.062929 0.090000 0.010000
v 0.075000 0.077929 0.010000
v 0.075000 0.051385 0.010000
v 0.062169 0.030000 0.010000
v 0.044872 0.030000 0.010000
vn -0.9259 0.0111 -0.3777
vn 0.3876 0.0111 -0.9218
vn 0.9259 0.0111 0.3777
vn -0.9238 0.0164 0.3826
vn -0.3827 0.0058 -0.9239
vn 0.9238 0.0164 -0.3826
vn 0.3827 0.0058 0.9239
vn -0.3876 0.0111 0.9218
vn -0.0050 0.9999 -0.0121
vn -0.0000 1.0000 -0.0000
vn 0.0050 0.9999 0.0121
vn 0.9239 -0.0000 0.3827
vn -0.3827 -0.0000 0.9239
vn -0.9239 -0.0000 -0.3827
vn 0.9239 -0.0000 -0.3827
vn 0.3827 -0.0000 0.9239
vn -0.9239 -0.0000 0.3827
vn -0.3827 -0.0000 -0.9239
vn 0.3827 -0.0000 -0.9239
vn -0.0000 -1.0000 -0.0000
vn 1.0000 -0.0000 -0.0000
vn 0.8575 -0.5145 -0.0000
vn 0.7071 0.7071 -0.0000
vn -1.0000 -0.0000 -0.0000
vn -0.8575 0.5145 -0.0000
vn -0.7071 -0.7071 -0.0000
vn -0.0000 -0.0000 -1.0000
vn -0.0000 -0.0000 1.0000
vt 0.390625 0.007812
vt 0.313115 0.417064
s 0
usemtl LowPoly
f 7/1/1 6/1/1 14/1/1 15/1/1
f 5/1/2 4/1/2 12/1/2 13/1/2
f 3/1/3 2/1/3 10/1/3 11/1/3
f 8/1/4 7/1/4 15/1/4 16/1/4
f 6/1/5 5/1/5 13/1/5 14/1/5
f 4/1/6 3/1/6 11/1/6 12/1/6
f 2/1/7 1/1/7 9/1/7 10/1/7
f 1/1/8 8/1/8 16/1/8 9/1/8
f 1/2/9 2/2/9 3/2/9 8/2/9
f 4/2/10 7/2/10 8/2/10 3/2/10
f 5/2/11 6/2/11 7/2/11 4/2/11
f 23/1/12 31/1/12 30/1/12 22/1/12
f 21/1/13 29/1/13 28/1/13 20/1/13
f 19/1/14 27/1/14 26/1/14 18/1/14
f 24/1/15 32/1/15 31/1/15 23/1/15
f 22/1/16 30/1/16 29/1/16 21/1/16
f 20/1/17 28/1/17 27/1/17 19/1/17
f 18/1/18 26/1/18 25/1/18 17/1/18
f 17/1/19 25/1/19 32/1/19 24/1/19
f 17/1/20 24/1/20 19/1/20 18/1/20
f 20/1/20 19/1/20 24/1/20 23/1/20
f 21/1/20 20/1/20 23/1/20 22/1/20
f 10/1/10 9/1/10 25/1/10 26/1/10
f 11/1/10 10/1/10 26/1/10 27/1/10
f 12/1/10 11/1/10 27/1/10 28/1/10
f 13/1/10 12/1/10 28/1/10 29/1/10
f 14/1/10 13/1/10 29/1/10 30/1/10
f 15/1/10 14/1/10 30/1/10 31/1/10
f 16/1/10 15/1/10 31/1/10 32/1/10
f 9/1/10 16/1/10 32/1/10 25/1/10
f 37/1/20 43/1/20 44/1/20 38/1/20
f 35/1/21 41/1/21 42/1/21 36/1/21
f 36/1/22 42/1/22 43/1/22 37/1/22
f 34/1/23 40/1/23 41/1/23 35/1/23
f 33/1/10 39/1/10 40/1/10 34/1/10
f 49/1/10 50/1/10 56/1/10 55/1/10
f 47/1/24 48/1/24 54/1/24 53/1/24
f 48/1/25 49/1/25 55/1/25 54/1/25
f 46/1/26 47/1/26 53/1/26 52/1/26
f 45/1/20 46/1/20 52/1/20 51/1/20
f 33/1/27 34/1/27 46/1/27 45/1/27
f 34/1/27 35/1/27 47/1/27 46/1/27
f 35/1/27 36/1/27 48/1/27 47/1/27
f 36/1/27 37/1/27 49/1/27 48/1/27
f 37/1/27 38/1/27 50/1/27 49/1/27
f 40/1/28 39/1/28 51/1/28 52/1/28
f 41/1/28 40/1/28 52/1/28 53/1/28
f 42/1/28 41/1/28 53/1/28 54/1/28
f 43/1/28 42/1/28 54/1/28 55/1/28
f 44/1/28 43/1/28 55/1/28 56/1/28
