# Blender 4.2.1 LTS
# www.blender.org
mtllib Cutting Board.mtl
o Plane
v -0.121961 0.000000 0.073633
v 0.121961 0.000000 0.073633
v -0.121961 0.000000 -0.073633
v 0.121961 0.000000 -0.073633
v -0.121961 0.012709 -0.073633
v -0.121961 0.012709 0.073633
v 0.121961 0.012709 0.073633
v 0.121961 0.012709 -0.073633
v -0.121961 0.000000 0.000000
v 0.121961 0.000000 0.024544
v 0.121961 0.000000 -0.024544
v -0.121961 0.012709 0.000000
v 0.121961 0.012709 0.024544
v 0.121961 0.012709 -0.024544
v 0.241961 0.000000 0.024544
v 0.241961 0.000000 -0.024544
v 0.241961 0.012709 0.024544
v 0.241961 0.012709 -0.024544
v 0.142169 0.012709 -0.015750
v 0.142169 0.000000 -0.015750
v 0.142169 0.012709 0.015750
v 0.142169 0.000000 0.015750
vn -0.0000 -1.0000 -0.0000
vn -0.0000 1.0000 -0.0000
vn -0.0000 -0.0000 -1.0000
vn -0.0000 -0.0000 1.0000
vn 1.0000 -0.0000 -0.0000
vn -1.0000 -0.0000 -0.0000
vn -0.0878 -0.0000 -0.9961
vn -0.0878 -0.0000 0.9961
vn 0.3990 -0.0000 0.9169
vn 0.3990 -0.0000 -0.9169
vt 0.312424 0.483057
vt 0.312424 0.486713
vt 0.319736 0.486713
vt 0.319736 0.484276
vt 0.312424 0.479401
vt 0.319736 0.479401
vt 0.319736 0.481838
s 0
usemtl LowPoly
f 9/1/1 3/2/1 4/3/1 11/4/1
f 12/1/2 14/4/2 8/3/2 5/2/2
f 4/3/3 3/2/3 5/2/3 8/3/3
f 1/5/4 2/6/4 7/6/4 6/5/4
f 11/4/5 4/3/5 8/3/5 14/4/5
f 9/1/6 1/5/6 6/5/6 12/1/6
f 3/2/6 9/1/6 12/1/6 5/2/6
f 2/6/5 10/7/5 13/7/5 7/6/5
f 20/4/7 19/4/7 18/4/7 16/4/7
f 6/5/2 7/6/2 13/7/2 12/1/2
f 12/1/2 13/7/2 14/4/2
f 1/5/1 9/1/1 10/7/1 2/6/1
f 9/1/1 11/4/1 10/7/1
f 15/7/5 16/4/5 18/4/5 17/7/5
f 19/4/2 21/7/2 17/7/2 18/4/2
f 22/7/1 20/4/1 16/4/1 15/7/1
f 21/7/8 22/7/8 15/7/8 17/7/8
f 13/7/9 10/7/9 22/7/9 21/7/9
f 10/7/1 11/4/1 20/4/1 22/7/1
f 14/4/2 13/7/2 21/7/2 19/4/2
f 11/4/10 14/4/10 19/4/10 20/4/10
