# Blender 4.2.1 LTS
# www.blender.org
mtllib Kitchen Cabinet_2.mtl
o Cube.005
v -0.300000 -0.000000 -0.300000
v -0.300000 0.900000 -0.300000
v 0.300000 -0.000000 -0.300000
v 0.300000 0.900000 -0.300000
v -0.300000 0.930000 -0.300000
v 0.300000 0.930000 -0.300000
v 0.300000 0.900000 0.330000
v -0.300000 0.900000 0.330000
v 0.300000 0.930000 0.330000
v -0.300000 0.930000 0.330000
v -0.300000 0.900000 0.300000
v 0.300000 0.000000 0.300000
v -0.300000 0.000000 0.300000
v 0.300000 0.900000 0.300000
v -0.282637 0.882637 0.300000
v 0.282637 0.882637 0.300000
v 0.282637 0.017363 0.300000
v -0.282637 0.017363 0.300000
v -0.282637 0.882637 0.309552
v 0.282637 0.017363 0.309552
v -0.282637 0.017363 0.309552
v 0.282637 0.882637 0.309552
v -0.240000 0.759000 0.320396
v -0.240000 0.777000 0.320396
v -0.240000 0.759000 0.260396
v -0.240000 0.777000 0.260396
v -0.180000 0.759000 0.320396
v -0.180000 0.777000 0.320396
v -0.180000 0.759000 0.260396
v -0.180000 0.777000 0.260396
vn -0.0000 -0.0000 1.0000
vn -1.0000 -0.0000 -0.0000
vn -0.0000 -1.0000 -0.0000
vn 1.0000 -0.0000 -0.0000
vn -0.0000 1.0000 -0.0000
vn -0.0000 -0.0000 -1.0000
vt 0.108430 0.964212
vt 0.113666 0.964212
vt 0.113771 0.964370
vt 0.108325 0.964370
vt 0.108325 0.942585
vt 0.113771 0.942585
vt 0.113771 0.948031
vt 0.108325 0.948031
vt 0.102879 0.953477
vt 0.108325 0.953477
vt 0.108325 0.958923
vt 0.102879 0.958923
vt 0.379844 0.959517
vt 0.379844 0.954071
vt 0.385290 0.954071
vt 0.385290 0.959517
vt 0.379844 0.948625
vt 0.379844 0.943178
vt 0.379844 0.964963
vt 0.594758 0.779230
vt 0.599994 0.779230
vt 0.108430 0.959081
vt 0.113666 0.959081
vt 0.113771 0.958923
vt 0.599994 0.784361
vt 0.594758 0.784361
vt 0.113771 0.953477
vt 0.841584 0.447140
vt 0.843526 0.447140
vt 0.843526 0.449082
vt 0.841584 0.449082
vt 0.841584 0.451025
vt 0.843526 0.451025
vt 0.843526 0.452967
vt 0.841584 0.452967
vt 0.843526 0.454910
vt 0.841584 0.454910
vt 0.839642 0.451025
vt 0.839642 0.452967
vt 0.845469 0.451025
vt 0.845469 0.452967
s 0
usemtl Material.001
f 18/1/1 15/2/1 11/3/1 13/4/1
f 13/5/2 11/6/2 2/7/2 1/8/2
f 1/9/3 3/10/3 12/11/3 13/12/3
f 14/13/4 4/14/4 6/14/4 9/13/4
f 6/14/5 5/15/5 10/16/5 9/13/5
f 2/17/2 11/18/2 10/18/2 5/17/2
f 14/13/4 9/13/4 7/13/4
f 4/14/6 2/17/6 5/17/6 6/14/6
f 8/19/1 7/13/1 9/13/1 10/19/1
f 11/19/3 14/13/3 7/13/3 8/19/3
f 10/18/2 11/18/2 8/18/2
f 17/20/4 16/21/4 22/21/4 20/20/4
f 17/22/1 18/1/1 13/4/1 12/11/1
f 15/2/1 16/23/1 14/24/1 11/3/1
f 15/25/2 18/26/2 21/26/2 19/25/2
f 19/25/1 21/26/1 20/20/1 22/21/1
f 3/10/4 4/27/4 14/24/4 12/11/4
f 16/23/1 17/22/1 12/11/1 14/24/1
f 18/26/3 17/20/3 20/20/3 21/26/3
f 16/21/5 15/25/5 19/25/5 22/21/5
f 23/28/2 24/29/2 26/30/2 25/31/2
f 29/32/4 30/33/4 28/34/4 27/35/4
f 27/35/1 28/34/1 24/36/1 23/37/1
f 25/38/3 29/32/3 27/35/3 23/39/3
f 30/33/5 26/40/5 24/41/5 28/34/5
f 1/8/6 2/7/6 4/27/6 3/10/6
