# Blender 4.2.1 LTS
# www.blender.org
mtllib Kitchen Cabinet_4.mtl
o Cube.006
v -0.300000 -0.000000 -0.300000
v -0.300000 0.900000 -0.300000
v 0.300000 -0.000000 -0.300000
v 0.300000 0.900000 -0.300000
v 0.300000 0.900000 0.330000
v -0.300000 0.900000 0.330000
v -0.300000 0.900000 0.300000
v 0.300000 0.000000 0.300000
v -0.300000 0.000000 0.300000
v 0.300000 0.900000 0.300000
v -0.282637 0.882637 0.300000
v 0.282637 0.882637 0.300000
v 0.282637 0.017363 0.300000
v -0.282637 0.017363 0.300000
v -0.282637 0.882637 0.309552
v 0.282637 0.017363 0.309552
v -0.282637 0.017363 0.309552
v 0.282637 0.882637 0.309552
v 0.300000 0.930000 -0.300000
v -0.222914 0.930000 0.290878
v -0.264175 0.930000 0.249616
v -0.252089 0.930000 0.278792
v -0.300000 0.930000 0.330000
v -0.264175 0.930000 -0.196211
v -0.222914 0.930000 -0.237471
v -0.300000 0.930000 -0.300000
v -0.252089 0.930000 -0.225386
v 0.264175 0.930000 0.249616
v 0.222914 0.930000 0.290878
v 0.252089 0.930000 0.278792
v 0.300000 0.930000 0.330000
v 0.222914 0.930000 -0.237471
v 0.264175 0.930000 -0.196211
v 0.252089 0.930000 -0.225386
v 0.180000 0.759000 0.320396
v 0.180000 0.777000 0.320396
v 0.180000 0.759000 0.260396
v 0.180000 0.777000 0.260396
v 0.240000 0.759000 0.320396
v 0.240000 0.777000 0.320396
v 0.240000 0.759000 0.260396
v 0.240000 0.777000 0.260396
vn -1.0000 -0.0000 -0.0000
vn -0.0000 -1.0000 -0.0000
vn 1.0000 -0.0000 -0.0000
vn -0.0000 1.0000 -0.0000
vn -0.0000 -0.0000 -1.0000
vn -0.0000 -0.0000 1.0000
vt 0.191480 0.863478
vt 0.191480 0.867090
vt 0.187868 0.867090
vt 0.187868 0.863478
vt 0.184257 0.870701
vt 0.187868 0.870701
vt 0.187868 0.874313
vt 0.184257 0.874313
vt 0.377874 0.762387
vt 0.377874 0.758775
vt 0.378111 0.762223
vt 0.378338 0.762171
vt 0.381022 0.762171
vt 0.381486 0.762387
vt 0.377874 0.755164
vt 0.377874 0.751552
vt 0.377874 0.765998
vt 0.191480 0.870701
vt 0.191480 0.874313
vt 0.187938 0.874417
vt 0.187938 0.877820
vt 0.187868 0.877924
vt 0.191410 0.877820
vt 0.191410 0.874417
vt 0.191480 0.877924
vt 0.581131 0.859790
vt 0.584603 0.859790
vt 0.584603 0.863192
vt 0.581131 0.863192
vt 0.378038 0.759012
vt 0.378090 0.759239
vt 0.378090 0.761923
vt 0.381249 0.758940
vt 0.381022 0.758991
vt 0.378338 0.758991
vt 0.381197 0.762098
vt 0.381249 0.762223
vt 0.381270 0.761923
vt 0.381266 0.762167
vt 0.381270 0.759239
vt 0.381197 0.759064
vt 0.381321 0.759012
vt 0.381266 0.758995
vt 0.378163 0.762098
vt 0.378038 0.762150
vt 0.378094 0.762167
vt 0.378163 0.759064
vt 0.378111 0.758940
vt 0.378094 0.758995
vt 0.381321 0.762150
vt 0.381486 0.758775
vt 0.857275 0.518503
vt 0.859218 0.518503
vt 0.859218 0.520445
vt 0.857275 0.520445
vt 0.857275 0.522388
vt 0.859218 0.522388
vt 0.859218 0.524330
vt 0.857275 0.524330
vt 0.859218 0.526272
vt 0.857275 0.526272
vt 0.855333 0.522388
vt 0.855333 0.524330
vt 0.861160 0.522388
vt 0.861160 0.524330
s 0
usemtl Material.001
f 7/1/1 2/2/1 1/3/1 9/4/1
f 1/5/2 3/6/2 8/7/2 9/8/2
f 10/9/3 4/10/3 19/10/3 31/9/3
f 31/11/4 29/12/4 20/13/4 23/14/4
f 2/15/1 7/16/1 23/16/1 26/15/1
f 10/9/3 31/9/3 5/9/3
f 4/10/5 2/15/5 26/15/5 19/10/5
f 6/17/6 5/9/6 31/9/6 23/17/6
f 7/17/2 10/9/2 5/9/2 6/17/2
f 23/16/1 7/16/1 6/16/1
f 2/2/5 4/18/5 3/6/5 1/3/5
f 4/18/3 10/19/3 8/7/3 3/6/3
f 13/20/6 14/21/6 9/22/6 8/7/6
f 11/23/6 12/24/6 10/19/6 7/25/6
f 14/21/6 11/23/6 7/25/6 9/22/6
f 12/24/6 13/20/6 8/7/6 10/19/6
f 13/26/3 12/27/3 18/27/3 16/26/3
f 11/28/1 14/29/1 17/29/1 15/28/1
f 15/28/6 17/29/6 16/26/6 18/27/6
f 14/29/2 13/26/2 16/26/2 17/29/2
f 12/27/4 11/28/4 15/28/4 18/27/4
f 19/30/4 33/31/4 28/32/4 31/9/4
f 26/33/4 25/34/4 32/35/4 19/10/4
f 20/13/4 22/36/4 23/37/4
f 21/38/4 23/39/4 22/36/4
f 24/40/4 27/41/4 26/42/4
f 25/34/4 26/43/4 27/41/4
f 28/32/4 30/44/4 31/45/4
f 29/12/4 31/46/4 30/44/4
f 32/35/4 34/47/4 19/48/4
f 33/31/4 19/49/4 34/47/4
f 23/50/4 21/38/4 24/40/4 26/51/4
f 35/52/1 36/53/1 38/54/1 37/55/1
f 41/56/3 42/57/3 40/58/3 39/59/3
f 39/59/6 40/58/6 36/60/6 35/61/6
f 37/62/2 41/56/2 39/59/2 35/63/2
f 42/57/4 38/64/4 36/65/4 40/58/4
