# Blender 4.2.1 LTS
# www.blender.org
mtllib Kitchen Cabinet_5.mtl
o Cube.022
v 0.900000 0.000000 0.900000
v 0.900000 0.900000 0.900000
v 0.900000 0.930000 0.900000
v 0.270000 0.900000 0.900000
v 0.270211 0.900000 0.330211
v 0.300211 0.900000 0.300211
v 0.300000 0.000000 0.900000
v 0.300211 0.000000 0.300211
v 0.300000 0.900000 0.900000
v 0.300000 0.882637 0.347363
v 0.300000 0.882637 0.882637
v 0.300000 0.017363 0.882637
v 0.300000 0.017363 0.347363
v 0.290448 0.882637 0.347363
v 0.290448 0.017363 0.882637
v 0.290448 0.017363 0.347363
v 0.290448 0.882637 0.882637
v -0.300000 -0.000000 -0.300000
v -0.300000 0.900000 -0.300000
v 0.900000 -0.000000 -0.300000
v 0.900000 0.900000 -0.300000
v -0.300000 0.930000 -0.300000
v -0.300000 0.900000 0.330000
v -0.300000 0.900000 0.300000
v -0.300000 0.000000 0.300000
v -0.282215 0.882637 0.300423
v 0.253060 0.882637 0.300422
v 0.253060 0.017363 0.300422
v -0.282215 0.017363 0.300423
v -0.282215 0.882637 0.309975
v 0.253060 0.017363 0.309975
v -0.282215 0.017363 0.309975
v 0.253060 0.882637 0.309975
v 0.900000 0.930000 -0.300000
v 0.270211 0.930000 0.330211
v -0.300000 0.930000 0.330000
v 0.270000 0.930000 0.900000
vn -0.0000 -0.0000 -1.0000
vn -0.0000 -0.0000 1.0000
vn -0.0000 -1.0000 -0.0000
vn -0.0000 1.0000 -0.0000
vn -0.0004 -0.0000 1.0000
vn 1.0000 -0.0000 -0.0000
vn -1.0000 -0.0000 -0.0045
vn -1.0000 0.0059 -0.0002
vn -1.0000 -0.0059 -0.0002
vn -1.0000 -0.0000 -0.0000
vn -0.0238 -0.0000 0.9997
vn -0.0002 -0.0184 0.9998
vn -0.0002 0.0184 0.9998
vn -1.0000 -0.0000 -0.0004
vn 0.0045 -0.0000 1.0000
vt 0.614614 0.881968
vt 0.614614 0.858610
vt 0.439271 0.746817
vt 0.422604 0.746817
vt 0.422604 0.745984
vt 0.440104 0.745984
vt 0.143177 0.785046
vt 0.143177 0.818380
vt 0.126511 0.818380
vt 0.126516 0.801719
vt 0.440104 0.746817
vt 0.422604 0.779317
vt 0.405110 0.761811
vt 0.405104 0.745984
vt 0.637504 0.881968
vt 0.425937 0.779317
vt 0.425937 0.795156
vt 0.425104 0.795156
vt 0.425104 0.779317
vt 0.382604 0.779317
vt 0.382604 0.812650
vt 0.381771 0.812650
vt 0.381771 0.779317
vt 0.194844 0.844213
vt 0.194844 0.869213
vt 0.193534 0.868730
vt 0.193534 0.844695
vt 0.178665 0.844695
vt 0.178183 0.844213
vt 0.178665 0.868730
vt 0.178183 0.869213
vt 0.162344 0.844213
vt 0.162344 0.819213
vt 0.179010 0.819213
vt 0.179010 0.844213
vt 0.637503 0.858610
vt 0.177689 0.868730
vt 0.177689 0.844695
vt 0.637503 0.881968
vt 0.371765 0.828490
vt 0.372599 0.829323
vt 0.355938 0.829323
vt 0.355938 0.828489
vt 0.660393 0.858610
vt 0.660393 0.881968
vt 0.109844 0.785046
vt 0.109844 0.801713
vt 0.425104 0.780150
vt 0.408437 0.780150
vt 0.407604 0.779317
vt 0.389271 0.779317
vt 0.389271 0.761817
vt 0.407604 0.780150
vt 0.356771 0.779317
vt 0.356771 0.812650
vt 0.355938 0.812650
vt 0.355938 0.779317
vt 0.176510 0.810880
vt 0.176510 0.785880
vt 0.193177 0.785880
vt 0.193177 0.810880
vt 0.162820 0.868730
vt 0.161510 0.869213
vt 0.162820 0.844695
vt 0.161510 0.844213
vt 0.135677 0.851713
vt 0.110677 0.851713
vt 0.110677 0.818380
vt 0.135677 0.818380
vt 0.161510 0.851713
vt 0.136511 0.851713
vt 0.136511 0.818380
vt 0.161510 0.818380
vt 0.372599 0.812650
vt 0.371765 0.812650
vt 0.426771 0.779317
vt 0.426771 0.795144
vt 0.425937 0.795144
s 0
usemtl Material.001
f 10/1/1 13/2/1 16/2/1 14/1/1
f 9/3/2 2/4/2 3/5/2 37/6/2
f 20/7/3 1/8/3 7/9/3 8/10/3
f 9/3/2 37/6/2 4/11/2
f 3/5/4 34/12/4 35/13/4 37/14/4
f 11/15/4 10/1/4 14/1/4 17/15/4
f 23/16/5 5/17/5 35/18/5 36/19/5
f 2/20/6 21/21/6 34/22/6 3/23/6
f 6/24/7 8/25/7 13/26/7 10/27/7
f 10/27/8 11/28/8 9/29/8 6/24/8
f 12/30/9 13/26/9 8/25/9 7/31/9
f 25/32/10 24/33/10 19/34/10 18/35/10
f 12/36/2 11/15/2 17/15/2 15/36/2
f 24/29/11 25/31/11 29/37/11 26/38/11
f 13/2/3 12/36/3 15/36/3 16/2/3
f 26/39/10 29/36/10 32/36/10 30/39/10
f 5/40/3 6/41/3 9/42/3 4/43/3
f 30/39/2 32/36/2 31/44/2 33/45/2
f 18/46/3 20/7/3 8/10/3 25/47/3
f 19/48/10 24/49/10 36/50/10 22/19/10
f 34/12/4 22/51/4 36/52/4 35/13/4
f 36/50/10 24/49/10 23/53/10
f 21/54/1 19/55/1 22/56/1 34/57/1
f 1/58/2 2/59/2 9/60/2 7/61/2
f 28/62/12 29/37/12 25/31/12 8/63/12
f 26/38/13 27/64/13 6/65/13 24/29/13
f 18/66/1 19/67/1 21/68/1 20/69/1
f 14/1/10 16/2/10 15/36/10 17/15/10
f 11/28/10 12/30/10 7/31/10 9/29/10
f 28/44/6 27/45/6 33/45/6 31/44/6
f 20/70/6 21/71/6 2/72/6 1/73/6
f 29/36/3 28/44/3 31/44/3 32/36/3
f 24/74/3 6/41/3 5/40/3 23/75/3
f 5/76/14 4/77/14 37/78/14 35/16/14
f 27/64/15 28/62/15 8/63/15 6/65/15
f 27/45/4 26/39/4 30/39/4 33/45/4
