# Blender 4.2.1 LTS
# www.blender.org
mtllib Kitchen Cabinet_1.mtl
o Cube
v -0.282637 0.017363 0.300000
v -0.282637 0.882637 0.300000
v -0.300000 -0.000000 -0.300000
v -0.300000 0.900000 -0.300000
v 0.282637 0.017363 0.300000
v 0.282637 0.882637 0.300000
v 0.300000 -0.000000 -0.300000
v 0.300000 0.900000 -0.300000
v -0.300000 0.930000 -0.300000
v 0.300000 0.930000 0.330000
v 0.300000 0.930000 -0.300000
v 0.300000 0.900000 0.330000
v -0.300000 0.900000 0.330000
v -0.300000 0.930000 0.330000
v -0.282637 0.459000 0.300000
v -0.300000 0.450000 -0.300000
v 0.282637 0.459000 0.300000
v -0.282637 0.684000 0.300000
v 0.300000 0.450000 -0.300000
v 0.282637 0.684000 0.300000
v 0.282637 0.234000 0.300000
v -0.282637 0.234000 0.300000
v -0.300000 0.900000 0.300000
v 0.300000 0.225000 0.300000
v 0.300000 0.000000 0.300000
v -0.300000 0.000000 0.300000
v 0.300000 0.900000 0.300000
v -0.300000 0.225000 0.300000
v 0.300000 0.675000 0.300000
v 0.300000 0.450000 0.300000
v 0.282637 0.666000 0.300000
v -0.282637 0.666000 0.300000
v 0.282637 0.441000 0.300000
v -0.282637 0.441000 0.300000
v -0.300000 0.675000 0.300000
v -0.300000 0.450000 0.300000
v 0.282637 0.216000 0.300000
v -0.282637 0.216000 0.300000
v 0.291637 0.225000 0.300000
v 0.282637 0.684000 0.309552
v -0.282637 0.684000 0.309552
v -0.282637 0.882637 0.309552
v 0.282637 0.882637 0.309552
v 0.282637 0.459000 0.309552
v -0.282637 0.459000 0.309552
v 0.282637 0.666000 0.309552
v -0.282637 0.666000 0.309552
v 0.282637 0.441000 0.309552
v -0.282637 0.441000 0.309552
v 0.282637 0.234000 0.309552
v -0.282637 0.234000 0.309552
v 0.282637 0.216000 0.309552
v -0.282637 0.216000 0.309552
v 0.282637 0.017363 0.309552
v -0.282637 0.017363 0.309552
v -0.030000 0.111000 0.320396
v -0.030000 0.129000 0.320396
v -0.030000 0.111000 0.260396
v -0.030000 0.129000 0.260396
v 0.030000 0.111000 0.320396
v 0.030000 0.129000 0.320396
v 0.030000 0.111000 0.260396
v 0.030000 0.129000 0.260396
v -0.030000 0.327000 0.320396
v -0.030000 0.345000 0.320396
v -0.030000 0.327000 0.260396
v -0.030000 0.345000 0.260396
v 0.030000 0.327000 0.320396
v 0.030000 0.345000 0.320396
v 0.030000 0.327000 0.260396
v 0.030000 0.345000 0.260396
v -0.030000 0.543000 0.320396
v -0.030000 0.561000 0.320396
v -0.030000 0.543000 0.260396
v -0.030000 0.561000 0.260396
v 0.030000 0.543000 0.320396
v 0.030000 0.561000 0.320396
v 0.030000 0.543000 0.260396
v 0.030000 0.561000 0.260396
v -0.030000 0.759000 0.320396
v -0.030000 0.777000 0.320396
v -0.030000 0.759000 0.260396
v -0.030000 0.777000 0.260396
v 0.030000 0.759000 0.320396
v 0.030000 0.777000 0.320396
v 0.030000 0.759000 0.260396
v 0.030000 0.777000 0.260396
vn -1.0000 -0.0000 -0.0000
vn -0.0000 -0.0000 -1.0000
vn 1.0000 -0.0000 -0.0000
vn -0.0000 -1.0000 -0.0000
vn -0.0000 1.0000 -0.0000
vn -0.0000 -0.0000 1.0000
vt 0.166703 0.840470
vt 0.167955 0.840470
vt 0.167955 0.845482
vt 0.166703 0.845482
vt 0.167955 0.850493
vt 0.166703 0.850493
vt 0.167955 0.855504
vt 0.166703 0.855504
vt 0.663195 0.866723
vt 0.664301 0.866723
vt 0.157933 0.850493
vt 0.162944 0.850493
vt 0.162944 0.855504
vt 0.157933 0.855504
vt 0.407882 0.741693
vt 0.407882 0.736682
vt 0.412893 0.736682
vt 0.412893 0.741693
vt 0.407882 0.731670
vt 0.407882 0.726659
vt 0.407882 0.746705
vt 0.665654 0.866723
vt 0.666807 0.866723
vt 0.165450 0.850493
vt 0.165450 0.855504
vt 0.164197 0.855504
vt 0.164197 0.840470
vt 0.165450 0.840470
vt 0.164197 0.845482
vt 0.664401 0.871444
vt 0.664401 0.866723
vt 0.165450 0.845482
vt 0.162944 0.840470
vt 0.162944 0.845482
vt 0.164197 0.850493
vt 0.668013 0.866723
vt 0.668013 0.871444
vt 0.164147 0.855649
vt 0.163041 0.855649
vt 0.164197 0.855574
vt 0.163041 0.860371
vt 0.162944 0.860516
vt 0.167859 0.860371
vt 0.167859 0.855649
vt 0.167955 0.860516
vt 0.164247 0.860371
vt 0.165400 0.860371
vt 0.165450 0.860516
vt 0.164197 0.860446
vt 0.166653 0.855649
vt 0.165500 0.855649
vt 0.166703 0.855574
vt 0.165500 0.860371
vt 0.166653 0.860371
vt 0.166703 0.860516
vt 0.165450 0.860446
vt 0.166753 0.855649
vt 0.165400 0.855649
vt 0.164247 0.855649
vt 0.165450 0.855574
vt 0.164147 0.860371
vt 0.164197 0.860516
vt 0.166753 0.860371
vt 0.166703 0.860446
vt 0.666907 0.866723
vt 0.666907 0.871444
vt 0.665554 0.866723
vt 0.665554 0.871444
vt 0.666807 0.871444
vt 0.665654 0.871444
vt 0.664301 0.871444
vt 0.663195 0.871444
vt 0.899109 0.420071
vt 0.901051 0.420071
vt 0.901051 0.422014
vt 0.899109 0.422014
vt 0.899109 0.423956
vt 0.901051 0.423956
vt 0.901051 0.425899
vt 0.899109 0.425899
vt 0.901051 0.427841
vt 0.899109 0.427841
vt 0.897166 0.423956
vt 0.897166 0.425899
vt 0.902994 0.423956
vt 0.902994 0.425899
s 0
usemtl Material.001
f 35/1/1 23/2/1 4/3/1 16/4/1
f 16/4/2 4/3/2 8/5/2 19/6/2
f 19/6/3 8/5/3 27/7/3 29/8/3
f 5/9/3 37/10/3 52/10/3 54/9/3
f 3/11/4 7/12/4 25/13/4 26/14/4
f 27/15/3 8/16/3 11/16/3 10/15/3
f 11/16/5 9/17/5 14/18/5 10/15/5
f 4/19/1 23/20/1 14/20/1 9/19/1
f 27/15/3 10/15/3 12/15/3
f 8/16/2 4/19/2 9/19/2 11/16/2
f 13/21/6 12/15/6 10/15/6 14/21/6
f 23/21/4 27/15/4 12/15/4 13/21/4
f 14/20/1 23/20/1 13/20/1
f 17/22/3 31/23/3 46/23/3 44/22/3
f 19/24/3 30/25/3 24/26/3
f 28/27/1 36/28/1 16/29/1
f 22/30/4 21/31/4 50/31/4 51/30/4
f 19/6/3 29/8/3 30/25/3
f 36/28/1 35/1/1 16/32/1
f 26/33/1 28/27/1 16/29/1 3/34/1
f 3/34/2 16/29/2 19/35/2 7/12/2
f 7/12/3 19/35/3 24/26/3 25/13/3
f 6/36/5 2/37/5 42/37/5 43/36/5
f 37/38/6 5/39/6 25/13/6 24/26/6 39/40/6
f 5/39/6 1/41/6 26/42/6 25/13/6
f 2/43/6 6/44/6 27/7/6 23/45/6
f 22/46/6 34/47/6 36/48/6 28/49/6
f 31/50/6 17/51/6 30/25/6 29/52/6
f 15/53/6 32/54/6 35/55/6 36/56/6
f 6/44/6 20/57/6 29/8/6 27/7/6
f 33/58/6 21/59/6 39/40/6 24/26/6 30/60/6
f 1/41/6 38/61/6 28/62/6 26/42/6
f 20/57/6 18/63/6 35/64/6 29/52/6
f 17/51/6 15/53/6 36/56/6 30/60/6
f 32/54/6 31/50/6 29/52/6 35/64/6
f 34/47/6 33/58/6 30/60/6 36/56/6
f 21/59/6 22/46/6 28/49/6 39/40/6
f 38/61/6 37/38/6 39/40/6 28/49/6
f 40/65/6 43/36/6 42/37/6 41/66/6
f 50/31/6 48/67/6 49/68/6 51/30/6
f 44/22/6 46/23/6 47/69/6 45/70/6
f 54/9/6 52/10/6 53/71/6 55/72/6
f 20/65/3 6/36/3 43/36/3 40/65/3
f 34/68/1 22/30/1 51/30/1 49/68/1
f 32/69/1 15/70/1 45/70/1 47/69/1
f 1/72/4 5/9/4 54/9/4 55/72/4
f 21/31/3 33/67/3 48/67/3 50/31/3
f 38/71/1 1/72/1 55/72/1 53/71/1
f 18/66/4 20/65/4 40/65/4 41/66/4
f 15/70/4 17/22/4 44/22/4 45/70/4
f 2/37/1 18/66/1 41/66/1 42/37/1
f 33/67/5 34/68/5 49/68/5 48/67/5
f 31/23/5 32/69/5 47/69/5 46/23/5
f 37/10/5 38/71/5 53/71/5 52/10/5
f 56/73/1 57/74/1 59/75/1 58/76/1
f 62/77/3 63/78/3 61/79/3 60/80/3
f 60/80/6 61/79/6 57/81/6 56/82/6
f 58/83/4 62/77/4 60/80/4 56/84/4
f 63/78/5 59/85/5 57/86/5 61/79/5
f 64/73/1 65/74/1 67/75/1 66/76/1
f 70/77/3 71/78/3 69/79/3 68/80/3
f 68/80/6 69/79/6 65/81/6 64/82/6
f 66/83/4 70/77/4 68/80/4 64/84/4
f 71/78/5 67/85/5 65/86/5 69/79/5
f 72/73/1 73/74/1 75/75/1 74/76/1
f 78/77/3 79/78/3 77/79/3 76/80/3
f 76/80/6 77/79/6 73/81/6 72/82/6
f 74/83/4 78/77/4 76/80/4 72/84/4
f 79/78/5 75/85/5 73/86/5 77/79/5
f 80/73/1 81/74/1 83/75/1 82/76/1
f 86/77/3 87/78/3 85/79/3 84/80/3
f 84/80/6 85/79/6 81/81/6 80/82/6
f 82/83/4 86/77/4 84/80/4 80/84/4
f 87/78/5 83/85/5 81/86/5 85/79/5
f 18/63/6 2/43/6 23/45/6 35/64/6
