# Blender 4.2.1 LTS
# www.blender.org
mtllib Cup.mtl
o Cube.001
v -0.181818 0.256437 0.150000
v -0.225381 0.300000 -0.150000
v 0.213606 0.276121 0.150000
v 0.222563 0.300000 -0.150000
v -0.181818 0.043563 0.150000
v 0.213606 0.230298 0.150000
v -0.225381 -0.000000 -0.150000
v 0.222563 -0.000000 -0.150000
v 0.222563 0.000000 0.150000
v -0.225381 0.300000 0.105000
v -0.225381 0.000000 0.105000
v 0.222563 0.000000 0.105000
v 0.067014 0.256437 0.150000
v 0.110577 0.000000 0.150000
v 0.067014 0.043563 0.150000
v 0.222563 0.300000 0.105000
v -0.225381 0.300000 0.150000
v -0.225381 0.000000 0.150000
v 0.119534 0.276121 0.150000
v 0.119534 0.230298 0.150000
v -0.181818 0.256437 0.140336
v -0.181818 0.043563 0.140336
v 0.067014 0.256437 0.140336
v 0.067014 0.043563 0.140336
v 0.222563 0.300000 0.150000
v 0.110577 0.300000 0.150000
v 0.150242 0.078468 0.150000
v 0.138212 0.052668 0.150000
v 0.154539 0.029349 0.150000
v 0.182898 0.031830 0.150000
v 0.194929 0.057630 0.150000
v 0.178601 0.080949 0.150000
v 0.150242 0.078468 0.160000
v 0.138212 0.052668 0.160000
v 0.154539 0.029349 0.160000
v 0.182898 0.031830 0.160000
v 0.194929 0.057630 0.160000
v 0.178601 0.080949 0.160000
v 0.182898 0.158468 0.150000
v 0.154539 0.160949 0.150000
v 0.138212 0.137630 0.150000
v 0.150242 0.111830 0.150000
v 0.178601 0.109349 0.150000
v 0.194929 0.132668 0.150000
v 0.182898 0.158468 0.160000
v 0.154539 0.160949 0.160000
v 0.138212 0.137630 0.160000
v 0.150242 0.111830 0.160000
v 0.178601 0.109349 0.160000
v 0.194929 0.132668 0.160000
vn -0.0000 1.0000 -0.0000
vn -1.0000 -0.0000 -0.0000
vn -0.0000 -1.0000 -0.0000
vn 1.0000 -0.0000 -0.0000
vn -0.0000 -0.0000 -1.0000
vn -0.0000 -0.0000 1.0000
vn -0.9063 0.4226 -0.0000
vn -0.0872 0.9962 -0.0000
vn 0.9063 -0.4226 -0.0000
vn -0.8192 -0.5736 -0.0000
vn 0.8192 0.5736 -0.0000
vn 0.0872 -0.9962 -0.0000
vn 0.0872 0.9962 -0.0000
vn 0.9063 0.4226 -0.0000
vn -0.0872 -0.9962 -0.0000
vn -0.8192 0.5736 -0.0000
vn 0.8192 -0.5736 -0.0000
vn -0.9063 -0.4226 -0.0000
vt 0.133280 0.327986
vt 0.133280 0.325856
vt 0.130474 0.325856
vt 0.130474 0.327986
vt 0.088985 0.323347
vt 0.090284 0.322971
vt 0.090284 0.322971
vt 0.090284 0.323347
vt 0.086543 0.323347
vt 0.086543 0.322971
vt 0.134216 0.325856
vt 0.134216 0.327986
vt 0.089349 0.323347
vt 0.089349 0.322971
vt 0.089349 0.322971
vt 0.334350 0.308210
vt 0.334350 0.308210
vt 0.333564 0.308210
vt 0.086907 0.323347
vt 0.289017 0.231081
vt 0.286939 0.231081
vt 0.090209 0.323347
vt 0.090209 0.323347
vt 0.089423 0.323347
vt 0.012459 0.353373
s 0
usemtl LowPoly
f 16/1/1 4/2/1 2/3/1 10/4/1
f 13/5/2 23/5/2 24/5/2 15/5/2
f 12/1/3 11/4/3 7/3/3 8/2/3
f 12/6/4 16/7/4 25/8/4 9/8/4
f 11/4/2 10/4/2 2/3/2 7/3/2
f 18/9/2 17/9/2 10/10/2 11/10/2
f 8/11/4 4/11/4 16/12/4 12/12/4
f 14/13/3 18/9/3 11/10/3 12/14/3
f 26/13/1 16/15/1 10/10/1 17/9/1
f 25/8/1 16/7/1 26/13/1
f 9/8/3 14/13/3 12/14/3
f 7/3/5 2/3/5 4/2/5 8/2/5
f 6/16/6 3/17/6 19/18/6 20/18/6
f 1/19/6 17/9/6 18/9/6 5/19/6
f 13/5/6 26/13/6 17/9/6 1/19/6
f 5/19/6 18/9/6 14/13/6 15/5/6
f 15/5/6 14/13/6 26/13/6 13/5/6
f 24/20/6 23/20/6 21/21/6 22/21/6
f 1/19/3 21/19/3 23/5/3 13/5/3
f 15/5/1 24/5/1 22/19/1 5/19/1
f 5/19/4 22/19/4 21/19/4 1/19/4
f 6/22/6 9/8/6 25/8/6 3/23/6
f 3/23/6 25/8/6 26/13/6 19/24/6
f 20/24/6 14/13/6 9/8/6 6/22/6
f 19/24/6 26/13/6 14/13/6 20/24/6
f 28/25/7 34/25/7 33/25/7 27/25/7
f 27/25/8 33/25/8 38/25/8 32/25/8
f 31/25/9 37/25/9 36/25/9 30/25/9
f 29/25/10 35/25/10 34/25/10 28/25/10
f 32/25/11 38/25/11 37/25/11 31/25/11
f 30/25/12 36/25/12 35/25/12 29/25/12
f 34/25/6 35/25/6 36/25/6 33/25/6
f 37/25/6 38/25/6 33/25/6 36/25/6
f 40/25/13 46/25/13 45/25/13 39/25/13
f 39/25/14 45/25/14 50/25/14 44/25/14
f 43/25/15 49/25/15 48/25/15 42/25/15
f 41/25/16 47/25/16 46/25/16 40/25/16
f 44/25/17 50/25/17 49/25/17 43/25/17
f 42/25/18 48/25/18 47/25/18 41/25/18
f 46/25/6 47/25/6 48/25/6 45/25/6
f 49/25/6 50/25/6 45/25/6 48/25/6
