# Blender 4.2.1 LTS
# www.blender.org
mtllib Orange.mtl
o Icosphere
v 0.000000 0.000370 -0.000000
v 0.038922 0.021694 0.028278
v -0.014867 0.021693 0.045755
v -0.048110 0.021694 -0.000000
v -0.014867 0.021693 -0.045755
v 0.038922 0.021694 -0.028278
v 0.014867 0.069634 0.045755
v -0.038922 0.069634 0.028278
v -0.038922 0.069634 -0.028278
v 0.014867 0.069634 -0.045755
v 0.048110 0.069633 -0.000000
v 0.000000 0.077881 -0.000000
v -0.008738 0.004214 0.026894
v 0.022878 0.004214 0.016621
v 0.014139 0.017730 0.043516
v 0.045755 0.017730 -0.000000
v 0.022878 0.004214 -0.016621
v -0.028278 0.004214 -0.000000
v -0.037017 0.017730 0.026894
v -0.008738 0.004214 -0.026894
v -0.037017 0.017730 -0.026894
v 0.014139 0.017730 -0.043516
v 0.051156 0.045701 0.016621
v 0.051156 0.045701 -0.016621
v 0.000000 0.045701 0.053789
v 0.031616 0.045701 0.043516
v -0.051156 0.045701 0.016621
v -0.031616 0.045701 0.043516
v -0.031616 0.045701 -0.043516
v -0.051156 0.045701 -0.016621
v 0.031616 0.045701 -0.043516
v 0.000000 0.045701 -0.053789
v 0.037017 0.073193 0.026894
v -0.014139 0.073193 0.043516
v -0.045755 0.073193 -0.000000
v -0.014139 0.073193 -0.043516
v 0.037017 0.073193 -0.026894
v 0.008738 0.080550 0.026894
v 0.028278 0.080550 -0.000000
v -0.022878 0.080550 0.016621
v -0.022878 0.080550 -0.016621
v 0.008738 0.080550 -0.026894
vn 0.0512 -0.9862 0.1576
vn 0.6221 -0.7405 0.2541
vn -0.1341 -0.9862 0.0974
vn -0.1341 -0.9862 -0.0974
vn 0.0512 -0.9862 -0.1576
vn 0.9051 -0.3324 0.2653
vn 0.0274 -0.3324 0.9427
vn -0.8881 -0.3324 0.3173
vn -0.5763 -0.3324 -0.7466
vn 0.5320 -0.3324 -0.7788
vn 0.8026 -0.1259 0.5831
vn -0.3066 -0.1259 0.9435
vn -0.9920 -0.1259 -0.0000
vn -0.3066 -0.1259 -0.9435
vn 0.8026 -0.1259 -0.5831
vn 0.2271 0.8731 0.4315
vn -0.3402 0.8731 0.3494
vn -0.4374 0.8731 -0.2156
vn 0.0699 0.8731 -0.4826
vn 0.4806 0.8730 -0.0827
vn -0.0937 0.9933 0.0681
vn 0.2477 0.9520 -0.1799
vn 0.2271 0.8731 -0.4315
vn 0.0358 0.9933 0.1102
vn -0.0946 0.9520 -0.2912
vn -0.3402 0.8731 -0.3494
vn 0.1159 0.9933 -0.0000
vn -0.3061 0.9520 -0.0000
vn -0.4374 0.8731 0.2156
vn 0.0358 0.9933 -0.1102
vn -0.0946 0.9520 0.2912
vn 0.0699 0.8731 0.4826
vn -0.0937 0.9933 -0.0681
vn 0.2477 0.9520 0.1799
vn 0.4806 0.8730 0.0827
vn 0.8857 0.3356 -0.3209
vn 0.7938 0.1928 -0.5768
vn 0.5789 0.3356 -0.7432
vn -0.0315 0.3356 -0.9415
vn -0.3032 0.1928 -0.9332
vn -0.5279 0.3356 -0.7802
vn -0.9051 0.3356 -0.2610
vn -0.9812 0.1928 -0.0000
vn -0.9051 0.3356 0.2610
vn -0.5279 0.3356 0.7802
vn -0.3032 0.1928 0.9332
vn -0.0315 0.3356 0.9415
vn 0.5789 0.3356 0.7432
vn 0.7938 0.1928 0.5768
vn 0.8857 0.3356 0.3209
vn 0.3065 0.1263 -0.9434
vn 0.3034 -0.1896 -0.9338
vn 0.0274 -0.3324 -0.9427
vn -0.8025 0.1263 -0.5831
vn -0.7943 -0.1896 -0.5771
vn -0.8881 -0.3324 -0.3173
vn -0.8025 0.1263 0.5831
vn -0.7943 -0.1896 0.5771
vn -0.5763 -0.3324 0.7466
vn 0.3065 0.1263 0.9434
vn 0.3034 -0.1896 0.9338
vn 0.5320 -0.3324 0.7788
vn 0.9920 0.1263 -0.0000
vn 0.9819 -0.1896 -0.0000
vn 0.9051 -0.3324 -0.2653
vn 0.4339 -0.7405 -0.5131
vn 0.1572 -0.8610 -0.4838
vn -0.0494 -0.7405 -0.6702
vn -0.3539 -0.7405 -0.5713
vn -0.4115 -0.8610 -0.2990
vn -0.6527 -0.7405 -0.1601
vn -0.6527 -0.7405 0.1601
vn -0.4115 -0.8610 0.2990
vn -0.3539 -0.7405 0.5713
vn 0.6221 -0.7405 -0.2541
vn 0.5087 -0.8610 -0.0000
vn 0.1657 -0.9862 -0.0000
vn -0.0494 -0.7405 0.6702
vn 0.1572 -0.8610 0.4838
vn 0.4339 -0.7405 0.5131
vt 0.347339 0.126779
vt 0.347778 0.125350
vt 0.348810 0.126779
vt 0.348000 0.124349
vt 0.346492 0.124468
vt 0.347778 0.128208
vt 0.346109 0.127662
vt 0.346109 0.125896
vt 0.344908 0.130191
vt 0.344321 0.129209
vt 0.346014 0.129279
vt 0.344908 0.133161
vt 0.344812 0.131738
vt 0.346317 0.132586
vt 0.341103 0.133023
vt 0.340965 0.131521
vt 0.342478 0.132404
vt 0.349388 0.131768
vt 0.349193 0.130283
vt 0.350555 0.130862
vt 0.351941 0.126991
vt 0.351871 0.128421
vt 0.350627 0.127729
vt 0.346317 0.130841
vt 0.341103 0.130019
vt 0.342282 0.129209
vt 0.342478 0.130638
vt 0.342282 0.133833
vt 0.350669 0.132611
vt 0.350828 0.125975
vt 0.344338 0.128496
vt 0.342927 0.129154
vt 0.343458 0.127737
vt 0.344686 0.125527
vt 0.344823 0.127021
vt 0.343662 0.125991
vt 0.342023 0.124349
vt 0.343462 0.124584
vt 0.342097 0.125299
vt 0.340031 0.126591
vt 0.340726 0.125209
vt 0.340926 0.126617
vt 0.341461 0.129154
vt 0.340395 0.128034
vt 0.341767 0.128123
vt 0.342413 0.126771
vt 0.349249 0.126682
vt 0.349536 0.125203
vt 0.349193 0.128187
vt 0.352097 0.131639
vt 0.352072 0.133085
vt 0.351878 0.130111
vt 0.350646 0.129309
vt 0.352244 0.129125
vt 0.343771 0.132950
vt 0.343696 0.131521
vt 0.343771 0.130093
vt 0.347485 0.131634
vt 0.347493 0.132952
vt 0.347493 0.130127
vt 0.350794 0.124532
vt 0.349193 0.124349
vt 0.350266 0.129125
vt 0.349378 0.133112
vt 0.349543 0.129125
vt 0.352197 0.125582
vt 0.344823 0.126779
vt 0.345160 0.125277
vt 0.345160 0.128281
vt 0.346492 0.129091
vt 0.348000 0.129209
vt 0.340031 0.132404
vt 0.349193 0.128208
vt 0.340031 0.130638
vt 0.343771 0.132467
vt 0.349193 0.125350
vt 0.343771 0.130721
s 0
usemtl LowPoly_v
f 1/1/1 14/2/1 13/3/1
f 2/4/2 14/2/2 16/5/2
f 1/1/3 13/3/3 18/6/3
f 1/1/4 18/6/4 20/7/4
f 1/1/5 20/7/5 17/8/5
f 2/9/6 16/10/6 23/11/6
f 3/12/7 15/13/7 25/14/7
f 4/15/8 19/16/8 27/17/8
f 5/18/9 21/19/9 29/20/9
f 6/21/10 22/22/10 31/23/10
f 2/9/11 23/11/11 26/24/11
f 3/25/12 25/26/12 28/27/12
f 4/15/13 27/17/13 30/28/13
f 5/18/14 29/20/14 32/29/14
f 6/21/15 31/23/15 24/30/15
f 7/31/16 33/32/16 38/33/16
f 8/34/17 34/35/17 40/36/17
f 9/37/18 35/38/18 41/39/18
f 10/40/19 36/41/19 42/42/19
f 11/43/20 37/44/20 39/45/20
f 39/45/21 42/42/21 12/46/21
f 39/45/22 37/44/22 42/42/22
f 37/44/23 10/40/23 42/42/23
f 42/42/24 41/39/24 12/46/24
f 42/42/25 36/41/25 41/39/25
f 36/41/26 9/37/26 41/39/26
f 41/39/27 40/36/27 12/46/27
f 41/39/28 35/38/28 40/36/28
f 35/38/29 8/34/29 40/36/29
f 40/36/30 38/33/30 12/46/30
f 40/36/31 34/35/31 38/33/31
f 34/35/32 7/31/32 38/33/32
f 38/33/33 39/45/33 12/46/33
f 38/33/34 33/32/34 39/45/34
f 33/32/35 11/43/35 39/45/35
f 24/30/36 37/47/36 11/48/36
f 24/30/37 31/23/37 37/47/37
f 31/23/38 10/49/38 37/47/38
f 32/29/39 36/50/39 10/51/39
f 32/29/40 29/20/40 36/50/40
f 29/20/41 9/52/41 36/50/41
f 30/53/42 35/54/42 9/52/42
f 30/28/43 27/17/43 35/55/43
f 27/17/44 8/56/44 35/55/44
f 28/27/45 34/57/45 8/56/45
f 28/27/46 25/26/46 34/57/46
f 25/14/47 7/58/47 34/59/47
f 26/24/48 33/60/48 7/58/48
f 26/24/49 23/11/49 33/60/49
f 23/61/50 11/48/50 33/62/50
f 31/23/51 32/63/51 10/49/51
f 31/23/52 22/22/52 32/63/52
f 22/64/53 5/18/53 32/29/53
f 29/20/54 30/53/54 9/52/54
f 29/20/55 21/19/55 30/53/55
f 21/19/56 4/65/56 30/53/56
f 27/17/57 28/27/57 8/56/57
f 27/17/58 19/16/58 28/27/58
f 19/16/59 3/25/59 28/27/59
f 25/14/60 26/24/60 7/58/60
f 25/14/61 15/13/61 26/24/61
f 15/13/62 2/9/62 26/24/62
f 23/61/63 24/30/63 11/48/63
f 23/61/64 16/66/64 24/30/64
f 16/66/65 6/21/65 24/30/65
f 17/8/66 22/67/66 6/68/66
f 17/8/67 20/7/67 22/67/67
f 20/7/68 5/69/68 22/67/68
f 20/7/69 21/70/69 5/69/69
f 20/7/70 18/6/70 21/70/70
f 18/6/71 4/71/71 21/70/71
f 18/72/72 19/16/72 4/15/72
f 18/6/73 13/3/73 19/73/73
f 13/74/74 3/25/74 19/16/74
f 16/5/75 17/8/75 6/68/75
f 16/5/76 14/2/76 17/8/76
f 14/2/77 1/1/77 17/8/77
f 13/75/78 15/13/78 3/12/78
f 13/3/79 14/2/79 15/76/79
f 14/77/80 2/9/80 15/13/80
