# Blender 4.2.1 LTS
# www.blender.org
mtllib Plant.mtl
o Sphere
v -0.000000 0.000050 -0.056181
v 0.061208 0.126765 -0.084245
v 0.053825 0.072276 -0.074084
v 0.051473 0.028575 -0.070846
v 0.033023 0.000050 -0.045452
v 0.099036 0.126765 -0.032179
v 0.087091 0.072276 -0.028298
v 0.083284 0.028575 -0.027061
v 0.053432 0.000050 -0.017361
v 0.099036 0.126765 0.032179
v 0.087091 0.072276 0.028298
v 0.083284 0.028575 0.027061
v 0.053432 0.000050 0.017361
v 0.061208 0.126765 0.084245
v 0.053825 0.072276 0.074084
v 0.051473 0.028575 0.070846
v 0.033023 0.000050 0.045452
v -0.000000 0.126765 0.104133
v -0.000000 0.072276 0.091573
v -0.000000 0.028575 0.087571
v -0.000000 0.000050 0.056181
v -0.061208 0.126765 0.084245
v -0.053825 0.072276 0.074084
v -0.051473 0.028575 0.070846
v -0.033023 0.000050 0.045452
v -0.099037 0.126765 0.032179
v -0.087091 0.072276 0.028298
v -0.083285 0.028575 0.027061
v -0.053432 0.000050 0.017361
v -0.099037 0.126765 -0.032179
v -0.087091 0.072276 -0.028298
v -0.083285 0.028575 -0.027061
v -0.053432 0.000050 -0.017361
v -0.061208 0.126765 -0.084245
v -0.053825 0.072276 -0.074084
v -0.051473 0.028575 -0.070846
v -0.033023 0.000050 -0.045452
v -0.000000 0.126765 -0.104133
v -0.000000 0.072276 -0.091573
v -0.000000 0.028575 -0.087571
v 0.054410 0.126765 -0.074889
v 0.088038 0.126765 -0.028605
v 0.088038 0.126765 0.028605
v 0.054410 0.126765 0.074889
v -0.000000 0.126765 0.092568
v -0.054410 0.126765 0.074889
v -0.088038 0.126765 0.028605
v -0.088038 0.126765 -0.028605
v -0.054410 0.126765 -0.074889
v -0.000000 0.126765 -0.092568
v 0.046733 0.086401 -0.064323
v 0.075616 0.086401 -0.024569
v 0.075616 0.086401 0.024569
v 0.046733 0.086401 0.064323
v -0.000000 0.086401 0.079508
v -0.046733 0.086401 0.064323
v -0.075616 0.086401 0.024569
v -0.075616 0.086401 -0.024569
v -0.046733 0.086401 -0.064323
v -0.000000 0.086401 -0.079508
v 0.004056 0.087095 0.004474
v -0.005983 0.087095 0.000820
v -0.046135 0.156012 0.131494
v -0.049181 0.156012 0.130385
v 0.002319 0.183646 0.113153
v 0.028306 0.189210 0.056664
v 0.024956 0.156050 0.025879
v -0.035753 0.156050 0.003783
v -0.058107 0.189210 0.025213
v -0.074510 0.183646 0.085190
v -0.004854 0.087360 -0.002560
v 0.004854 0.087360 -0.002560
v -0.001473 0.149989 -0.126631
v 0.001473 0.149989 -0.126631
v -0.037150 0.175102 -0.095908
v -0.041784 0.180159 -0.039591
v -0.029356 0.150024 -0.014343
v 0.029356 0.150024 -0.014343
v 0.041784 0.180159 -0.039591
v 0.037150 0.175102 -0.095908
v -0.003037 0.087304 0.004711
v -0.002173 0.087304 -0.005167
v -0.120846 0.116601 -0.009062
v -0.120584 0.116601 -0.012060
v -0.104952 0.152447 0.028906
v -0.068380 0.161010 0.036857
v -0.037522 0.144507 0.026814
v -0.032296 0.144507 -0.032922
v -0.060941 0.161010 -0.048171
v -0.098338 0.152447 -0.046691
v 0.000357 0.086495 -0.007278
v 0.005805 0.086495 0.004405
v 0.141943 0.124582 -0.068347
v 0.143596 0.124582 -0.064802
v 0.099369 0.171181 -0.100762
v 0.053028 0.182313 -0.085942
v 0.024815 0.160860 -0.054577
v 0.057759 0.160860 0.016072
v 0.099921 0.182313 0.014620
v 0.141062 0.171181 -0.011353
v 0.005479 0.087304 -0.001184
v -0.002117 0.087304 0.005190
v 0.079043 0.116601 0.091859
v 0.076738 0.116601 0.093793
v 0.094652 0.152447 0.053773
v 0.074414 0.161010 0.022291
v 0.045492 0.144507 0.007572
v -0.000443 0.144507 0.046116
v 0.009030 0.161010 0.077154
v 0.036520 0.152447 0.102551
vn 0.3018 -0.2141 -0.9290
vn 0.3079 -0.0868 -0.9475
vn 0.2135 -0.7230 -0.6570
vn 0.8060 -0.0868 -0.5856
vn 0.5589 -0.7230 -0.4061
vn 0.7903 -0.2141 -0.5742
vn 0.6908 -0.7230 -0.0000
vn 0.9768 -0.2141 -0.0000
vn 0.9962 -0.0868 -0.0000
vn 0.7903 -0.2141 0.5742
vn 0.8060 -0.0868 0.5856
vn 0.5589 -0.7230 0.4061
vn -0.0000 -1.0000 -0.0000
vn 0.2135 -0.7230 0.6570
vn 0.3018 -0.2141 0.9290
vn 0.3079 -0.0868 0.9475
vn -0.3018 -0.2141 0.9290
vn -0.3079 -0.0868 0.9475
vn -0.2135 -0.7230 0.6570
vn -0.8060 -0.0868 0.5856
vn -0.5589 -0.7230 0.4061
vn -0.7903 -0.2141 0.5742
vn -0.6908 -0.7230 -0.0000
vn -0.9768 -0.2141 -0.0000
vn -0.9962 -0.0868 -0.0000
vn -0.7903 -0.2141 -0.5742
vn -0.8060 -0.0868 -0.5856
vn -0.5589 -0.7230 -0.4061
vn -0.2135 -0.7230 -0.6570
vn -0.3018 -0.2141 -0.9290
vn -0.3079 -0.0868 -0.9475
vn -0.0000 1.0000 -0.0000
vn 0.9558 0.2941 -0.0000
vn -0.2953 0.2941 -0.9090
vn -0.7732 0.2941 0.5618
vn 0.7732 0.2941 0.5618
vn 0.2953 0.2941 -0.9090
vn -0.9558 0.2941 -0.0000
vn 0.2953 0.2941 0.9090
vn 0.7732 0.2941 -0.5618
vn -0.7732 0.2941 -0.5618
vn -0.2953 0.2941 0.9090
vn -0.2165 0.7743 0.5947
vn 0.3361 0.1848 -0.9235
vn 0.2622 0.6422 -0.7203
vn -0.0306 0.9960 0.0840
vn -0.0000 0.7743 -0.6329
vn -0.0000 0.1848 0.9828
vn -0.0000 0.6422 0.7665
vn -0.0000 0.9960 -0.0894
vn -0.8787 0.4711 -0.0769
vn 0.8666 0.4932 0.0758
vn 0.4818 0.8753 0.0422
vn -0.2239 0.9744 -0.0196
vn 0.7995 0.4711 -0.3728
vn -0.7884 0.4932 0.3677
vn -0.4383 0.8753 0.2044
vn 0.2037 0.9744 -0.0950
vn 0.5670 0.4711 0.6757
vn -0.5592 0.4932 -0.6664
vn -0.3109 0.8753 -0.3705
vn 0.1445 0.9744 0.1722
vt 0.075902 0.217289
vt 0.081861 0.217289
vt 0.081861 0.218046
vt 0.075902 0.218046
vt 0.069942 0.217289
vt 0.069942 0.218046
vt 0.063983 0.217289
vt 0.063983 0.218046
vt 0.075902 0.218803
vt 0.069942 0.218803
vt 0.063983 0.218803
vt 0.081861 0.218803
vt 0.069942 0.219559
vt 0.063983 0.219559
vt 0.081861 0.219559
vt 0.075902 0.219559
vt 0.081861 0.220316
vt 0.075902 0.220316
vt 0.069942 0.220316
vt 0.063983 0.220316
vt 0.063983 0.216533
vt 0.069942 0.221072
vt 0.063983 0.221072
vt 0.081861 0.221072
vt 0.075902 0.221072
vt 0.081861 0.221829
vt 0.075902 0.221829
vt 0.069942 0.221829
vt 0.063983 0.221829
vt 0.075902 0.222586
vt 0.069942 0.222586
vt 0.063983 0.222586
vt 0.063983 0.215776
vt 0.081861 0.222586
vt 0.063983 0.215020
vt 0.069942 0.215020
vt 0.069942 0.215776
vt 0.075902 0.215020
vt 0.081861 0.215020
vt 0.081861 0.215776
vt 0.075902 0.215776
vt 0.081861 0.216533
vt 0.075902 0.216533
vt 0.069942 0.216533
vt 0.003731 0.252073
vt 0.003731 0.254343
vt 0.003731 0.253586
vt 0.003731 0.252829
vt 0.003731 0.255099
vt 0.003731 0.251316
vt 0.003731 0.255856
vt 0.003731 0.258882
vt 0.003731 0.258126
vt 0.003731 0.257369
vt 0.003731 0.256612
vt 0.386145 0.375082
vt 0.386145 0.367981
vt 0.415938 0.367981
vt 0.415938 0.375082
vt 0.336768 0.375082
vt 0.336768 0.367981
vt 0.366059 0.367981
vt 0.366059 0.375082
vt 0.376353 0.367981
vt 0.376353 0.375082
s 0
usemtl LowPoly
f 39/1/1 38/2/1 2/3/1 3/4/1
f 40/5/2 39/1/2 3/4/2 4/6/2
f 1/7/3 40/5/3 4/6/3 5/8/3
f 4/6/4 3/4/4 7/9/4 8/10/4
f 5/8/5 4/6/5 8/10/5 9/11/5
f 3/4/6 2/3/6 6/12/6 7/9/6
f 9/11/7 8/10/7 12/13/7 13/14/7
f 7/9/8 6/12/8 10/15/8 11/16/8
f 8/10/9 7/9/9 11/16/9 12/13/9
f 11/16/10 10/15/10 14/17/10 15/18/10
f 12/13/11 11/16/11 15/18/11 16/19/11
f 13/14/12 12/13/12 16/19/12 17/20/12
f 1/7/13 5/8/13 9/11/13 37/21/13
f 17/20/14 16/19/14 20/22/14 21/23/14
f 15/18/15 14/17/15 18/24/15 19/25/15
f 16/19/16 15/18/16 19/25/16 20/22/16
f 19/25/17 18/24/17 22/26/17 23/27/17
f 20/22/18 19/25/18 23/27/18 24/28/18
f 21/23/19 20/22/19 24/28/19 25/29/19
f 24/28/20 23/27/20 27/30/20 28/31/20
f 25/29/21 24/28/21 28/31/21 29/32/21
f 13/14/13 33/33/13 37/21/13 9/11/13
f 23/27/22 22/26/22 26/34/22 27/30/22
f 29/35/23 28/36/23 32/37/23 33/33/23
f 17/20/13 29/32/13 33/33/13 13/14/13
f 27/38/24 26/39/24 30/40/24 31/41/24
f 28/36/25 27/38/25 31/41/25 32/37/25
f 31/41/26 30/40/26 34/42/26 35/43/26
f 32/37/27 31/41/27 35/43/27 36/44/27
f 33/33/28 32/37/28 36/44/28 37/21/28
f 21/23/13 25/29/13 29/32/13 17/20/13
f 37/21/29 36/44/29 40/5/29 1/7/29
f 35/43/30 34/42/30 38/2/30 39/1/30
f 36/44/31 35/43/31 39/1/31 40/5/31
f 26/34/32 22/26/32 46/26/32 47/34/32
f 14/17/32 10/15/32 43/15/32 44/17/32
f 38/2/32 34/42/32 49/42/32 50/2/32
f 2/3/32 38/2/32 50/2/32 41/3/32
f 10/15/32 6/12/32 42/12/32 43/15/32
f 34/42/32 30/40/32 48/40/32 49/42/32
f 18/24/32 14/17/32 44/17/32 45/24/32
f 22/26/32 18/24/32 45/24/32 46/26/32
f 6/12/32 2/3/32 41/3/32 42/12/32
f 30/40/32 26/39/32 47/39/32 48/40/32
f 48/40/33 47/39/33 57/39/33 58/40/33
f 45/24/34 44/17/34 54/17/34 55/24/34
f 42/12/35 41/3/35 51/3/35 52/12/35
f 49/42/36 48/40/36 58/40/36 59/42/36
f 46/26/37 45/24/37 55/24/37 56/26/37
f 43/15/38 42/12/38 52/12/38 53/15/38
f 50/2/39 49/42/39 59/42/39 60/2/39
f 47/34/40 46/26/40 56/26/40 57/34/40
f 44/17/41 43/15/41 53/15/41 54/17/41
f 41/3/42 50/2/42 60/2/42 51/3/42
f 58/45/32 51/46/32 60/47/32 59/48/32
f 52/49/32 51/46/32 58/45/32 57/50/32
f 53/51/32 52/49/32 57/52/32 56/53/32
f 53/51/32 56/53/32 55/54/32 54/55/32
f 65/56/43 70/57/43 64/58/43 63/59/43
f 61/60/44 62/61/44 68/62/44 67/63/44
f 67/63/45 68/62/45 69/64/45 66/65/45
f 66/65/46 69/64/46 70/57/46 65/56/46
f 75/56/47 80/57/47 74/58/47 73/59/47
f 71/60/48 72/61/48 78/62/48 77/63/48
f 77/63/49 78/62/49 79/64/49 76/65/49
f 76/65/50 79/64/50 80/57/50 75/56/50
f 85/56/51 90/57/51 84/58/51 83/59/51
f 81/60/52 82/61/52 88/62/52 87/63/52
f 87/63/53 88/62/53 89/64/53 86/65/53
f 86/65/54 89/64/54 90/57/54 85/56/54
f 95/56/55 100/57/55 94/58/55 93/59/55
f 91/60/56 92/61/56 98/62/56 97/63/56
f 97/63/57 98/62/57 99/64/57 96/65/57
f 96/65/58 99/64/58 100/57/58 95/56/58
f 105/56/59 110/57/59 104/58/59 103/59/59
f 101/60/60 102/61/60 108/62/60 107/63/60
f 107/63/61 108/62/61 109/64/61 106/65/61
f 106/65/62 109/64/62 110/57/62 105/56/62
