# Blender 4.2.1 LTS
# www.blender.org
mtllib Pot Lid.mtl
o Circle.002
v 0.000000 0.000000 -0.156856
v -0.092198 0.000000 -0.126899
v -0.149179 0.000000 -0.048471
v -0.149179 0.000000 0.048471
v -0.092198 0.000000 0.126899
v 0.000000 0.000000 0.156856
v 0.092198 0.000000 0.126899
v 0.149179 0.000000 0.048471
v 0.149179 0.000000 -0.048471
v 0.092198 0.000000 -0.126899
v -0.087310 0.020000 -0.120172
v 0.000000 0.020000 -0.148541
v -0.141271 0.020000 -0.045902
v -0.141271 0.020000 0.045902
v -0.087310 0.020000 0.120172
v 0.000000 0.020000 0.148541
v 0.087310 0.020000 0.120172
v 0.141271 0.020000 0.045902
v 0.141271 0.020000 -0.045902
v 0.087310 0.020000 -0.120172
v -0.043655 0.050000 -0.060086
v 0.000000 0.050000 -0.074271
v -0.070636 0.050000 -0.022951
v -0.070636 0.050000 0.022951
v -0.043655 0.050000 0.060086
v 0.000000 0.050000 0.074271
v 0.043655 0.050000 0.060086
v 0.070636 0.050000 0.022951
v 0.070636 0.050000 -0.022951
v 0.043655 0.050000 -0.060086
v -0.008731 0.050000 -0.012017
v 0.000000 0.050000 -0.014854
v -0.014127 0.050000 -0.004590
v -0.014127 0.050000 0.004590
v -0.008731 0.050000 0.012017
v 0.000000 0.050000 0.014854
v 0.008731 0.050000 0.012017
v 0.014127 0.050000 0.004590
v 0.014127 0.050000 -0.004590
v 0.008731 0.050000 -0.012017
v -0.008731 0.064514 -0.012017
v 0.000000 0.064514 -0.014854
v -0.014127 0.064514 -0.004590
v -0.014127 0.064514 0.004590
v -0.008731 0.064514 0.012017
v 0.000000 0.064514 0.014854
v 0.008731 0.064514 0.012017
v 0.014127 0.064514 0.004590
v 0.014127 0.064514 -0.004590
v 0.008731 0.064514 -0.012017
vn -0.0000 -1.0000 -0.0000
vn -0.1208 0.9204 0.3718
vn 0.3909 0.9204 -0.0000
vn -0.1208 0.9204 -0.3718
vn -0.3163 0.9204 0.2298
vn 0.2874 0.3677 -0.8844
vn 0.7523 0.3677 0.5466
vn -0.7523 0.3677 0.5466
vn -0.2874 0.3677 -0.8844
vn 0.9299 0.3677 -0.0000
vn -0.2874 0.3677 0.8844
vn -0.7523 0.3677 -0.5466
vn 0.7523 0.3677 -0.5466
vn 0.2874 0.3677 0.8844
vn -0.9299 0.3677 -0.0000
vn -0.0000 1.0000 -0.0000
vn -0.3163 0.9204 -0.2298
vn 0.3163 0.9204 -0.2298
vn 0.1208 0.9204 0.3718
vn -0.3909 0.9204 -0.0000
vn 0.1208 0.9204 -0.3718
vn 0.3163 0.9204 0.2298
vn -0.3090 -0.0000 0.9511
vn -0.8090 -0.0000 -0.5878
vn 0.8090 -0.0000 -0.5878
vn 0.3090 -0.0000 0.9511
vn -1.0000 -0.0000 -0.0000
vn 0.3090 -0.0000 -0.9511
vn 0.8090 -0.0000 0.5878
vn -0.8090 -0.0000 0.5878
vn -0.3090 -0.0000 -0.9511
vn 1.0000 -0.0000 -0.0000
vt 0.094056 0.308997
vt 0.094056 0.309349
vt 0.094597 0.308604
vt 0.094263 0.308713
vt 0.094263 0.309633
vt 0.094932 0.308713
vt 0.094597 0.309742
vt 0.095138 0.308997
vt 0.095138 0.309349
vt 0.094932 0.309633
vt 0.097342 0.307788
vt 0.097086 0.307871
vt 0.097086 0.308037
vt 0.097342 0.308120
vt 0.096514 0.307518
vt 0.096672 0.307736
vt 0.096830 0.307685
vt 0.096830 0.307415
vt 0.096514 0.308390
vt 0.096672 0.308172
vt 0.096574 0.308037
vt 0.096318 0.308120
vt 0.096989 0.308172
vt 0.097147 0.308390
vt 0.095033 0.310351
vt 0.094960 0.310345
vt 0.094952 0.310634
vt 0.095025 0.310656
vt 0.095106 0.309742
vt 0.095033 0.309768
vt 0.095040 0.310014
vt 0.095114 0.310002
vt 0.095026 0.310656
vt 0.094952 0.310675
vt 0.094959 0.310987
vt 0.095033 0.310986
vt 0.095033 0.310002
vt 0.094960 0.310014
vt 0.095114 0.310986
vt 0.095040 0.310987
vt 0.095033 0.311307
vt 0.095107 0.311324
vt 0.095114 0.310351
vt 0.095040 0.310345
vt 0.095033 0.310634
vt 0.095106 0.310656
vt 0.095025 0.309742
vt 0.094952 0.309768
vt 0.095107 0.310656
vt 0.095033 0.310675
vt 0.094952 0.311307
vt 0.095026 0.311324
vt 0.096830 0.308223
vt 0.096989 0.307736
vt 0.096574 0.307871
vt 0.096830 0.308493
vt 0.096318 0.307788
vt 0.097147 0.307518
vt 0.018855 0.311261
vt 0.018823 0.311271
vt 0.018906 0.311298
vt 0.018886 0.311271
vt 0.018803 0.311298
vt 0.018906 0.311331
vt 0.018803 0.311331
vt 0.018886 0.311358
vt 0.018855 0.311369
vt 0.018823 0.311358
vt 0.018989 0.311358
vt 0.019008 0.311331
vt 0.019008 0.311298
vt 0.018957 0.311369
vt 0.018989 0.311271
vt 0.018925 0.311358
vt 0.018957 0.311261
vt 0.018925 0.311271
vt 0.019364 0.311319
vt 0.019312 0.311319
vt 0.019311 0.311347
vt 0.019364 0.311348
vt 0.019310 0.311261
vt 0.019258 0.311261
vt 0.019258 0.311285
vt 0.019311 0.311286
vt 0.019418 0.311324
vt 0.019471 0.311324
vt 0.019470 0.311293
vt 0.019418 0.311293
vt 0.019364 0.311286
vt 0.019312 0.311285
vt 0.019364 0.311293
vt 0.019417 0.311293
vt 0.019417 0.311261
vt 0.019365 0.311261
vt 0.019311 0.311319
vt 0.019258 0.311319
vt 0.019258 0.311347
vt 0.019310 0.311348
vt 0.019364 0.311261
vt 0.019311 0.311261
vt 0.019365 0.311324
vt 0.019418 0.311324
vt 0.019471 0.311261
vt 0.019418 0.311261
s 0
usemtl LowPoly
f 4/1/1 3/2/1 6/3/1 5/4/1
f 3/2/1 2/5/1 7/6/1 6/3/1
f 2/5/1 1/7/1 8/8/1 7/6/1
f 9/9/1 8/8/1 1/7/1 10/10/1
f 16/11/2 26/12/2 25/13/2 15/14/2
f 19/15/3 29/16/3 28/17/3 18/18/3
f 11/19/4 21/20/4 22/21/4 12/22/4
f 15/14/5 25/13/5 24/23/5 14/24/5
f 1/25/6 12/26/6 20/27/6 10/28/6
f 8/29/7 18/30/7 17/31/7 7/32/7
f 5/33/8 15/34/8 14/35/8 4/36/8
f 2/37/9 11/38/9 12/26/9 1/25/9
f 9/39/10 19/40/10 18/41/10 8/42/10
f 6/43/11 16/44/11 15/45/11 5/46/11
f 3/47/12 13/48/12 11/38/12 2/37/12
f 10/49/13 20/50/13 19/40/13 9/39/13
f 7/32/14 17/31/14 16/44/14 6/43/14
f 4/36/15 14/35/15 13/51/15 3/52/15
f 24/23/16 25/13/16 26/12/16 23/53/16
f 23/53/16 26/12/16 27/54/16 21/20/16
f 21/20/16 27/54/16 28/17/16 22/21/16
f 29/16/16 30/55/16 22/21/16 28/17/16
f 13/56/17 23/53/17 21/20/17 11/19/17
f 20/57/18 30/55/18 29/16/18 19/15/18
f 17/58/19 27/54/19 26/12/19 16/11/19
f 14/24/20 24/23/20 23/53/20 13/56/20
f 12/22/21 22/21/21 30/55/21 20/57/21
f 18/18/22 28/17/22 27/54/22 17/58/22
f 34/59/1 33/60/1 36/61/1 35/62/1
f 33/60/1 31/63/1 37/64/1 36/61/1
f 31/63/1 32/65/1 38/66/1 37/64/1
f 39/67/1 38/66/1 32/65/1 40/68/1
f 44/69/16 45/70/16 46/71/16 43/72/16
f 43/72/16 46/71/16 47/73/16 41/74/16
f 41/74/16 47/73/16 48/75/16 42/64/16
f 49/76/16 50/61/16 42/64/16 48/75/16
f 36/77/23 46/78/23 45/79/23 35/80/23
f 33/81/24 43/82/24 41/83/24 31/84/24
f 40/85/25 50/86/25 49/87/25 39/88/25
f 37/89/26 47/90/26 46/78/26 36/77/26
f 34/91/27 44/92/27 43/93/27 33/94/27
f 32/95/28 42/96/28 50/97/28 40/98/28
f 38/99/29 48/100/29 47/90/29 37/89/29
f 35/101/30 45/102/30 44/92/30 34/91/30
f 31/84/31 41/83/31 42/96/31 32/95/31
f 39/88/32 49/87/32 48/103/32 38/104/32
