# Blender 4.2.1 LTS
# www.blender.org
mtllib Pot.mtl
o Circle.001
v 0.000000 0.009322 -0.152896
v -0.089870 0.009322 -0.123695
v -0.145413 0.009322 -0.047248
v -0.145900 0.008891 0.047406
v -0.090171 0.008891 0.124110
v 0.000000 0.009322 0.152896
v 0.089870 0.009322 0.123695
v 0.145413 0.009322 0.047248
v 0.145900 0.008891 -0.047406
v 0.090171 0.008891 -0.124110
v 0.000000 0.270000 -0.153633
v -0.090303 0.270000 -0.124292
v -0.146114 0.270000 -0.047475
v -0.146114 0.270000 0.047475
v -0.090303 0.270000 0.124292
v 0.000000 0.270000 0.153633
v 0.090303 0.270000 0.124292
v 0.146114 0.270000 0.047475
v 0.146114 0.270000 -0.047475
v 0.090303 0.270000 -0.124292
v 0.000000 0.000000 -0.163978
v -0.096384 0.000000 -0.132661
v -0.155953 0.000000 -0.050672
v -0.155953 0.000000 0.050672
v -0.096384 0.000000 0.132661
v 0.000000 0.000000 0.163978
v 0.096384 0.000000 0.132661
v 0.155953 0.000000 0.050672
v 0.155953 0.000000 -0.050672
v 0.096384 0.000000 -0.132661
v 0.000000 0.270000 -0.163978
v -0.096384 0.270000 -0.132661
v -0.155953 0.270000 -0.050672
v -0.155953 0.270000 0.050672
v -0.096384 0.270000 0.132661
v 0.000000 0.270000 0.163978
v 0.096384 0.270000 0.132661
v 0.155953 0.270000 0.050672
v 0.155953 0.270000 -0.050672
v 0.096384 0.270000 -0.132661
v 0.145413 0.175830 0.047248
v 0.089870 0.175830 0.123695
v 0.000000 0.175830 0.152896
v -0.090171 0.175399 0.124110
v -0.145900 0.175399 0.047406
v -0.145413 0.175830 -0.047248
v -0.089870 0.175830 -0.123695
v 0.000000 0.175830 -0.152896
v 0.145900 0.175399 -0.047406
v 0.090171 0.175399 -0.124110
v 0.172644 0.220000 0.039372
v 0.190946 0.220000 0.021070
v 0.185586 0.220000 0.034011
v 0.190946 0.220000 -0.021070
v 0.172644 0.220000 -0.039372
v 0.185586 0.220000 -0.034011
v 0.171664 0.220000 0.034445
v 0.181815 0.220000 0.030240
v 0.186019 0.220000 0.020090
v 0.186019 0.220000 -0.020090
v 0.181815 0.220000 -0.030240
v 0.171664 0.220000 -0.034445
v 0.153033 0.220000 0.039372
v 0.153033 0.220000 -0.039372
v 0.153033 0.220000 0.034445
v 0.153033 0.220000 -0.034445
v 0.171664 0.237078 0.034445
v 0.181815 0.237078 0.030240
v 0.186019 0.237078 0.020090
v 0.186019 0.237078 -0.020090
v 0.181815 0.237078 -0.030240
v 0.171664 0.237078 -0.034445
v 0.172644 0.237078 0.039372
v 0.185586 0.237078 0.034011
v 0.190946 0.237078 0.021070
v 0.190946 0.237078 -0.021070
v 0.185586 0.237078 -0.034011
v 0.172644 0.237078 -0.039372
v 0.153033 0.237078 0.039372
v 0.153033 0.237078 0.034445
v 0.153033 0.237078 -0.034445
v 0.153033 0.237078 -0.039372
v -0.172644 0.220000 0.039372
v -0.190946 0.220000 0.021070
v -0.185585 0.220000 0.034011
v -0.190946 0.220000 -0.021070
v -0.172644 0.220000 -0.039372
v -0.185585 0.220000 -0.034011
v -0.171664 0.220000 0.034445
v -0.181815 0.220000 0.030240
v -0.186019 0.220000 0.020090
v -0.186019 0.220000 -0.020090
v -0.181815 0.220000 -0.030240
v -0.171664 0.220000 -0.034445
v -0.153033 0.220000 0.039372
v -0.153033 0.220000 -0.039372
v -0.153033 0.220000 0.034445
v -0.153033 0.220000 -0.034445
v -0.171664 0.237078 0.034445
v -0.181815 0.237078 0.030240
v -0.186019 0.237078 0.020090
v -0.186019 0.237078 -0.020090
v -0.181815 0.237078 -0.030240
v -0.171664 0.237078 -0.034445
v -0.172644 0.237078 0.039372
v -0.185585 0.237078 0.034011
v -0.190946 0.237078 0.021070
v -0.190946 0.237078 -0.021070
v -0.185585 0.237078 -0.034011
v -0.172644 0.237078 -0.039372
v -0.153033 0.237078 0.039372
v -0.153033 0.237078 0.034445
v -0.153033 0.237078 -0.034445
v -0.153033 0.237078 -0.039372
v 0.071788 0.174930 -0.081036
v 0.059980 0.174930 -0.072457
v 0.064490 0.174930 -0.058577
v 0.079086 0.174930 -0.058577
v 0.083596 0.174930 -0.072457
v 0.071788 0.178611 -0.081036
v 0.059980 0.178611 -0.072457
v 0.064490 0.178611 -0.058577
v 0.079086 0.178611 -0.058577
v 0.083596 0.178611 -0.072457
v 0.032708 0.174930 0.014111
v 0.020900 0.174930 0.022690
v 0.025411 0.174930 0.036571
v 0.040006 0.174930 0.036571
v 0.044516 0.174930 0.022690
v 0.032708 0.178611 0.014111
v 0.020900 0.178611 0.022690
v 0.025411 0.178611 0.036571
v 0.040006 0.178611 0.036571
v 0.044516 0.178611 0.022690
v -0.072488 0.174930 -0.099101
v -0.084296 0.174930 -0.090522
v -0.079786 0.174930 -0.076641
v -0.065190 0.174930 -0.076641
v -0.060680 0.174930 -0.090522
v -0.072488 0.178611 -0.099101
v -0.084296 0.178611 -0.090522
v -0.079786 0.178611 -0.076641
v -0.065190 0.178611 -0.076641
v -0.060680 0.178611 -0.090522
v 0.000367 0.174930 0.088040
v 0.011082 0.174930 0.097950
v 0.023818 0.174930 0.090822
v 0.020974 0.174930 0.076506
v 0.006481 0.174930 0.074787
v 0.000367 0.178611 0.088040
v 0.011082 0.178611 0.097950
v 0.023818 0.178611 0.090822
v 0.020974 0.178611 0.076506
v 0.006481 0.178611 0.074787
v -0.083160 0.174930 0.092565
v -0.072445 0.174930 0.102475
v -0.059709 0.174930 0.095346
v -0.062552 0.174930 0.081031
v -0.077046 0.174930 0.079312
v -0.083160 0.178611 0.092565
v -0.072445 0.178611 0.102475
v -0.059709 0.178611 0.095346
v -0.062552 0.178611 0.081031
v -0.077046 0.178611 0.079312
v -0.093552 0.174930 -0.052466
v -0.082837 0.174930 -0.042556
v -0.070101 0.174930 -0.049684
v -0.072945 0.174930 -0.064000
v -0.087439 0.174930 -0.065719
v -0.093552 0.178611 -0.052466
v -0.082837 0.178611 -0.042556
v -0.070101 0.178611 -0.049684
v -0.072945 0.178611 -0.064000
v -0.087439 0.178611 -0.065719
v 0.009201 0.174082 -0.099092
v 0.009201 0.182163 -0.099092
v 0.008176 0.174082 -0.107108
v 0.008176 0.182163 -0.107108
v 0.037164 0.174082 -0.102668
v 0.037164 0.182163 -0.102668
v 0.036139 0.174082 -0.110684
v 0.036139 0.182163 -0.110684
v -0.006328 0.171015 0.013227
v -0.006328 0.179096 0.013227
v -0.012375 0.171015 0.007866
v -0.012375 0.179096 0.007866
v 0.012375 0.171015 -0.007866
v 0.012375 0.179096 -0.007866
v 0.006328 0.171015 -0.013227
v 0.006328 0.179096 -0.013227
v -0.080498 0.172855 0.028223
v -0.080498 0.180936 0.028223
v -0.076943 0.172855 0.020965
v -0.076943 0.180936 0.020965
v -0.055180 0.172855 0.040621
v -0.055180 0.180936 0.040621
v -0.051626 0.172855 0.033363
v -0.051626 0.180936 0.033363
v 0.057606 0.174082 -0.003799
v 0.057606 0.182163 -0.003799
v 0.061770 0.174082 -0.010726
v 0.061770 0.182163 -0.010726
v 0.081766 0.174082 0.010726
v 0.081766 0.182163 0.010726
v 0.085930 0.174082 0.003799
v 0.085930 0.182163 0.003799
v -0.030420 0.171015 -0.046105
v -0.030420 0.179096 -0.046105
v -0.038488 0.171015 -0.046565
v -0.038488 0.179096 -0.046565
v -0.028815 0.171015 -0.074250
v -0.028815 0.179096 -0.074250
v -0.036884 0.171015 -0.074710
v -0.036884 0.179096 -0.074710
v -0.108672 0.172855 -0.004434
v -0.108672 0.180936 -0.004434
v -0.110381 0.172855 -0.012333
v -0.110381 0.180936 -0.012333
v -0.081119 0.172855 -0.010396
v -0.081119 0.180936 -0.010396
v -0.082828 0.172855 -0.018295
v -0.082828 0.180936 -0.018295
v 0.039378 0.171015 0.104189
v 0.039378 0.179096 0.104189
v 0.032939 0.171015 0.099305
v 0.032939 0.179096 0.099305
v 0.056413 0.171015 0.081728
v 0.056413 0.179096 0.081728
v 0.049973 0.171015 0.076844
v 0.049973 0.179096 0.076844
v -0.048812 0.172855 0.095109
v -0.048812 0.180936 0.095109
v -0.045823 0.172855 0.087600
v -0.045823 0.180936 0.087600
v -0.022620 0.172855 0.105534
v -0.022620 0.180936 0.105534
v -0.019631 0.172855 0.098026
v -0.019631 0.180936 0.098026
v 0.012858 0.171649 -0.019106
v 0.012837 0.179671 -0.018124
v 0.014888 0.170704 -0.011341
v 0.014867 0.178726 -0.010359
v 0.005128 0.171385 -0.017118
v 0.005107 0.179407 -0.016136
v 0.007158 0.170440 -0.009353
v 0.007137 0.178462 -0.008371
v 0.074177 0.172725 0.030440
v 0.074155 0.180746 0.031422
v 0.067179 0.172215 0.034451
v 0.067158 0.180237 0.035433
v 0.070182 0.173554 0.023575
v 0.070160 0.181576 0.024557
v 0.063184 0.173045 0.027586
v 0.063163 0.181067 0.028568
v -0.019014 0.173894 -0.075340
v -0.019035 0.181916 -0.074358
v -0.026333 0.173459 -0.071940
v -0.026354 0.181481 -0.070958
v -0.022400 0.174764 -0.082519
v -0.022422 0.182786 -0.081538
v -0.029719 0.174329 -0.079120
v -0.029741 0.182350 -0.078138
v -0.027710 0.171725 0.038663
v -0.027732 0.179747 0.039645
v -0.021269 0.171149 0.043510
v -0.021290 0.179171 0.044492
v -0.032534 0.170940 0.044979
v -0.032555 0.178961 0.045961
v -0.026092 0.170363 0.049826
v -0.026114 0.178385 0.050808
v 0.051096 0.173175 0.073006
v 0.051075 0.181197 0.073987
v 0.048110 0.172255 0.080459
v 0.048089 0.180277 0.081441
v 0.043676 0.173514 0.070074
v 0.043654 0.181536 0.071056
v 0.040690 0.172594 0.077528
v 0.040668 0.180616 0.078510
v -0.087544 0.174347 0.014299
v -0.087566 0.182369 0.015281
v -0.091164 0.173460 0.021470
v -0.091185 0.181482 0.022452
v -0.094684 0.174763 0.010746
v -0.094706 0.182785 0.011728
v -0.098304 0.173876 0.017918
v -0.098325 0.181898 0.018899
v 0.070535 0.171673 -0.101880
v 0.070513 0.179694 -0.100899
v 0.073156 0.170751 -0.094292
v 0.073135 0.178773 -0.093310
v 0.062981 0.171338 -0.099311
v 0.062959 0.179360 -0.098329
v 0.065602 0.170416 -0.091722
v 0.065581 0.178438 -0.090741
v 0.116759 0.172776 -0.029435
v 0.116738 0.180798 -0.028453
v 0.110091 0.172204 -0.024905
v 0.110070 0.180226 -0.023923
v 0.112247 0.173565 -0.035977
v 0.112226 0.181587 -0.034995
v 0.105579 0.172993 -0.031447
v 0.105558 0.181015 -0.030465
v -0.019668 0.158426 -0.001621
v -0.018985 0.166263 0.000233
v -0.021333 0.156743 0.006106
v -0.020650 0.164579 0.007960
v -0.027453 0.159449 -0.003076
v -0.026771 0.167285 -0.001221
v -0.029118 0.157765 0.004651
v -0.028435 0.165602 0.006506
v 0.013837 0.146015 0.068659
v 0.014520 0.153851 0.070513
v 0.005799 0.146563 0.069301
v 0.006482 0.154400 0.071156
v 0.013345 0.147891 0.060912
v 0.014028 0.155728 0.062767
v 0.005308 0.148440 0.061555
v 0.005991 0.156276 0.063409
v -0.023572 0.169172 -0.065280
v -0.022889 0.177009 -0.063425
v -0.031623 0.169882 -0.065312
v -0.030940 0.177718 -0.063457
v -0.023380 0.170995 -0.073052
v -0.022697 0.178831 -0.071198
v -0.031431 0.171704 -0.073085
v -0.030748 0.179541 -0.071230
v -0.080695 0.162840 0.033583
v -0.080012 0.170676 0.035438
v -0.077118 0.160877 0.040559
v -0.076435 0.168713 0.042414
v -0.087824 0.162611 0.037174
v -0.087141 0.170447 0.039029
v -0.084247 0.160648 0.044150
v -0.083564 0.168485 0.046005
v -0.123195 0.177347 -0.012934
v -0.122512 0.185183 -0.011079
v -0.129634 0.176760 -0.008084
v -0.128951 0.184596 -0.006229
v -0.127975 0.179212 -0.019053
v -0.127292 0.187048 -0.017199
v -0.134413 0.178625 -0.014204
v -0.133730 0.186461 -0.012349
v 0.067389 0.152315 -0.052236
v 0.068072 0.160151 -0.050382
v 0.066332 0.150557 -0.044419
v 0.067015 0.158393 -0.042565
v 0.059501 0.153207 -0.053103
v 0.060183 0.161043 -0.051248
v 0.058443 0.151449 -0.045286
v 0.059126 0.159286 -0.043431
v 0.077584 0.141474 0.032409
v 0.078267 0.149310 0.034264
v 0.069608 0.141876 0.033649
v 0.070291 0.149712 0.035504
v 0.076486 0.143386 0.024733
v 0.077169 0.151223 0.026588
v 0.068511 0.143788 0.025974
v 0.069194 0.151624 0.027828
vn 0.3090 0.0027 0.9511
vn -1.0000 0.0018 -0.0026
vn 0.3066 0.0018 -0.9518
vn 0.8090 0.0027 0.5878
vn -0.8090 0.0008 0.5878
vn -0.3090 0.0027 -0.9511
vn 1.0000 0.0018 0.0026
vn -0.3066 0.0018 0.9518
vn -0.8090 0.0027 -0.5878
vn 0.8090 0.0008 -0.5878
vn -0.0062 1.0000 0.0045
vn -0.0000 1.0000 -0.0000
vn 0.0062 1.0000 -0.0045
vn -0.3090 -0.0000 -0.9511
vn 1.0000 -0.0000 -0.0000
vn -0.3090 -0.0000 0.9511
vn -0.8090 -0.0000 -0.5878
vn 0.8090 -0.0000 -0.5878
vn 0.3090 -0.0000 0.9511
vn -1.0000 -0.0000 -0.0000
vn 0.3090 -0.0000 -0.9511
vn 0.8090 -0.0000 0.5878
vn -0.8090 -0.0000 0.5878
vn -0.0000 -1.0000 -0.0000
vn -0.3827 -0.0000 0.9239
vn -0.0000 -0.0000 -1.0000
vn -0.0000 -0.0000 1.0000
vn 0.3827 -0.0000 0.9239
vn 0.9239 -0.0000 0.3827
vn 0.9239 -0.0000 -0.3827
vn -0.3827 -0.0000 -0.9239
vn 0.3827 -0.0000 -0.9239
vn -0.9239 -0.0000 -0.3827
vn -0.9239 -0.0000 0.3827
vn 0.9511 -0.0000 0.3090
vn -0.9511 -0.0000 0.3090
vn 0.5878 -0.0000 -0.8090
vn -0.5878 -0.0000 -0.8090
vn 0.1178 -0.0000 -0.9930
vn 0.4884 -0.0000 0.8726
vn -0.9080 -0.0000 -0.4189
vn 0.9808 -0.0000 -0.1948
vn -0.6790 -0.0000 0.7342
vn -0.6790 -0.0000 0.7341
vn -0.9919 -0.0000 0.1268
vn -0.1268 -0.0000 -0.9919
vn 0.9919 -0.0000 -0.1268
vn 0.1268 -0.0000 0.9919
vn -0.6634 -0.0000 0.7482
vn -0.7482 -0.0000 -0.6634
vn 0.6634 -0.0000 -0.7482
vn 0.7482 -0.0000 0.6634
vn -0.8981 -0.0000 -0.4398
vn 0.4398 -0.0000 -0.8981
vn 0.8981 -0.0000 0.4398
vn -0.4398 -0.0000 0.8981
vn -0.8570 -0.0000 -0.5152
vn 0.5152 -0.0000 -0.8570
vn 0.8570 -0.0000 0.5152
vn -0.5152 -0.0000 0.8570
vn -0.0569 -0.0000 0.9984
vn -0.9984 -0.0000 -0.0569
vn 0.0569 -0.0000 -0.9984
vn 0.9984 -0.0000 0.0569
vn -0.9774 -0.0000 0.2115
vn -0.2115 -0.0000 -0.9774
vn 0.9774 -0.0000 -0.2115
vn 0.2115 -0.0000 0.9774
vn -0.6043 -0.0000 0.7968
vn -0.7968 -0.0000 -0.6043
vn 0.6043 -0.0000 -0.7968
vn 0.7968 -0.0000 0.6043
vn -0.9291 -0.0000 -0.3698
vn 0.3698 -0.0000 -0.9291
vn 0.9291 -0.0000 0.3698
vn -0.3698 -0.0000 0.9291
vn 0.9680 0.0330 -0.2490
vn 0.2511 -0.1169 0.9609
vn -0.9680 -0.0330 0.2490
vn -0.2511 0.1169 -0.9609
vn 0.0026 -0.9926 -0.1215
vn -0.0026 0.9926 0.1215
vn 0.5002 -0.1039 0.8596
vn -0.8659 -0.0630 0.4963
vn -0.5002 0.1039 -0.8596
vn 0.8659 0.0630 -0.4963
vn 0.4241 -0.1089 0.8990
vn -0.9056 -0.0539 0.4207
vn -0.4241 0.1089 -0.8990
vn 0.9056 0.0539 -0.4207
vn 0.6040 0.0984 -0.7909
vn 0.7970 -0.0713 0.5998
vn -0.6040 -0.0984 0.7909
vn -0.7970 0.0713 -0.5998
vn 0.9292 -0.0425 0.3670
vn -0.3695 -0.1139 0.9222
vn -0.9292 0.0425 -0.3670
vn 0.3695 0.1139 -0.9222
vn 0.8941 -0.0521 0.4448
vn -0.4479 -0.1098 0.8873
vn -0.8941 0.0521 -0.4448
vn 0.4479 0.1098 -0.8873
vn 0.9459 0.0419 -0.3217
vn 0.3244 -0.1141 0.9390
vn -0.9459 -0.0419 0.3217
vn -0.3244 0.1141 -0.9390
vn 0.5650 -0.0988 0.8192
vn -0.8251 -0.0708 0.5605
vn -0.5650 0.0988 -0.8192
vn 0.8251 0.0708 -0.5605
vn 0.9749 -0.1281 0.1821
vn -0.2060 -0.2083 0.9561
vn -0.9749 0.1281 -0.1821
vn 0.2060 0.2083 -0.9561
vn -0.0845 -0.9696 -0.2295
vn 0.0845 0.9696 0.2295
vn 0.0615 -0.2349 0.9701
vn -0.9945 0.0679 0.0795
vn -0.0615 0.2349 -0.9701
vn 0.9945 -0.0678 -0.0795
vn -0.0240 -0.2283 0.9733
vn -0.9961 0.0878 -0.0040
vn 0.0240 0.2283 -0.9733
vn 0.9961 -0.0878 0.0040
vn 0.8927 0.0286 -0.4497
vn 0.4426 -0.2429 0.8632
vn -0.8927 -0.0286 0.4497
vn -0.4426 0.2429 -0.8632
vn 0.5985 -0.2335 0.7663
vn -0.7966 -0.0726 0.6001
vn -0.5985 0.2335 -0.7663
vn 0.7966 0.0726 -0.6001
vn 0.9878 -0.1118 0.1085
vn -0.1308 -0.2175 0.9672
vn -0.9878 0.1118 -0.1085
vn 0.1308 0.2175 -0.9672
vn 0.1374 -0.2394 0.9611
vn -0.9869 0.0497 0.1535
vn -0.1374 0.2394 -0.9611
vn 0.9869 -0.0497 -0.1535
vt 0.097690 0.310666
vt 0.097349 0.310667
vt 0.097349 0.309723
vt 0.097692 0.309722
vt 0.094386 0.311648
vt 0.094056 0.311640
vt 0.094056 0.310697
vt 0.094388 0.310703
vt 0.094356 0.310696
vt 0.094056 0.310691
vt 0.094056 0.309745
vt 0.094356 0.309751
vt 0.097943 0.310657
vt 0.097946 0.309713
vt 0.094709 0.311641
vt 0.094711 0.310696
vt 0.094696 0.310695
vt 0.094698 0.309750
vt 0.097380 0.311619
vt 0.097050 0.311611
vt 0.097050 0.310668
vt 0.097382 0.310674
vt 0.097050 0.310662
vt 0.097050 0.309716
vt 0.094949 0.310686
vt 0.094952 0.309742
vt 0.097703 0.311612
vt 0.097705 0.310667
vt 0.095342 0.309610
vt 0.095138 0.309333
vt 0.095138 0.308990
vt 0.095669 0.309713
vt 0.095338 0.308712
vt 0.095994 0.309606
vt 0.095663 0.308604
vt 0.096194 0.309327
vt 0.095991 0.308707
vt 0.096194 0.308984
vt 0.095410 0.310693
vt 0.095410 0.309715
vt 0.095775 0.309713
vt 0.095775 0.310691
vt 0.097595 0.309581
vt 0.097595 0.308604
vt 0.097949 0.308611
vt 0.097949 0.309588
vt 0.096731 0.310691
vt 0.096731 0.309713
vt 0.097050 0.309720
vt 0.097050 0.310698
vt 0.095138 0.310702
vt 0.095138 0.309724
vt 0.097250 0.309590
vt 0.097250 0.308613
vt 0.096366 0.310693
vt 0.096366 0.309715
vt 0.097687 0.308392
vt 0.097687 0.307415
vt 0.098041 0.307422
vt 0.098041 0.308399
vt 0.096094 0.309720
vt 0.096094 0.310698
vt 0.096094 0.310702
vt 0.096094 0.309724
vt 0.097342 0.308401
vt 0.097342 0.307424
vt 0.094971 0.308491
vt 0.094622 0.308604
vt 0.095187 0.307826
vt 0.095187 0.308194
vt 0.094272 0.308491
vt 0.094971 0.307529
vt 0.094056 0.308194
vt 0.094622 0.307415
vt 0.094272 0.307529
vt 0.094056 0.307826
vt 0.095425 0.308461
vt 0.095753 0.308567
vt 0.095753 0.308604
vt 0.095403 0.308491
vt 0.095223 0.308182
vt 0.095223 0.307838
vt 0.095425 0.307559
vt 0.095403 0.307529
vt 0.095753 0.307453
vt 0.095753 0.307415
vt 0.096080 0.307559
vt 0.096102 0.307529
vt 0.096282 0.307838
vt 0.096318 0.307826
vt 0.096282 0.308182
vt 0.096318 0.308194
vt 0.096080 0.308461
vt 0.096102 0.308491
vt 0.438094 0.190240
vt 0.437437 0.189347
vt 0.437763 0.189239
vt 0.438294 0.189962
vt 0.437768 0.190348
vt 0.437237 0.189625
vt 0.437441 0.190245
vt 0.437237 0.189968
vt 0.438090 0.189342
vt 0.438294 0.189619
vt 0.015726 0.310406
vt 0.015762 0.310421
vt 0.015776 0.310408
vt 0.015729 0.310388
vt 0.015778 0.310458
vt 0.015796 0.310455
vt 0.015778 0.310604
vt 0.015762 0.310641
vt 0.015776 0.310654
vt 0.015796 0.310607
vt 0.015726 0.310656
vt 0.015729 0.310674
vt 0.015658 0.310656
vt 0.015658 0.310674
vt 0.015658 0.310388
vt 0.015658 0.310406
vt 0.016155 0.310412
vt 0.016152 0.310394
vt 0.016105 0.310414
vt 0.016119 0.310428
vt 0.016086 0.310461
vt 0.016103 0.310464
vt 0.016103 0.310610
vt 0.016086 0.310614
vt 0.016105 0.310660
vt 0.016119 0.310647
vt 0.016152 0.310680
vt 0.016155 0.310662
vt 0.016223 0.310680
vt 0.016223 0.310662
vt 0.016223 0.310412
vt 0.016223 0.310394
vt 0.017657 0.308285
vt 0.017719 0.308284
vt 0.017720 0.308251
vt 0.017658 0.308252
vt 0.018290 0.308205
vt 0.018352 0.308205
vt 0.018352 0.308135
vt 0.018290 0.308136
vt 0.016625 0.310575
vt 0.016687 0.310574
vt 0.016687 0.310434
vt 0.016625 0.310435
vt 0.017720 0.308185
vt 0.017658 0.308185
vt 0.018198 0.309402
vt 0.018260 0.309401
vt 0.018260 0.309352
vt 0.018198 0.309352
vt 0.017470 0.308290
vt 0.017532 0.308290
vt 0.017533 0.308224
vt 0.017471 0.308224
vt 0.016498 0.310436
vt 0.016560 0.310434
vt 0.016561 0.310394
vt 0.016499 0.310396
vt 0.018260 0.309282
vt 0.018198 0.309282
vt 0.016499 0.310633
vt 0.016561 0.310632
vt 0.016560 0.310582
vt 0.016498 0.310583
vt 0.017532 0.308185
vt 0.017470 0.308185
vt 0.018352 0.308093
vt 0.018290 0.308094
vt 0.016624 0.310607
vt 0.016686 0.310606
vt 0.016686 0.310394
vt 0.016624 0.310396
vt 0.016293 0.310412
vt 0.016289 0.310394
vt 0.016242 0.310414
vt 0.016256 0.310428
vt 0.016223 0.310461
vt 0.016241 0.310464
vt 0.016241 0.310610
vt 0.016223 0.310614
vt 0.016242 0.310660
vt 0.016256 0.310647
vt 0.016289 0.310680
vt 0.016293 0.310662
vt 0.016360 0.310680
vt 0.016360 0.310662
vt 0.016360 0.310412
vt 0.016360 0.310394
vt 0.016428 0.310412
vt 0.016465 0.310428
vt 0.016478 0.310414
vt 0.016432 0.310394
vt 0.016480 0.310464
vt 0.016498 0.310461
vt 0.016480 0.310610
vt 0.016465 0.310647
vt 0.016478 0.310660
vt 0.016498 0.310614
vt 0.016428 0.310662
vt 0.016432 0.310680
vt 0.017533 0.308185
vt 0.017533 0.308224
vt 0.017595 0.308224
vt 0.017594 0.308185
vt 0.018261 0.309282
vt 0.018260 0.309352
vt 0.018322 0.309352
vt 0.018322 0.309282
vt 0.016562 0.310435
vt 0.016562 0.310575
vt 0.016624 0.310574
vt 0.016624 0.310434
vt 0.017533 0.308290
vt 0.017594 0.308290
vt 0.018323 0.309283
vt 0.018322 0.309325
vt 0.018384 0.309324
vt 0.018385 0.309282
vt 0.017595 0.308185
vt 0.017595 0.308252
vt 0.017657 0.308251
vt 0.017657 0.308185
vt 0.015796 0.310576
vt 0.015797 0.310627
vt 0.015859 0.310626
vt 0.015857 0.310575
vt 0.018323 0.309394
vt 0.018385 0.309394
vt 0.015797 0.310389
vt 0.015796 0.310429
vt 0.015857 0.310428
vt 0.015859 0.310388
vt 0.017595 0.308285
vt 0.017657 0.308284
vt 0.018261 0.309402
vt 0.018322 0.309401
vt 0.016561 0.310396
vt 0.016623 0.310394
vt 0.016561 0.310607
vt 0.016623 0.310606
vt 0.321534 0.128196
vt 0.404774 0.154216
vt 0.406590 0.154216
vt 0.406590 0.156032
vt 0.404774 0.156032
vt 0.406590 0.157849
vt 0.404774 0.157849
vt 0.406590 0.159665
vt 0.404774 0.159665
vt 0.406590 0.161481
vt 0.404774 0.161481
vt 0.402958 0.157849
vt 0.402958 0.159665
vt 0.408406 0.157849
vt 0.408406 0.159665
vt 0.397617 0.368043
vt 0.399221 0.368043
vt 0.399221 0.369647
vt 0.397617 0.369647
vt 0.399221 0.371251
vt 0.397617 0.371251
vt 0.399221 0.372855
vt 0.397617 0.372855
vt 0.399221 0.374459
vt 0.397617 0.374459
vt 0.396013 0.371251
vt 0.396013 0.372855
vt 0.400825 0.371251
vt 0.400825 0.372855
vt 0.375000 0.000000
vt 0.625000 0.000000
vt 0.625000 0.250000
vt 0.375000 0.250000
vt 0.625000 0.500000
vt 0.375000 0.500000
vt 0.625000 0.750000
vt 0.375000 0.750000
vt 0.625000 1.000000
vt 0.375000 1.000000
vt 0.125000 0.500000
vt 0.125000 0.750000
vt 0.875000 0.500000
vt 0.875000 0.750000
s 0
usemtl LowPoly
f 2/1/1 1/2/1 11/3/1 12/4/1
f 9/5/2 8/6/2 18/7/2 19/8/2
f 6/9/3 5/10/3 15/11/3 16/12/3
f 3/13/4 2/1/4 12/4/4 13/14/4
f 10/15/5 9/5/5 19/8/5 20/16/5
f 7/17/6 6/9/6 16/12/6 17/18/6
f 4/19/7 3/20/7 13/21/7 14/22/7
f 1/2/8 10/23/8 20/24/8 11/3/8
f 8/25/9 7/17/9 17/18/9 18/26/9
f 5/27/10 4/19/10 14/22/10 15/28/10
f 4/29/11 5/30/11 6/31/11 3/32/11
f 3/32/12 6/31/12 7/33/12 2/34/12
f 2/34/12 7/33/12 8/35/12 1/36/12
f 9/37/13 10/38/13 1/36/13 8/35/13
f 22/39/14 32/40/14 31/41/14 21/42/14
f 29/43/15 39/44/15 38/45/15 28/46/15
f 26/47/16 36/48/16 35/49/16 25/50/16
f 23/51/17 33/52/17 32/40/17 22/39/17
f 30/53/18 40/54/18 39/44/18 29/43/18
f 27/55/19 37/56/19 36/48/19 26/47/19
f 24/57/20 34/58/20 33/59/20 23/60/20
f 21/42/21 31/41/21 40/61/21 30/62/21
f 28/63/22 38/64/22 37/56/22 27/55/22
f 25/65/23 35/66/23 34/58/23 24/57/23
f 24/67/24 23/68/24 26/69/24 25/70/24
f 23/68/24 22/71/24 27/72/24 26/69/24
f 22/71/24 21/73/24 28/74/24 27/72/24
f 29/75/24 28/74/24 21/73/24 30/76/24
f 12/77/12 11/78/12 31/79/12 32/80/12
f 13/81/12 12/77/12 32/80/12 33/70/12
f 14/82/12 13/81/12 33/70/12 34/69/12
f 15/83/12 14/82/12 34/69/12 35/84/12
f 16/85/12 15/83/12 35/84/12 36/86/12
f 17/87/12 16/85/12 36/86/12 37/88/12
f 18/89/12 17/87/12 37/88/12 38/90/12
f 19/91/12 18/89/12 38/90/12 39/92/12
f 20/93/12 19/91/12 39/92/12 40/94/12
f 11/78/12 20/93/12 40/94/12 31/79/12
f 47/95/12 42/96/12 41/97/12 48/98/12
f 46/99/12 43/100/12 42/96/12 47/95/12
f 45/101/11 44/102/11 43/100/11 46/99/11
f 49/103/13 50/104/13 48/98/13 41/97/13
f 57/105/24 58/106/24 53/107/24 51/108/24
f 58/106/24 59/109/24 52/110/24 53/107/24
f 60/111/24 61/112/24 56/113/24 54/114/24
f 61/112/24 62/115/24 55/116/24 56/113/24
f 59/109/24 60/111/24 54/114/24 52/110/24
f 55/116/24 62/115/24 66/117/24 64/118/24
f 57/105/24 51/108/24 63/119/24 65/120/24
f 67/121/12 73/122/12 74/123/12 68/124/12
f 68/124/12 74/123/12 75/125/12 69/126/12
f 70/127/12 76/128/12 77/129/12 71/130/12
f 71/130/12 77/129/12 78/131/12 72/132/12
f 69/126/12 75/125/12 76/128/12 70/127/12
f 78/131/12 82/133/12 81/134/12 72/132/12
f 67/121/12 80/135/12 79/136/12 73/122/12
f 61/137/25 71/138/25 72/139/25 62/140/25
f 64/141/26 82/142/26 78/143/26 55/144/26
f 59/145/20 69/146/20 70/147/20 60/148/20
f 62/140/27 72/139/27 81/149/27 66/150/27
f 53/151/28 74/152/28 73/153/28 51/154/28
f 65/155/26 80/156/26 67/157/26 57/158/26
f 52/159/29 75/160/29 74/161/29 53/162/29
f 51/154/27 73/153/27 79/163/27 63/164/27
f 56/165/30 77/166/30 76/167/30 54/168/30
f 57/158/31 67/157/31 68/169/31 58/170/31
f 55/144/32 78/143/32 77/171/32 56/172/32
f 58/173/33 68/174/33 69/146/33 59/145/33
f 54/168/15 76/167/15 75/160/15 52/159/15
f 60/148/34 70/147/34 71/175/34 61/176/34
f 89/177/24 83/178/24 85/179/24 90/180/24
f 90/180/24 85/179/24 84/181/24 91/182/24
f 92/183/24 86/184/24 88/185/24 93/186/24
f 93/186/24 88/185/24 87/187/24 94/188/24
f 91/182/24 84/181/24 86/184/24 92/183/24
f 87/187/24 96/189/24 98/190/24 94/188/24
f 89/177/24 97/191/24 95/192/24 83/178/24
f 99/193/12 100/194/12 106/195/12 105/196/12
f 100/194/12 101/197/12 107/198/12 106/195/12
f 102/199/12 103/200/12 109/201/12 108/202/12
f 103/200/12 104/203/12 110/204/12 109/201/12
f 101/197/12 102/199/12 108/202/12 107/198/12
f 110/204/12 104/203/12 113/190/12 114/189/12
f 99/193/12 105/196/12 111/192/12 112/191/12
f 93/205/28 94/206/28 104/207/28 103/208/28
f 96/209/26 87/210/26 110/211/26 114/212/26
f 91/213/15 92/214/15 102/215/15 101/216/15
f 94/206/27 98/217/27 113/218/27 104/207/27
f 85/219/25 83/220/25 105/221/25 106/222/25
f 97/223/26 89/224/26 99/225/26 112/226/26
f 84/227/34 85/228/34 106/229/34 107/230/34
f 83/220/27 95/231/27 111/232/27 105/221/27
f 88/233/33 86/234/33 108/235/33 109/236/33
f 89/224/32 90/237/32 100/238/32 99/225/32
f 87/210/31 88/239/31 109/240/31 110/211/31
f 90/241/30 91/213/30 101/216/30 100/242/30
f 86/234/20 84/227/20 107/230/20 108/235/20
f 92/214/29 93/243/29 103/244/29 102/215/29
f 119/245/35 124/245/35 123/245/35 118/245/35
f 117/245/36 122/245/36 121/245/36 116/245/36
f 115/245/37 120/245/37 124/245/37 119/245/37
f 118/245/27 123/245/27 122/245/27 117/245/27
f 116/245/38 121/245/38 120/245/38 115/245/38
f 120/245/12 121/245/12 122/245/12 124/245/12
f 123/245/12 124/245/12 122/245/12
f 129/245/35 134/245/35 133/245/35 128/245/35
f 127/245/36 132/245/36 131/245/36 126/245/36
f 125/245/37 130/245/37 134/245/37 129/245/37
f 128/245/27 133/245/27 132/245/27 127/245/27
f 126/245/38 131/245/38 130/245/38 125/245/38
f 130/245/12 131/245/12 132/245/12 134/245/12
f 133/245/12 134/245/12 132/245/12
f 139/245/35 144/245/35 143/245/35 138/245/35
f 137/245/36 142/245/36 141/245/36 136/245/36
f 135/245/37 140/245/37 144/245/37 139/245/37
f 138/245/27 143/245/27 142/245/27 137/245/27
f 136/245/38 141/245/38 140/245/38 135/245/38
f 140/245/12 141/245/12 142/245/12 144/245/12
f 143/245/12 144/245/12 142/245/12
f 149/245/39 154/245/39 153/245/39 148/245/39
f 147/245/40 152/245/40 151/245/40 146/245/40
f 145/245/41 150/245/41 154/245/41 149/245/41
f 148/245/42 153/245/42 152/245/42 147/245/42
f 146/245/43 151/245/43 150/245/43 145/245/43
f 150/245/12 151/245/12 152/245/12 154/245/12
f 153/245/12 154/245/12 152/245/12
f 159/245/39 164/245/39 163/245/39 158/245/39
f 157/245/40 162/245/40 161/245/40 156/245/40
f 155/245/41 160/245/41 164/245/41 159/245/41
f 158/245/42 163/245/42 162/245/42 157/245/42
f 156/245/44 161/245/44 160/245/44 155/245/44
f 160/245/12 161/245/12 162/245/12 164/245/12
f 163/245/12 164/245/12 162/245/12
f 169/245/39 174/245/39 173/245/39 168/245/39
f 167/245/40 172/245/40 171/245/40 166/245/40
f 165/245/41 170/245/41 174/245/41 169/245/41
f 168/245/42 173/245/42 172/245/42 167/245/42
f 166/245/43 171/245/43 170/245/43 165/245/43
f 170/245/12 171/245/12 172/245/12 174/245/12
f 173/245/12 174/245/12 172/245/12
f 175/246/45 176/247/45 178/248/45 177/249/45
f 177/249/46 178/248/46 182/250/46 181/251/46
f 181/251/47 182/250/47 180/252/47 179/253/47
f 179/253/48 180/252/48 176/254/48 175/255/48
f 177/256/24 181/251/24 179/253/24 175/257/24
f 182/250/12 178/258/12 176/259/12 180/252/12
f 183/246/49 184/247/49 186/248/49 185/249/49
f 185/249/50 186/248/50 190/250/50 189/251/50
f 189/251/51 190/250/51 188/252/51 187/253/51
f 187/253/52 188/252/52 184/254/52 183/255/52
f 185/256/24 189/251/24 187/253/24 183/257/24
f 190/250/12 186/258/12 184/259/12 188/252/12
f 191/246/53 192/247/53 194/248/53 193/249/53
f 193/249/54 194/248/54 198/250/54 197/251/54
f 197/251/55 198/250/55 196/252/55 195/253/55
f 195/253/56 196/252/56 192/254/56 191/255/56
f 193/256/24 197/251/24 195/253/24 191/257/24
f 198/250/12 194/258/12 192/259/12 196/252/12
f 199/246/57 200/247/57 202/248/57 201/249/57
f 201/249/58 202/248/58 206/250/58 205/251/58
f 205/251/59 206/250/59 204/252/59 203/253/59
f 203/253/60 204/252/60 200/254/60 199/255/60
f 201/256/24 205/251/24 203/253/24 199/257/24
f 206/250/12 202/258/12 200/259/12 204/252/12
f 207/246/61 208/247/61 210/248/61 209/249/61
f 209/249/62 210/248/62 214/250/62 213/251/62
f 213/251/63 214/250/63 212/252/63 211/253/63
f 211/253/64 212/252/64 208/254/64 207/255/64
f 209/256/24 213/251/24 211/253/24 207/257/24
f 214/250/12 210/258/12 208/259/12 212/252/12
f 215/246/65 216/247/65 218/248/65 217/249/65
f 217/249/66 218/248/66 222/250/66 221/251/66
f 221/251/67 222/250/67 220/252/67 219/253/67
f 219/253/68 220/252/68 216/254/68 215/255/68
f 217/256/24 221/251/24 219/253/24 215/257/24
f 222/250/12 218/258/12 216/259/12 220/252/12
f 223/246/69 224/247/69 226/248/69 225/249/69
f 225/249/70 226/248/70 230/250/70 229/251/70
f 229/251/71 230/250/71 228/252/71 227/253/71
f 227/253/72 228/252/72 224/254/72 223/255/72
f 225/256/24 229/251/24 227/253/24 223/257/24
f 230/250/12 226/258/12 224/259/12 228/252/12
f 231/246/73 232/247/73 234/248/73 233/249/73
f 233/249/74 234/248/74 238/250/74 237/251/74
f 237/251/75 238/250/75 236/252/75 235/253/75
f 235/253/76 236/252/76 232/254/76 231/255/76
f 233/256/24 237/251/24 235/253/24 231/257/24
f 238/250/12 234/258/12 232/259/12 236/252/12
f 239/260/77 240/261/77 242/262/77 241/263/77
f 241/263/78 242/262/78 246/264/78 245/265/78
f 245/265/79 246/264/79 244/266/79 243/267/79
f 243/267/80 244/266/80 240/268/80 239/269/80
f 241/270/81 245/265/81 243/267/81 239/271/81
f 246/264/82 242/272/82 240/273/82 244/266/82
f 247/260/83 248/261/83 250/262/83 249/263/83
f 249/263/84 250/262/84 254/264/84 253/265/84
f 253/265/85 254/264/85 252/266/85 251/267/85
f 251/267/86 252/266/86 248/268/86 247/269/86
f 249/270/81 253/265/81 251/267/81 247/271/81
f 254/264/82 250/272/82 248/273/82 252/266/82
f 255/260/87 256/261/87 258/262/87 257/263/87
f 257/263/88 258/262/88 262/264/88 261/265/88
f 261/265/89 262/264/89 260/266/89 259/267/89
f 259/267/90 260/266/90 256/268/90 255/269/90
f 257/270/81 261/265/81 259/267/81 255/271/81
f 262/264/82 258/272/82 256/273/82 260/266/82
f 263/260/91 264/261/91 266/262/91 265/263/91
f 265/263/92 266/262/92 270/264/92 269/265/92
f 269/265/93 270/264/93 268/266/93 267/267/93
f 267/267/94 268/266/94 264/268/94 263/269/94
f 265/270/81 269/265/81 267/267/81 263/271/81
f 270/264/82 266/272/82 264/273/82 268/266/82
f 271/260/95 272/261/95 274/262/95 273/263/95
f 273/263/96 274/262/96 278/264/96 277/265/96
f 277/265/97 278/264/97 276/266/97 275/267/97
f 275/267/98 276/266/98 272/268/98 271/269/98
f 273/270/81 277/265/81 275/267/81 271/271/81
f 278/264/82 274/272/82 272/273/82 276/266/82
f 279/260/99 280/261/99 282/262/99 281/263/99
f 281/263/100 282/262/100 286/264/100 285/265/100
f 285/265/101 286/264/101 284/266/101 283/267/101
f 283/267/102 284/266/102 280/268/102 279/269/102
f 281/270/81 285/265/81 283/267/81 279/271/81
f 286/264/82 282/272/82 280/273/82 284/266/82
f 287/260/103 288/261/103 290/262/103 289/263/103
f 289/263/104 290/262/104 294/264/104 293/265/104
f 293/265/105 294/264/105 292/266/105 291/267/105
f 291/267/106 292/266/106 288/268/106 287/269/106
f 289/270/81 293/265/81 291/267/81 287/271/81
f 294/264/82 290/272/82 288/273/82 292/266/82
f 295/260/107 296/261/107 298/262/107 297/263/107
f 297/263/108 298/262/108 302/264/108 301/265/108
f 301/265/109 302/264/109 300/266/109 299/267/109
f 299/267/110 300/266/110 296/268/110 295/269/110
f 297/270/81 301/265/81 299/267/81 295/271/81
f 302/264/82 298/272/82 296/273/82 300/266/82
f 303/260/111 304/261/111 306/262/111 305/263/111
f 305/263/112 306/262/112 310/264/112 309/265/112
f 309/265/113 310/264/113 308/266/113 307/267/113
f 307/267/114 308/266/114 304/268/114 303/269/114
f 305/270/115 309/265/115 307/267/115 303/271/115
f 310/264/116 306/272/116 304/273/116 308/266/116
f 311/274/117 312/275/117 314/276/117 313/277/117
f 313/277/118 314/276/118 318/278/118 317/279/118
f 317/279/119 318/278/119 316/280/119 315/281/119
f 315/281/120 316/280/120 312/282/120 311/283/120
f 313/284/115 317/279/115 315/281/115 311/285/115
f 318/278/116 314/286/116 312/287/116 316/280/116
f 319/260/121 320/261/121 322/262/121 321/263/121
f 321/263/122 322/262/122 326/264/122 325/265/122
f 325/265/123 326/264/123 324/266/123 323/267/123
f 323/267/124 324/266/124 320/268/124 319/269/124
f 321/270/115 325/265/115 323/267/115 319/271/115
f 326/264/116 322/272/116 320/273/116 324/266/116
f 327/260/125 328/261/125 330/262/125 329/263/125
f 329/263/126 330/262/126 334/264/126 333/265/126
f 333/265/127 334/264/127 332/266/127 331/267/127
f 331/267/128 332/266/128 328/268/128 327/269/128
f 329/270/115 333/265/115 331/267/115 327/271/115
f 334/264/116 330/272/116 328/273/116 332/266/116
f 335/260/129 336/261/129 338/262/129 337/263/129
f 337/263/130 338/262/130 342/264/130 341/265/130
f 341/265/131 342/264/131 340/266/131 339/267/131
f 339/267/132 340/266/132 336/268/132 335/269/132
f 337/270/115 341/265/115 339/267/115 335/271/115
f 342/264/116 338/272/116 336/273/116 340/266/116
f 343/260/133 344/261/133 346/262/133 345/263/133
f 345/263/134 346/262/134 350/264/134 349/265/134
f 349/265/135 350/264/135 348/266/135 347/267/135
f 347/267/136 348/266/136 344/268/136 343/269/136
f 345/270/115 349/265/115 347/267/115 343/271/115
f 350/264/116 346/272/116 344/273/116 348/266/116
f 351/260/137 352/261/137 354/262/137 353/263/137
f 353/263/138 354/262/138 358/264/138 357/265/138
f 357/265/139 358/264/139 356/266/139 355/267/139
f 355/267/140 356/266/140 352/268/140 351/269/140
f 353/270/115 357/265/115 355/267/115 351/271/115
f 358/264/116 354/272/116 352/273/116 356/266/116
