# Blender 4.2.1 LTS
# www.blender.org
mtllib Range Hoods.mtl
o Cube.014
v -0.300000 0.030000 -0.300000
v 0.300000 0.030000 -0.300000
v 0.300000 0.030000 0.300000
v -0.300000 0.030000 0.300000
v -0.300000 0.060000 -0.300000
v -0.300000 0.060000 0.300000
v 0.300000 0.060000 -0.300000
v 0.300000 0.060000 0.300000
v -0.150000 0.300000 -0.300000
v -0.150000 0.300000 -0.000000
v 0.150000 0.300000 -0.300000
v 0.150000 0.300000 -0.000000
v -0.150000 1.110000 -0.300000
v -0.150000 1.110000 -0.000000
v 0.150000 1.110000 -0.300000
v 0.150000 1.110000 -0.000000
v -0.280197 0.030000 -0.280197
v -0.280197 0.030000 0.280197
v 0.280197 0.030000 -0.280197
v 0.280197 0.030000 0.280197
v -0.280197 0.060000 -0.280197
v -0.280197 0.060000 0.280197
v 0.280197 0.060000 -0.280197
v 0.280197 0.060000 0.280197
v -0.140099 0.270000 -0.290099
v -0.140099 0.270000 -0.009901
v 0.140099 0.270000 -0.290099
v 0.140099 0.270000 -0.009901
vn -0.0000 -1.0000 -0.0000
vn 0.8480 0.5300 -0.0000
vn 1.0000 -0.0000 -0.0000
vn -1.0000 -0.0000 -0.0000
vn -0.0000 -0.0000 1.0000
vn -0.0000 -0.0000 -1.0000
vn -0.8480 0.5300 -0.0000
vn -0.0000 0.7809 0.6247
vn -0.0000 -0.8100 -0.5864
vn -0.0000 0.0471 0.9989
vn -0.8319 -0.5550 -0.0000
vn 0.8319 -0.5550 -0.0000
vt 0.607341 0.989108
vt 0.607341 0.983661
vt 0.601894 0.989108
vt 0.601894 0.983661
s 0
usemtl LowPoly
f 3/1/1 20/1/1 19/2/1 2/2/1
f 7/2/2 11/2/2 12/1/2 8/1/2
f 2/2/3 7/2/3 8/1/3 3/1/3
f 4/3/4 6/3/4 5/4/4 1/4/4
f 3/1/5 8/1/5 6/3/5 4/3/5
f 1/4/6 5/4/6 7/2/6 2/2/6
f 12/1/5 16/1/5 14/3/5 10/3/5
f 6/3/7 10/3/7 9/4/7 5/4/7
f 8/1/8 12/1/8 10/3/8 6/3/8
f 5/4/6 9/4/6 11/2/6 7/2/6
f 9/4/6 13/4/6 15/2/6 11/2/6
f 11/2/3 15/2/3 16/1/3 12/1/3
f 10/3/4 14/3/4 13/4/4 9/4/4
f 20/1/4 24/1/4 23/2/4 19/2/4
f 1/4/1 17/4/1 18/3/1 4/3/1
f 4/3/1 18/3/1 20/1/1 3/1/1
f 2/2/1 19/2/1 17/4/1 1/4/1
f 22/3/9 26/3/9 28/1/9 24/1/9
f 17/4/3 21/4/3 22/3/3 18/3/3
f 18/3/6 22/3/6 24/1/6 20/1/6
f 19/2/5 23/2/5 21/4/5 17/4/5
f 25/4/1 27/2/1 28/1/1 26/3/1
f 23/2/10 27/2/10 25/4/10 21/4/10
f 24/1/11 28/1/11 27/2/11 23/2/11
f 21/4/12 25/4/12 26/3/12 22/3/12
