# Blender 4.2.1 LTS
# www.blender.org
mtllib Refrigerator.mtl
o Cube.003
v -0.300000 -0.000000 -0.300000
v 0.300000 -0.000000 -0.300000
v 0.300000 0.765000 -0.300000
v -0.300000 0.780000 0.300000
v -0.300000 0.765000 -0.300000
v 0.300000 0.780000 0.300000
v -0.300000 1.800000 -0.300000
v 0.300000 0.000000 0.300000
v -0.300000 0.000000 0.300000
v -0.300000 0.045000 0.300000
v 0.300000 0.045000 0.300000
v 0.300000 1.800000 -0.300000
v 0.300000 1.755000 -0.300000
v -0.300000 1.755000 -0.300000
v -0.300000 1.755000 0.300000
v 0.300000 1.755000 0.300000
v -0.300000 1.800000 0.300000
v 0.300000 0.750000 0.300000
v -0.300000 0.750000 0.300000
v 0.300000 1.800000 0.300000
v 0.300000 1.755000 0.345705
v -0.300000 1.755000 0.345705
v 0.300000 0.780000 0.345705
v -0.300000 0.780000 0.345705
v 0.300000 0.045000 0.345705
v -0.300000 0.045000 0.345705
v 0.300000 0.750000 0.345705
v -0.300000 0.750000 0.345705
v -0.300000 1.755000 0.313594
v -0.300000 1.755000 0.305336
v -0.297203 1.746400 0.309460
v 0.300000 1.755000 0.305336
v 0.300000 1.755000 0.313594
v 0.297203 1.746400 0.309460
v 0.300000 0.780000 0.305336
v 0.300000 0.780000 0.313594
v 0.297203 0.780489 0.309460
v -0.300000 0.780000 0.313594
v -0.300000 0.780000 0.305336
v -0.297203 0.780489 0.309460
v -0.300000 0.750000 0.312544
v -0.300000 0.750000 0.304286
v -0.297203 0.748569 0.308420
v 0.300000 0.750000 0.312544
v 0.300000 0.750000 0.304286
v 0.297203 0.748569 0.308420
v 0.300000 0.045000 0.304286
v 0.300000 0.045000 0.312544
v 0.297203 0.052341 0.308420
v -0.300000 0.045000 0.312544
v -0.300000 0.045000 0.304286
v -0.297203 0.052341 0.308420
v -0.246846 0.864000 0.364280
v -0.269155 0.864000 0.364280
v -0.246846 0.864000 0.304280
v -0.269155 0.864000 0.304280
v -0.246846 1.116000 0.364280
v -0.269155 1.116000 0.364280
v -0.246846 1.116000 0.304280
v -0.269155 1.116000 0.304280
v -0.246846 0.444000 0.364280
v -0.269155 0.444000 0.364280
v -0.246846 0.444000 0.304280
v -0.269155 0.444000 0.304280
v -0.246846 0.696000 0.364280
v -0.269155 0.696000 0.364280
v -0.246846 0.696000 0.304280
v -0.269155 0.696000 0.304280
vn -1.0000 -0.0000 -0.0000
vn -0.0000 -0.0000 -1.0000
vn 1.0000 -0.0000 -0.0000
vn -0.0000 -0.0000 1.0000
vn -0.0000 -1.0000 -0.0000
vn -0.0000 1.0000 -0.0000
vn -0.0000 -0.9931 -0.1176
vn -0.0000 -0.9930 0.1178
vn -0.8283 -0.0000 -0.5603
vn -0.8277 -0.0000 0.5612
vn 0.8283 -0.0000 -0.5603
vn 0.8277 -0.0000 0.5612
vn -0.0000 0.4332 -0.9013
vn -0.0000 0.4324 0.9017
vn -0.0000 -0.4898 -0.8718
vn -0.0000 -0.4906 0.8714
vn -0.8277 -0.0000 -0.5612
vn -0.8283 -0.0000 0.5603
vn -0.0000 0.9448 -0.3278
vn -0.0000 0.9450 0.3271
vn 0.8277 -0.0000 -0.5612
vn 0.8283 -0.0000 0.5603
vt 0.041233 0.388251
vt 0.043949 0.388207
vt 0.042999 0.390458
vt 0.041233 0.390458
vt 0.041233 0.390326
vt 0.044900 0.390458
vt 0.046666 0.388207
vt 0.046666 0.390458
vt 0.044765 0.388251
vt 0.042999 0.388207
vt 0.044765 0.388163
vt 0.041233 0.388163
vt 0.044765 0.390326
vt 0.044765 0.390458
vt 0.041233 0.385293
vt 0.042999 0.385293
vt 0.042999 0.385160
vt 0.044765 0.385160
vt 0.044765 0.385293
vt 0.041913 0.390458
vt 0.041913 0.392224
vt 0.041825 0.392224
vt 0.041825 0.390458
vt 0.042035 0.390458
vt 0.042035 0.392224
vt 0.042023 0.392224
vt 0.042023 0.390458
vt 0.041221 0.390326
vt 0.041221 0.388251
vt 0.041233 0.385160
vt 0.044900 0.385293
vt 0.046666 0.385293
vt 0.041633 0.392224
vt 0.041500 0.392224
vt 0.041500 0.390458
vt 0.041633 0.390458
vt 0.041368 0.392224
vt 0.041368 0.390458
vt 0.044900 0.385160
vt 0.046666 0.385160
vt 0.046666 0.390105
vt 0.046666 0.388030
vt 0.048432 0.388030
vt 0.048432 0.390105
vt 0.048432 0.385160
vt 0.041233 0.392224
vt 0.041221 0.392224
vt 0.041221 0.390458
vt 0.041217 0.388163
vt 0.041217 0.385293
vt 0.041352 0.392224
vt 0.041352 0.390458
vt 0.042007 0.392224
vt 0.042007 0.390458
vt 0.041196 0.388251
vt 0.041196 0.390326
vt 0.041099 0.390326
vt 0.041099 0.388251
vt 0.041328 0.390458
vt 0.041328 0.392224
vt 0.044781 0.385293
vt 0.044781 0.388163
vt 0.044805 0.388163
vt 0.044805 0.385293
vt 0.044900 0.388163
vt 0.041730 0.392224
vt 0.041730 0.390458
vt 0.044778 0.388251
vt 0.044778 0.390326
vt 0.041196 0.390458
vt 0.041196 0.392224
vt 0.041099 0.392224
vt 0.041099 0.390458
vt 0.044802 0.390326
vt 0.044802 0.388251
vt 0.044900 0.388251
vt 0.044900 0.390326
vt 0.080085 0.314710
vt 0.080085 0.312944
vt 0.080097 0.312952
vt 0.080097 0.314702
vt 0.080109 0.312944
vt 0.080109 0.314710
vt 0.079950 0.310648
vt 0.079950 0.307778
vt 0.079963 0.307804
vt 0.079963 0.310647
vt 0.079975 0.307778
vt 0.079975 0.310648
vt 0.083563 0.307778
vt 0.083563 0.310648
vt 0.083550 0.310647
vt 0.083550 0.307804
vt 0.083538 0.310648
vt 0.083538 0.307778
vt 0.080696 0.314710
vt 0.080696 0.312944
vt 0.080721 0.312952
vt 0.080721 0.314702
vt 0.080696 0.312952
vt 0.080696 0.314702
vt 0.080670 0.314710
vt 0.080670 0.312944
vt 0.080742 0.312944
vt 0.080742 0.314710
vt 0.080742 0.314702
vt 0.080742 0.312952
vt 0.080764 0.312944
vt 0.080764 0.314710
vt 0.079954 0.312811
vt 0.079954 0.310736
vt 0.079966 0.310734
vt 0.079966 0.312790
vt 0.079978 0.310736
vt 0.079978 0.312811
vt 0.079954 0.314710
vt 0.079954 0.312944
vt 0.079966 0.312952
vt 0.079966 0.314702
vt 0.079978 0.312944
vt 0.079978 0.314710
vt 0.083559 0.310736
vt 0.083559 0.312811
vt 0.083547 0.312790
vt 0.083547 0.310734
vt 0.083535 0.312811
vt 0.083535 0.310736
vt 0.041193 0.385293
vt 0.041193 0.388163
vt 0.041099 0.388163
vt 0.041099 0.385293
vt 0.044900 0.392224
vt 0.046666 0.392224
vt 0.167641 0.430530
vt 0.169583 0.430530
vt 0.169583 0.432472
vt 0.167641 0.432472
vt 0.167641 0.434415
vt 0.169583 0.434415
vt 0.169583 0.436357
vt 0.167641 0.436357
vt 0.169583 0.438299
vt 0.167641 0.438299
vt 0.165698 0.434415
vt 0.165698 0.436357
vt 0.171526 0.434415
vt 0.171526 0.436357
s 0
usemtl LowPoly
f 19/1/1 5/2/1 1/3/1 9/4/1 10/5/1
f 1/6/2 5/2/2 3/7/2 2/8/2
f 18/9/3 3/10/3 6/11/3
f 5/2/1 19/1/1 4/12/1
f 3/10/3 18/9/3 11/13/3 8/14/3 2/3/3
f 4/12/1 15/15/1 14/16/1 5/2/1
f 12/17/3 20/18/3 16/19/3 13/16/3
f 19/20/4 18/21/4 6/22/4 4/23/4
f 10/24/5 11/25/5 47/26/5 51/27/5
f 16/19/3 6/11/3 3/10/3 13/16/3
f 19/1/1 10/5/1 51/28/1 42/29/1
f 17/30/1 7/17/1 14/16/1 15/15/1
f 5/2/2 14/31/2 13/32/2 3/7/2
f 16/33/4 20/34/4 17/35/4 15/36/4
f 8/34/4 11/37/4 10/38/4 9/35/4
f 7/39/2 12/40/2 13/32/2 14/31/2
f 25/41/4 27/42/4 28/43/4 26/44/4
f 22/45/4 24/43/4 23/42/4 21/40/4
f 18/4/6 19/46/6 42/47/6 45/48/6
f 15/15/1 4/12/1 39/49/1 30/50/1
f 4/38/5 6/37/5 35/51/5 39/52/5
f 16/27/6 15/26/6 30/53/6 32/54/6
f 41/55/1 50/56/1 26/57/1 28/58/1
f 38/59/5 36/60/5 23/46/5 24/4/5
f 6/11/3 16/19/3 32/61/3 35/62/3
f 36/63/3 33/64/3 21/31/3 23/65/3
f 33/23/6 29/22/6 22/66/6 21/67/6
f 50/67/5 48/66/5 25/33/5 26/36/5
f 11/13/3 18/9/3 45/68/3 47/69/3
f 44/70/6 41/71/6 28/72/6 27/73/6
f 48/74/3 44/75/3 27/76/3 25/77/3
f 36/78/7 38/79/7 40/80/7 37/81/7
f 37/81/8 40/80/8 39/82/8 35/83/8
f 38/84/9 29/85/9 31/86/9 40/87/9
f 40/87/10 31/86/10 30/88/10 39/89/10
f 33/90/11 36/91/11 37/92/11 34/93/11
f 34/93/12 37/92/12 35/94/12 32/95/12
f 29/96/13 33/97/13 34/98/13 31/99/13
f 31/100/14 34/101/14 32/102/14 30/103/14
f 48/104/15 50/105/15 52/99/15 49/98/15
f 49/106/16 52/107/16 51/108/16 47/109/16
f 50/110/17 41/111/17 43/112/17 52/113/17
f 52/113/18 43/112/18 42/114/18 51/115/18
f 41/116/19 44/117/19 46/118/19 43/119/19
f 43/119/20 46/118/20 45/120/20 42/121/20
f 44/122/21 48/123/21 49/124/21 46/125/21
f 46/125/22 49/124/22 47/126/22 45/127/22
f 29/128/1 38/129/1 24/130/1 22/131/1
f 17/132/6 20/6/6 12/8/6 7/133/6
f 53/134/5 54/135/5 56/136/5 55/137/5
f 59/138/6 60/139/6 58/140/6 57/141/6
f 57/141/4 58/140/4 54/142/4 53/143/4
f 55/144/3 59/138/3 57/141/3 53/145/3
f 60/139/1 56/146/1 54/147/1 58/140/1
f 61/134/5 62/135/5 64/136/5 63/137/5
f 67/138/6 68/139/6 66/140/6 65/141/6
f 65/141/4 66/140/4 62/142/4 61/143/4
f 63/144/3 67/138/3 65/141/3 61/145/3
f 68/139/1 64/146/1 62/147/1 66/140/1
