# Blender 4.2.1 LTS
# www.blender.org
mtllib Rug.mtl
o Plane.002
v -0.994671 0.009999 -0.639431
v -0.994671 0.010001 0.639431
v 0.994671 0.010001 0.639431
v 0.994671 0.009999 -0.639431
v -0.994671 -0.000001 -0.639431
v -0.994671 0.000001 0.639431
v 0.994671 0.000001 0.639431
v 0.994671 -0.000001 -0.639431
vn -0.0000 1.0000 -0.0000
vn -0.0000 -1.0000 -0.0000
vn -1.0000 -0.0000 -0.0000
vn -0.0000 -0.0000 1.0000
vn 1.0000 -0.0000 -0.0000
vn -0.0000 -0.0000 -1.0000
vt 0.871990 0.059166
vt 0.756498 0.059166
vt 0.756498 0.002926
vt 0.871990 0.002926
s 0
usemtl LowPoly
f 2/1/1 3/2/1 4/3/1 1/4/1
f 6/1/2 5/4/2 8/3/2 7/2/2
f 2/1/3 1/4/3 5/4/3 6/1/3
f 3/2/4 2/1/4 6/1/4 7/2/4
f 4/3/5 3/2/5 7/2/5 8/3/5
f 1/4/6 4/3/6 8/3/6 5/4/6
