# Blender 4.2.1 LTS
# www.blender.org
mtllib Sink.mtl
o Cube.001
v -0.264175 0.937702 -0.196211
v -0.264175 0.937702 0.249616
v -0.252089 0.937702 0.278792
v -0.222914 0.937702 0.290878
v -0.222914 0.930000 0.290878
v -0.264175 0.930000 0.249616
v -0.252089 0.930000 0.278792
v -0.264175 0.930000 -0.196211
v -0.222914 0.930000 -0.237471
v -0.252089 0.930000 -0.225386
v 0.264175 0.930000 0.249616
v 0.222914 0.930000 0.290878
v 0.252089 0.930000 0.278792
v 0.222914 0.930000 -0.237471
v 0.264175 0.930000 -0.196211
v 0.252089 0.930000 -0.225386
v -0.252089 0.937702 -0.225386
v -0.222914 0.937702 -0.237471
v 0.264175 0.937702 0.249616
v 0.252089 0.937702 0.278792
v 0.222914 0.937702 0.290878
v 0.222914 0.937702 -0.237471
v 0.252089 0.937702 -0.225386
v 0.264175 0.937702 -0.196211
v 0.225296 0.937702 -0.198593
v 0.236097 0.937702 -0.172518
v 0.236097 0.937702 0.225925
v 0.225296 0.937702 0.252000
v -0.236097 0.937702 -0.172518
v -0.225296 0.937702 -0.198593
v 0.199222 0.937702 -0.209394
v 0.199222 0.937702 0.262800
v -0.199222 0.937702 -0.209394
v -0.199222 0.937702 0.262800
v -0.225296 0.937702 0.252000
v -0.236097 0.937702 0.225925
v 0.225296 0.862608 -0.198593
v 0.030455 0.825144 -0.110768
v 0.216898 0.836117 -0.190195
v 0.236097 0.862608 -0.172518
v 0.225124 0.836117 -0.170336
v 0.236097 0.862608 0.225925
v 0.225124 0.836117 0.223742
v 0.225296 0.862608 0.252000
v 0.216898 0.836117 0.243601
v -0.236097 0.862608 -0.172518
v -0.030455 0.825144 -0.110768
v -0.225124 0.836117 -0.170336
v -0.225296 0.862608 -0.198593
v -0.216898 0.836117 -0.190195
v 0.199222 0.862608 -0.209394
v 0.197039 0.836117 -0.198421
v 0.030455 0.825144 -0.049858
v 0.199222 0.862608 0.262800
v 0.197039 0.836117 0.251827
v -0.199222 0.862608 -0.209394
v -0.197039 0.836117 -0.198421
v -0.199222 0.862608 0.262800
v -0.197039 0.836117 0.251827
v -0.225296 0.862608 0.252000
v -0.216898 0.836117 0.243601
v -0.030455 0.825144 -0.049858
v -0.236097 0.862608 0.225925
v -0.225124 0.836117 0.223742
v 0.196623 0.825144 -0.169920
v 0.196623 0.825144 0.223326
v -0.196623 0.825144 0.223326
v -0.196623 0.825144 -0.169920
v 0.030455 0.807614 -0.110768
v 0.030455 0.807614 -0.049858
v -0.030455 0.807614 -0.049858
v -0.030455 0.807614 -0.110768
v 0.011599 1.076279 -0.109926
v 0.011599 1.068406 -0.120761
v 0.000000 1.064470 -0.126179
v -0.011599 1.068406 -0.120761
v -0.011599 1.076279 -0.109926
v 0.000000 1.080215 -0.104508
v 0.011599 1.117151 -0.140027
v 0.011599 1.106316 -0.147899
v 0.000000 1.100899 -0.151835
v -0.011599 1.106316 -0.147899
v -0.011599 1.117151 -0.140027
v 0.000000 1.122569 -0.136091
v 0.011599 1.133476 -0.190270
v 0.011599 1.120083 -0.190270
v 0.000000 1.113387 -0.190270
v -0.011599 1.120083 -0.190270
v -0.011599 1.133476 -0.190270
v 0.000000 1.140173 -0.190270
v 0.011599 1.117151 -0.240514
v 0.011599 1.106316 -0.232641
v 0.000000 1.100899 -0.228705
v -0.011599 1.106316 -0.232641
v -0.011599 1.117151 -0.240514
v 0.000000 1.122569 -0.244450
v 0.011599 1.074412 -0.271566
v 0.011599 1.070273 -0.258828
v 0.000000 1.068204 -0.252459
v -0.011599 1.070273 -0.258828
v -0.011599 1.074412 -0.271566
v 0.000000 1.076481 -0.277934
v 0.011599 1.023652 -0.271893
v 0.011599 1.023652 -0.258500
v 0.000000 1.023652 -0.251804
v -0.011599 1.023652 -0.258500
v -0.011599 1.023652 -0.271893
v 0.000000 1.023652 -0.278590
v 0.011599 0.936991 -0.271893
v 0.011599 0.936991 -0.258500
v 0.000000 0.936991 -0.251804
v -0.011599 0.936991 -0.258500
v -0.011599 0.936991 -0.271893
v 0.000000 0.936991 -0.278590
v 0.015274 1.077526 -0.108209
v 0.015274 1.067159 -0.122478
v 0.000000 1.061976 -0.129612
v -0.015273 1.067159 -0.122478
v -0.015273 1.077526 -0.108209
v 0.000000 1.082709 -0.101075
v 0.015273 1.063574 -0.097503
v 0.015273 1.053208 -0.111772
v 0.000000 1.048025 -0.118906
v -0.015274 1.053208 -0.111772
v -0.015274 1.063574 -0.097503
v 0.000000 1.068758 -0.090369
v 0.028505 0.926150 -0.284971
v 0.011546 0.932213 -0.274573
v 0.011546 0.932213 -0.253777
v 0.028505 0.926150 -0.243379
v 0.045464 0.920087 -0.253777
v 0.045464 0.920087 -0.274573
v 0.043101 0.966975 -0.293289
v 0.019359 0.975463 -0.278732
v 0.019359 0.975463 -0.249617
v 0.043101 0.966975 -0.235060
v 0.066843 0.958487 -0.249617
v 0.066843 0.958487 -0.278732
v 0.045121 0.972625 -0.293289
v 0.021379 0.981113 -0.278732
v 0.021379 0.981113 -0.249617
v 0.045121 0.972625 -0.235060
v 0.068863 0.964137 -0.249617
v 0.068863 0.964137 -0.278732
v -0.028505 0.926150 -0.284971
v -0.011547 0.932213 -0.274573
v -0.011547 0.932213 -0.253777
v -0.028505 0.926150 -0.243379
v -0.045464 0.920087 -0.253777
v -0.045464 0.920087 -0.274573
v -0.043101 0.966975 -0.293289
v -0.019359 0.975463 -0.278732
v -0.019359 0.975463 -0.249617
v -0.043101 0.966975 -0.235060
v -0.066843 0.958487 -0.249617
v -0.066843 0.958487 -0.278732
v -0.045121 0.972625 -0.293289
v -0.021379 0.981113 -0.278732
v -0.021379 0.981113 -0.249617
v -0.045121 0.972625 -0.235060
v -0.068863 0.964137 -0.249617
v -0.068863 0.964137 -0.278732
vn 1.0000 -0.0000 -0.0000
vn -0.0000 1.0000 -0.0000
vn 0.3827 -0.0000 0.9239
vn -0.3827 -0.0000 0.9239
vn 0.9239 -0.0000 0.3827
vn -0.0000 -0.0000 -1.0000
vn -0.3827 -0.0000 -0.9239
vn -1.0000 -0.0000 -0.0000
vn -0.9239 -0.0000 -0.3827
vn -0.0000 -0.0000 1.0000
vn -0.9239 -0.0000 0.3827
vn 0.9239 -0.0000 -0.3827
vn 0.3827 -0.0000 -0.9239
vn -0.3536 0.9239 0.1464
vn -0.8536 0.3827 0.3536
vn -0.3536 0.9239 -0.1465
vn -0.8536 0.3827 -0.3536
vn 0.3536 0.9239 0.1464
vn 0.8536 0.3827 0.3536
vn -0.1464 0.9239 0.3536
vn -0.3536 0.3827 0.8536
vn -0.1464 0.9239 -0.3536
vn -0.3536 0.3827 -0.8536
vn 0.1464 0.9239 0.3536
vn 0.3536 0.3827 0.8536
vn 0.1464 0.9239 -0.3536
vn 0.3536 0.3827 -0.8536
vn 0.3536 0.9239 -0.1465
vn 0.8536 0.3827 -0.3536
vn 0.3593 0.9332 -0.0000
vn 0.9239 0.3827 -0.0000
vn -0.9239 0.3827 -0.0000
vn -0.3593 0.9332 -0.0000
vn -0.0000 0.3827 0.9239
vn -0.0000 0.9332 0.3593
vn -0.0000 0.3827 -0.9239
vn -0.0000 0.9332 -0.3593
vn 0.4913 0.5186 0.6998
vn 0.4901 -0.5047 -0.7107
vn -0.4901 -0.5047 -0.7107
vn -0.4913 0.5186 0.6998
vn 0.4813 0.8336 0.2709
vn 0.4813 -0.8337 -0.2709
vn -0.4813 -0.8337 -0.2709
vn -0.4813 0.8336 0.2709
vn 0.4813 0.8336 -0.2709
vn 0.4813 -0.8337 0.2709
vn -0.4813 -0.8337 0.2709
vn -0.4813 0.8336 -0.2709
vn 0.4813 0.5152 -0.7091
vn 0.4813 -0.5152 0.7091
vn -0.4813 -0.5152 0.7091
vn -0.4813 0.5152 -0.7091
vn 0.4913 0.0083 -0.8710
vn 0.4901 0.0094 0.8716
vn -0.4901 0.0094 0.8716
vn -0.4913 0.0083 -0.8710
vn 0.5000 -0.0000 -0.8660
vn 0.5000 -0.0000 0.8660
vn -0.5000 -0.0000 0.8660
vn -0.5000 -0.0000 -0.8660
vn -0.0000 0.8090 -0.5878
vn -0.4999 0.5273 0.6871
vn -0.4999 -0.5273 -0.6871
vn 0.4999 -0.5273 -0.6871
vn 0.4999 0.5273 0.6871
vn -0.0000 -0.8090 0.5878
vn 0.4093 -0.3204 -0.8543
vn 0.4093 -0.3204 0.8543
vn -0.9841 0.1778 -0.0000
vn 0.8737 -0.4864 -0.0000
vn -0.5196 0.0117 0.8543
vn -0.5196 0.0117 -0.8543
vn 0.9416 -0.3367 -0.0000
vn -0.4708 0.1683 0.8660
vn -0.4708 0.1683 -0.8660
vn 0.4708 -0.1683 -0.8660
vn 0.4708 -0.1683 0.8660
vn -0.9416 0.3366 -0.0000
vn 0.3366 0.9416 -0.0000
vn -0.4093 -0.3204 -0.8543
vn -0.4093 -0.3204 0.8543
vn 0.9841 0.1778 -0.0000
vn -0.8737 -0.4864 -0.0000
vn 0.5196 0.0117 0.8543
vn 0.5196 0.0117 -0.8543
vn -0.9416 -0.3367 -0.0000
vn 0.4708 0.1683 0.8660
vn 0.4708 0.1683 -0.8660
vn -0.4708 -0.1683 -0.8660
vn -0.4708 -0.1683 0.8660
vn 0.9416 0.3366 -0.0000
vn -0.3366 0.9416 -0.0000
vt 0.604241 0.988536
vt 0.604241 0.981859
vt 0.604859 0.981241
vt 0.611536 0.981241
vt 0.604859 0.989153
vt 0.604422 0.988972
vt 0.611973 0.988972
vt 0.611536 0.989153
vt 0.611973 0.981422
vt 0.612154 0.981859
vt 0.612154 0.988536
vt 0.604422 0.981422
vt 0.608713 0.984699
vt 0.608695 0.985713
vt 0.604869 0.981984
vt 0.604248 0.981860
vt 0.604443 0.981442
vt 0.604903 0.988492
vt 0.604443 0.988952
vt 0.604248 0.988534
vt 0.611492 0.981902
vt 0.611952 0.981442
vt 0.612147 0.981860
vt 0.604903 0.981902
vt 0.604860 0.981248
vt 0.604984 0.988526
vt 0.604860 0.989146
vt 0.611411 0.981869
vt 0.611534 0.981248
vt 0.611492 0.988492
vt 0.611952 0.988952
vt 0.611534 0.989146
vt 0.611526 0.988411
vt 0.612147 0.988534
vt 0.611526 0.981984
vt 0.604869 0.988411
vt 0.604984 0.981869
vt 0.611411 0.988526
vt 0.607700 0.984682
vt 0.607682 0.985695
vt 0.641025 0.987977
vt 0.642038 0.987995
vt 0.642020 0.989009
vt 0.641007 0.988991
vt 0.605942 0.983415
vt 0.607130 0.983415
vt 0.607130 0.982228
vt 0.605942 0.982228
vt 0.605942 0.977478
vt 0.607130 0.977478
vt 0.607130 0.976290
vt 0.605942 0.976290
vt 0.605942 0.978665
vt 0.607130 0.978665
vt 0.605942 0.979853
vt 0.607130 0.979853
vt 0.605942 0.981040
vt 0.607130 0.981040
vt 0.608317 0.983415
vt 0.608317 0.982228
vt 0.608317 0.977478
vt 0.608317 0.976290
vt 0.608317 0.978665
vt 0.608317 0.979853
vt 0.608317 0.981040
vt 0.609505 0.983415
vt 0.609505 0.982228
vt 0.609505 0.977478
vt 0.609505 0.976290
vt 0.609505 0.978665
vt 0.609505 0.979853
vt 0.609505 0.981040
vt 0.610692 0.983415
vt 0.610692 0.982228
vt 0.610692 0.977478
vt 0.610692 0.976290
vt 0.610692 0.978665
vt 0.610692 0.979853
vt 0.610692 0.981040
vt 0.611880 0.983415
vt 0.611880 0.982228
vt 0.611880 0.977478
vt 0.611880 0.976290
vt 0.611880 0.978665
vt 0.611880 0.979853
vt 0.611880 0.981040
vt 0.613068 0.983415
vt 0.613068 0.982228
vt 0.613068 0.977478
vt 0.613068 0.976290
vt 0.613068 0.978665
vt 0.613068 0.979853
vt 0.613068 0.981040
vt 0.582197 0.951023
vt 0.581794 0.954194
vt 0.581867 0.954149
vt 0.585305 0.952755
vt 0.585252 0.956952
vt 0.581912 0.954199
vt 0.581947 0.954255
vt 0.581370 0.957583
vt 0.579544 0.955308
vt 0.581893 0.954358
vt 0.581788 0.954292
vt 0.579544 0.952605
vt 0.581865 0.954171
vt 0.581908 0.954204
vt 0.581926 0.954261
vt 0.581869 0.954327
vt 0.581805 0.954282
vt 0.581809 0.954206
s 0
usemtl LowPoly
f 11/1/1 15/2/1 24/2/1 19/1/1
f 22/3/2 18/4/2 33/4/2 31/3/2
f 12/5/3 13/6/3 20/6/3 21/5/3
f 7/7/4 5/8/4 4/8/4 3/7/4
f 13/6/5 11/1/5 19/1/5 20/6/5
f 14/3/6 9/4/6 18/4/6 22/3/6
f 9/4/7 10/9/7 17/9/7 18/4/7
f 8/10/8 6/11/8 2/11/8 1/10/8
f 10/9/9 8/10/9 1/10/9 17/9/9
f 5/8/10 12/5/10 21/5/10 4/8/10
f 6/11/11 7/7/11 3/7/11 2/11/11
f 15/2/12 16/12/12 23/12/12 24/2/12
f 16/12/13 14/3/13 22/3/13 23/12/13
f 27/1/8 26/2/8 40/2/8 42/1/8
f 23/12/2 22/3/2 31/3/2 25/12/2
f 24/2/2 23/12/2 25/12/2 26/2/2
f 2/11/2 3/7/2 35/7/2 36/11/2
f 4/8/2 21/5/2 32/5/2 34/8/2
f 21/5/2 20/6/2 28/6/2 32/5/2
f 1/10/2 2/11/2 36/11/2 29/10/2
f 20/6/2 19/1/2 27/1/2 28/6/2
f 18/4/2 17/9/2 30/9/2 33/4/2
f 19/1/2 24/2/2 26/2/2 27/1/2
f 17/9/2 1/10/2 29/10/2 30/9/2
f 3/7/2 4/8/2 34/8/2 35/7/2
f 25/12/4 31/3/4 51/3/4 37/12/4
f 34/8/6 32/5/6 54/5/6 58/8/6
f 47/13/1 62/14/1 71/14/1 72/13/1
f 30/9/5 29/10/5 46/10/5 49/9/5
f 35/7/13 34/8/13 58/8/13 60/7/13
f 32/5/7 28/6/7 44/6/7 54/5/7
f 33/4/3 30/9/3 49/9/3 56/4/3
f 31/3/10 33/4/10 56/4/10 51/3/10
f 29/10/1 36/11/1 63/11/1 46/10/1
f 28/6/9 27/1/9 42/1/9 44/6/9
f 36/11/12 35/7/12 60/7/12 63/11/12
f 65/15/14 41/16/14 39/17/14
f 39/17/15 41/16/15 40/2/15 37/12/15
f 66/18/16 45/19/16 43/20/16
f 43/20/17 45/19/17 44/6/17 42/1/17
f 68/21/18 50/22/18 48/23/18
f 48/23/19 50/22/19 49/9/19 46/10/19
f 65/24/20 39/17/20 52/25/20
f 52/25/21 39/17/21 37/12/21 51/3/21
f 66/26/22 55/27/22 45/19/22
f 45/19/23 55/27/23 54/5/23 44/6/23
f 68/28/24 57/29/24 50/22/24
f 50/22/25 57/29/25 56/4/25 49/9/25
f 67/30/26 61/31/26 59/32/26
f 59/32/27 61/31/27 60/7/27 58/8/27
f 67/33/28 64/34/28 61/31/28
f 61/31/29 64/34/29 63/11/29 60/7/29
f 67/33/30 68/35/30 48/23/30 64/34/30
f 64/34/31 48/23/31 46/10/31 63/11/31
f 42/1/32 40/2/32 41/16/32 43/20/32
f 43/20/33 41/16/33 65/15/33 66/36/33
f 51/3/34 56/4/34 57/29/34 52/25/34
f 52/25/35 57/29/35 68/28/35 65/37/35
f 58/8/36 54/5/36 55/27/36 59/32/36
f 59/32/37 55/27/37 66/26/37 67/38/37
f 26/2/11 25/12/11 37/12/11 40/2/11
f 38/39/2 53/40/2 66/36/2 65/37/2
f 53/40/2 62/14/2 67/38/2 66/36/2
f 47/13/2 38/39/2 65/37/2 68/35/2
f 62/14/2 47/13/2 68/35/2 67/38/2
f 69/41/2 72/42/2 71/43/2 70/44/2
f 62/14/6 53/40/6 70/40/6 71/14/6
f 38/39/10 47/13/10 72/13/10 69/39/10
f 53/40/8 38/39/8 69/39/8 70/40/8
f 73/45/38 79/46/38 84/47/38 78/48/38
f 74/49/1 80/50/1 79/51/1 73/52/1
f 75/53/39 81/54/39 80/50/39 74/49/39
f 76/55/40 82/56/40 81/54/40 75/53/40
f 77/57/8 83/58/8 82/56/8 76/55/8
f 78/48/41 84/47/41 83/58/41 77/57/41
f 79/46/42 85/59/42 90/60/42 84/47/42
f 80/50/1 86/61/1 85/62/1 79/51/1
f 81/54/43 87/63/43 86/61/43 80/50/43
f 82/56/44 88/64/44 87/63/44 81/54/44
f 83/58/8 89/65/8 88/64/8 82/56/8
f 84/47/45 90/60/45 89/65/45 83/58/45
f 85/59/46 91/66/46 96/67/46 90/60/46
f 86/61/1 92/68/1 91/69/1 85/62/1
f 87/63/47 93/70/47 92/68/47 86/61/47
f 88/64/48 94/71/48 93/70/48 87/63/48
f 89/65/8 95/72/8 94/71/8 88/64/8
f 90/60/49 96/67/49 95/72/49 89/65/49
f 91/66/50 97/73/50 102/74/50 96/67/50
f 92/68/1 98/75/1 97/76/1 91/69/1
f 93/70/51 99/77/51 98/75/51 92/68/51
f 94/71/52 100/78/52 99/77/52 93/70/52
f 95/72/8 101/79/8 100/78/8 94/71/8
f 96/67/53 102/74/53 101/79/53 95/72/53
f 97/73/54 103/80/54 108/81/54 102/74/54
f 98/75/1 104/82/1 103/83/1 97/76/1
f 99/77/55 105/84/55 104/82/55 98/75/55
f 100/78/56 106/85/56 105/84/56 99/77/56
f 101/79/8 107/86/8 106/85/8 100/78/8
f 102/74/57 108/81/57 107/86/57 101/79/57
f 103/80/58 109/87/58 114/88/58 108/81/58
f 104/82/1 110/89/1 109/90/1 103/83/1
f 105/84/59 111/91/59 110/89/59 104/82/59
f 106/85/60 112/92/60 111/91/60 105/84/60
f 107/86/8 113/93/8 112/92/8 106/85/8
f 108/81/61 114/88/61 113/93/61 107/86/61
f 74/49/62 73/52/62 115/52/62 116/49/62
f 77/57/62 76/55/62 118/55/62 119/57/62
f 73/45/62 78/48/62 120/48/62 115/45/62
f 75/53/62 74/49/62 116/49/62 117/53/62
f 78/48/62 77/57/62 119/57/62 120/48/62
f 76/55/62 75/53/62 117/53/62 118/55/62
f 120/48/63 119/57/63 125/57/63 126/48/63
f 118/55/64 117/53/64 123/53/64 124/55/64
f 116/49/1 115/52/1 121/52/1 122/49/1
f 119/57/8 118/55/8 124/55/8 125/57/8
f 117/53/65 116/49/65 122/49/65 123/53/65
f 115/45/66 120/48/66 126/48/66 121/45/66
f 123/53/67 126/48/67 125/57/67 124/55/67
f 126/48/67 123/53/67 122/49/67 121/52/67
f 127/94/68 133/95/68 138/96/68 132/97/68
f 131/98/69 137/99/69 136/100/69 130/101/69
f 129/102/70 135/103/70 134/104/70 128/105/70
f 132/97/71 138/96/71 137/99/71 131/98/71
f 130/101/72 136/100/72 135/103/72 129/102/72
f 128/105/73 134/104/73 133/95/73 127/94/73
f 138/96/74 144/106/74 143/107/74 137/99/74
f 136/100/75 142/108/75 141/109/75 135/103/75
f 134/104/76 140/110/76 139/111/76 133/95/76
f 133/95/77 139/111/77 144/106/77 138/96/77
f 137/99/78 143/107/78 142/108/78 136/100/78
f 135/103/79 141/109/79 140/110/79 134/104/79
f 140/110/80 141/109/80 142/108/80 139/111/80
f 143/107/80 144/106/80 139/111/80 142/108/80
f 145/94/81 150/97/81 156/96/81 151/95/81
f 149/98/82 148/101/82 154/100/82 155/99/82
f 147/102/83 146/105/83 152/104/83 153/103/83
f 150/97/84 149/98/84 155/99/84 156/96/84
f 148/101/85 147/102/85 153/103/85 154/100/85
f 146/105/86 145/94/86 151/95/86 152/104/86
f 156/96/87 155/99/87 161/107/87 162/106/87
f 154/100/88 153/103/88 159/109/88 160/108/88
f 152/104/89 151/95/89 157/111/89 158/110/89
f 151/95/90 156/96/90 162/106/90 157/111/90
f 155/99/91 154/100/91 160/108/91 161/107/91
f 153/103/92 152/104/92 158/110/92 159/109/92
f 158/110/93 157/111/93 160/108/93 159/109/93
f 161/107/93 160/108/93 157/111/93 162/106/93
