# Blender 4.2.1 LTS
# www.blender.org
mtllib Stove.mtl
o Cube.009
v -0.300000 -0.000000 -0.300000
v -0.300000 0.900000 -0.300000
v 0.300000 -0.000000 -0.300000
v 0.300000 0.900000 -0.300000
v -0.284725 0.930000 0.314725
v -0.284725 0.930000 -0.284725
v 0.284725 0.930000 -0.284725
v 0.300000 0.900000 0.330000
v -0.300000 0.900000 0.330000
v 0.284725 0.930000 0.314725
v -0.300000 0.675000 -0.300000
v 0.300000 0.675000 -0.300000
v -0.300000 0.225000 -0.300000
v 0.300000 0.225000 -0.300000
v -0.300000 0.675000 0.300000
v -0.300000 0.900000 0.300000
v 0.300000 0.225000 0.300000
v 0.300000 0.000000 0.300000
v -0.300000 0.000000 0.300000
v 0.300000 0.900000 0.300000
v -0.300000 0.225000 0.300000
v 0.300000 0.675000 0.300000
v -0.282637 0.882637 0.300000
v 0.282637 0.882637 0.300000
v 0.269960 0.030040 0.300000
v -0.269960 0.030040 0.300000
v -0.282637 0.675000 0.300000
v 0.269960 0.212323 0.300000
v -0.269960 0.212323 0.300000
v 0.282637 0.675000 0.300000
v -0.282637 0.225000 0.300000
v 0.282637 0.225000 0.300000
v -0.220119 0.287518 0.309552
v 0.220119 0.612482 0.309552
v -0.220119 0.612482 0.309552
v 0.220119 0.287518 0.309552
v -0.282637 0.225000 0.309552
v 0.282637 0.675000 0.309552
v -0.282637 0.675000 0.309552
v 0.282637 0.225000 0.309552
v -0.220119 0.287518 0.302777
v 0.220119 0.612482 0.302777
v -0.220119 0.612482 0.302777
v 0.220119 0.287518 0.302777
v -0.300000 0.930000 0.330000
v -0.300000 0.930000 -0.300000
v 0.300000 0.930000 -0.300000
v 0.300000 0.930000 0.330000
v 0.268635 0.915887 0.303156
v -0.268635 0.915887 0.303156
v -0.268635 0.915887 -0.262419
v 0.268635 0.915887 -0.262419
v 0.282637 0.017363 0.300000
v -0.282637 0.017363 0.300000
v 0.269960 0.212323 0.309016
v 0.269960 0.030040 0.309016
v -0.269960 0.030040 0.309016
v -0.269960 0.212323 0.309016
v -0.274046 0.897292 -0.180452
v -0.274046 0.897292 -0.175652
v -0.270000 0.896340 -0.173252
v -0.265954 0.895388 -0.175652
v -0.265954 0.895388 -0.180452
v -0.270000 0.896340 -0.182852
v -0.260581 0.950599 -0.180452
v -0.260581 0.950599 -0.175652
v -0.258000 0.947340 -0.173252
v -0.255419 0.944081 -0.175652
v -0.255419 0.944081 -0.180452
v -0.258000 0.947340 -0.182852
v -0.274046 0.897292 -0.070643
v -0.274046 0.897292 -0.065843
v -0.270000 0.896340 -0.063443
v -0.265954 0.895388 -0.065843
v -0.265954 0.895388 -0.070643
v -0.270000 0.896340 -0.073043
v -0.260581 0.950599 -0.070643
v -0.260581 0.950599 -0.065843
v -0.258000 0.947340 -0.063443
v -0.255419 0.944081 -0.065843
v -0.255419 0.944081 -0.070643
v -0.258000 0.947340 -0.073043
v 0.274046 0.897292 -0.180452
v 0.274046 0.897292 -0.175652
v 0.270000 0.896340 -0.173252
v 0.265954 0.895388 -0.175652
v 0.265954 0.895388 -0.180452
v 0.270000 0.896340 -0.182852
v 0.260581 0.950599 -0.180452
v 0.260581 0.950599 -0.175652
v 0.258000 0.947340 -0.173252
v 0.255419 0.944081 -0.175652
v 0.255419 0.944081 -0.180452
v 0.258000 0.947340 -0.182852
v 0.274046 0.897292 -0.070643
v 0.274046 0.897292 -0.065843
v 0.270000 0.896340 -0.063443
v 0.265954 0.895388 -0.065843
v 0.265954 0.895388 -0.070643
v 0.270000 0.896340 -0.073043
v 0.260581 0.950599 -0.070643
v 0.260581 0.950599 -0.065843
v 0.258000 0.947340 -0.063443
v 0.255419 0.944081 -0.065843
v 0.255419 0.944081 -0.070643
v 0.258000 0.947340 -0.073043
v -0.274046 0.897292 0.235608
v -0.274046 0.897292 0.230808
v -0.270000 0.896340 0.228408
v -0.265954 0.895388 0.230808
v -0.265954 0.895388 0.235608
v -0.270000 0.896340 0.238008
v -0.260581 0.950599 0.235608
v -0.260581 0.950599 0.230808
v -0.258000 0.947340 0.228408
v -0.255419 0.944081 0.230808
v -0.255419 0.944081 0.235608
v -0.258000 0.947340 0.238008
v -0.274046 0.897292 0.125799
v -0.274046 0.897292 0.120999
v -0.270000 0.896340 0.118599
v -0.265954 0.895388 0.120999
v -0.265954 0.895388 0.125799
v -0.270000 0.896340 0.128199
v -0.260581 0.950599 0.125799
v -0.260581 0.950599 0.120999
v -0.258000 0.947340 0.118599
v -0.255419 0.944081 0.120999
v -0.255419 0.944081 0.125799
v -0.258000 0.947340 0.128199
v 0.274046 0.897292 0.235608
v 0.274046 0.897292 0.230808
v 0.270000 0.896340 0.228408
v 0.265954 0.895388 0.230808
v 0.265954 0.895388 0.235608
v 0.270000 0.896340 0.238008
v 0.260581 0.950599 0.235608
v 0.260581 0.950599 0.230808
v 0.258000 0.947340 0.228408
v 0.255419 0.944081 0.230808
v 0.255419 0.944081 0.235608
v 0.258000 0.947340 0.238008
v 0.274046 0.897292 0.125799
v 0.274046 0.897292 0.120999
v 0.270000 0.896340 0.118599
v 0.265954 0.895388 0.120999
v 0.265954 0.895388 0.125799
v 0.270000 0.896340 0.128199
v 0.260581 0.950599 0.125799
v 0.260581 0.950599 0.120999
v 0.258000 0.947340 0.118599
v 0.255419 0.944081 0.120999
v 0.255419 0.944081 0.125799
v 0.258000 0.947340 0.128199
v -0.208030 0.897292 0.301624
v -0.203230 0.897292 0.301624
v -0.200830 0.896340 0.297578
v -0.203230 0.895388 0.293531
v -0.208030 0.895388 0.293531
v -0.210430 0.896340 0.297578
v -0.208030 0.950599 0.288159
v -0.203230 0.950599 0.288159
v -0.200830 0.947340 0.285578
v -0.203230 0.944081 0.282997
v -0.208030 0.944081 0.282997
v -0.210430 0.947340 0.285578
v -0.098221 0.897292 0.301624
v -0.093421 0.897292 0.301624
v -0.091021 0.896340 0.297578
v -0.093421 0.895388 0.293531
v -0.098221 0.895388 0.293531
v -0.100621 0.896340 0.297578
v -0.098221 0.950599 0.288159
v -0.093421 0.950599 0.288159
v -0.091021 0.947340 0.285578
v -0.093421 0.944081 0.282997
v -0.098221 0.944081 0.282997
v -0.100621 0.947340 0.285578
v -0.208030 0.897292 -0.246469
v -0.203230 0.897292 -0.246469
v -0.200830 0.896340 -0.242422
v -0.203230 0.895388 -0.238376
v -0.208030 0.895388 -0.238376
v -0.210430 0.896340 -0.242422
v -0.208030 0.950599 -0.233003
v -0.203230 0.950599 -0.233003
v -0.200830 0.947340 -0.230422
v -0.203230 0.944081 -0.227841
v -0.208030 0.944081 -0.227841
v -0.210430 0.947340 -0.230422
v -0.098221 0.897292 -0.246469
v -0.093421 0.897292 -0.246469
v -0.091021 0.896340 -0.242422
v -0.093421 0.895388 -0.238376
v -0.098221 0.895388 -0.238376
v -0.100621 0.896340 -0.242422
v -0.098221 0.950599 -0.233003
v -0.093421 0.950599 -0.233003
v -0.091021 0.947340 -0.230422
v -0.093421 0.944081 -0.227841
v -0.098221 0.944081 -0.227841
v -0.100621 0.947340 -0.230422
v 0.208030 0.897292 0.301624
v 0.203230 0.897292 0.301624
v 0.200830 0.896340 0.297578
v 0.203230 0.895388 0.293531
v 0.208030 0.895388 0.293531
v 0.210430 0.896340 0.297578
v 0.208030 0.950599 0.288159
v 0.203230 0.950599 0.288159
v 0.200830 0.947340 0.285578
v 0.203230 0.944081 0.282997
v 0.208030 0.944081 0.282997
v 0.210430 0.947340 0.285578
v 0.098221 0.897292 0.301624
v 0.093421 0.897292 0.301624
v 0.091021 0.896340 0.297578
v 0.093421 0.895388 0.293531
v 0.098221 0.895388 0.293531
v 0.100621 0.896340 0.297578
v 0.098221 0.950599 0.288159
v 0.093421 0.950599 0.288159
v 0.091021 0.947340 0.285578
v 0.093421 0.944081 0.282997
v 0.098221 0.944081 0.282997
v 0.100621 0.947340 0.285578
v 0.208030 0.897292 -0.246469
v 0.203230 0.897292 -0.246469
v 0.200830 0.896340 -0.242422
v 0.203230 0.895388 -0.238376
v 0.208030 0.895388 -0.238376
v 0.210430 0.896340 -0.242422
v 0.208030 0.950599 -0.233003
v 0.203230 0.950599 -0.233003
v 0.200830 0.947340 -0.230422
v 0.203230 0.944081 -0.227841
v 0.208030 0.944081 -0.227841
v 0.210430 0.947340 -0.230422
v 0.098221 0.897292 -0.246469
v 0.093421 0.897292 -0.246469
v 0.091021 0.896340 -0.242422
v 0.093421 0.895388 -0.238376
v 0.098221 0.895388 -0.238376
v 0.100621 0.896340 -0.242422
v 0.098221 0.950599 -0.233003
v 0.093421 0.950599 -0.233003
v 0.091021 0.947340 -0.230422
v 0.093421 0.944081 -0.227841
v 0.098221 0.944081 -0.227841
v 0.100621 0.947340 -0.230422
v 0.150000 0.917102 0.113029
v 0.117982 0.917102 0.131515
v 0.117982 0.917102 0.168485
v 0.150000 0.917102 0.186971
v 0.182018 0.917102 0.168485
v 0.182018 0.917102 0.131515
v 0.150000 0.932702 0.113029
v 0.117982 0.932702 0.131515
v 0.117982 0.932702 0.168485
v 0.150000 0.932702 0.186971
v 0.182018 0.932702 0.168485
v 0.182018 0.932702 0.131515
v -0.150000 0.917102 0.113029
v -0.117982 0.917102 0.131515
v -0.117982 0.917102 0.168485
v -0.150000 0.917102 0.186971
v -0.182018 0.917102 0.168485
v -0.182018 0.917102 0.131515
v -0.150000 0.932702 0.113029
v -0.117982 0.932702 0.131515
v -0.117982 0.932702 0.168485
v -0.150000 0.932702 0.186971
v -0.182018 0.932702 0.168485
v -0.182018 0.932702 0.131515
v 0.150000 0.917102 -0.113029
v 0.117982 0.917102 -0.131515
v 0.117982 0.917102 -0.168485
v 0.150000 0.917102 -0.186971
v 0.182018 0.917102 -0.168485
v 0.182018 0.917102 -0.131515
v 0.150000 0.932702 -0.113029
v 0.117982 0.932702 -0.131515
v 0.117982 0.932702 -0.168485
v 0.150000 0.932702 -0.186971
v 0.182018 0.932702 -0.168485
v 0.182018 0.932702 -0.131515
v -0.150000 0.917102 -0.113029
v -0.117982 0.917102 -0.131515
v -0.117982 0.917102 -0.168485
v -0.150000 0.917102 -0.186971
v -0.182018 0.917102 -0.168485
v -0.182018 0.917102 -0.131515
v -0.150000 0.932702 -0.113029
v -0.117982 0.932702 -0.131515
v -0.117982 0.932702 -0.168485
v -0.150000 0.932702 -0.186971
v -0.182018 0.932702 -0.168485
v -0.182018 0.932702 -0.131515
v -0.226817 0.862464 0.285902
v -0.251446 0.848244 0.285902
v -0.251446 0.819805 0.285902
v -0.226817 0.805586 0.285902
v -0.202188 0.819805 0.285902
v -0.202188 0.848244 0.285902
v -0.226817 0.862464 0.315902
v -0.251446 0.848244 0.315902
v -0.251446 0.819805 0.315902
v -0.226817 0.805586 0.315902
v -0.202188 0.819805 0.315902
v -0.202188 0.848244 0.315902
v -0.113524 0.862464 0.285902
v -0.138152 0.848244 0.285902
v -0.138152 0.819805 0.285902
v -0.113524 0.805586 0.285902
v -0.088895 0.819805 0.285902
v -0.088895 0.848244 0.285902
v -0.113524 0.862464 0.315902
v -0.138152 0.848244 0.315902
v -0.138152 0.819805 0.315902
v -0.113524 0.805586 0.315902
v -0.088895 0.819805 0.315902
v -0.088895 0.848244 0.315902
v -0.000230 0.862464 0.285902
v -0.024859 0.848244 0.285902
v -0.024859 0.819805 0.285902
v -0.000230 0.805586 0.285902
v 0.024399 0.819805 0.285902
v 0.024399 0.848244 0.285902
v -0.000230 0.862464 0.315902
v -0.024859 0.848244 0.315902
v -0.024859 0.819805 0.315902
v -0.000230 0.805586 0.315902
v 0.024399 0.819805 0.315902
v 0.024399 0.848244 0.315902
v 0.113063 0.862464 0.285902
v 0.088435 0.848244 0.285902
v 0.088435 0.819805 0.285902
v 0.113063 0.805586 0.285902
v 0.137692 0.819805 0.285902
v 0.137692 0.848244 0.285902
v 0.113063 0.862464 0.315902
v 0.088435 0.848244 0.315902
v 0.088435 0.819805 0.315902
v 0.113063 0.805586 0.315902
v 0.137692 0.819805 0.315902
v 0.137692 0.848244 0.315902
v 0.226357 0.862464 0.285902
v 0.201728 0.848244 0.285902
v 0.201728 0.819805 0.285902
v 0.226357 0.805586 0.285902
v 0.250986 0.819805 0.285902
v 0.250986 0.848244 0.285902
v 0.226357 0.862464 0.315902
v 0.201728 0.848244 0.315902
v 0.201728 0.819805 0.315902
v 0.226357 0.805586 0.315902
v 0.250986 0.819805 0.315902
v 0.250986 0.848244 0.315902
v -0.126000 0.636846 0.320396
v -0.126000 0.659154 0.320396
v -0.126000 0.636846 0.260396
v -0.126000 0.659154 0.260396
v 0.126000 0.636846 0.320396
v 0.126000 0.659154 0.320396
v 0.126000 0.636846 0.260396
v 0.126000 0.659154 0.260396
v -0.065569 0.156846 0.320396
v -0.065569 0.179154 0.320396
v -0.065569 0.156846 0.260396
v -0.065569 0.179154 0.260396
v 0.065569 0.156846 0.320396
v 0.065569 0.179154 0.320396
v 0.065569 0.156846 0.260396
v 0.065569 0.179154 0.260396
vn -1.0000 -0.0000 -0.0000
vn -0.0000 -0.0000 -1.0000
vn 1.0000 -0.0000 -0.0000
vn -0.0000 0.6339 -0.7734
vn -0.0000 -0.0000 1.0000
vn -0.0000 -1.0000 -0.0000
vn -0.0000 1.0000 -0.0000
vn -0.0000 0.8450 0.5347
vn -0.6594 0.7518 -0.0000
vn 0.6594 0.7518 -0.0000
vn -0.5268 0.1286 -0.8402
vn -0.9695 0.2449 -0.0000
vn -0.5268 0.1286 0.8402
vn 0.5311 -0.1201 0.8387
vn 0.9774 -0.2115 -0.0000
vn 0.5311 -0.1201 -0.8387
vn 0.5312 -0.1201 0.8387
vn 0.5312 -0.1201 -0.8387
vn 0.5268 0.1286 -0.8402
vn 0.9695 0.2449 -0.0000
vn 0.5268 0.1286 0.8402
vn -0.5312 -0.1201 0.8387
vn -0.9774 -0.2115 -0.0000
vn -0.5312 -0.1201 -0.8387
vn -0.0000 0.5930 -0.8052
vn -0.0000 0.5930 0.8052
vn -0.0000 -0.5930 0.8052
vn -0.0000 -0.5930 -0.8052
vn -0.8402 0.1286 0.5268
vn -0.0000 0.2449 0.9695
vn 0.8402 0.1286 0.5268
vn 0.8387 -0.1201 -0.5312
vn -0.0000 -0.2115 -0.9774
vn -0.8387 -0.1201 -0.5312
vn -0.8402 0.1286 -0.5268
vn -0.0000 0.2449 -0.9695
vn 0.8402 0.1286 -0.5268
vn 0.8387 -0.1201 0.5312
vn -0.0000 -0.2115 0.9774
vn -0.8387 -0.1201 0.5312
vn -0.8052 0.5930 -0.0000
vn 0.8052 0.5930 -0.0000
vn 0.8052 -0.5930 -0.0000
vn -0.8052 -0.5930 -0.0000
vn -0.5000 -0.0000 0.8660
vn -0.5000 -0.0000 -0.8660
vn 0.5000 -0.0000 -0.8660
vn 0.5000 -0.0000 0.8660
vn -0.5000 -0.8660 -0.0000
vn -0.5000 0.8660 -0.0000
vn 0.5000 0.8660 -0.0000
vn 0.5000 -0.8660 -0.0000
vt 0.611425 0.972769
vt 0.612787 0.972769
vt 0.612787 0.978215
vt 0.611425 0.978215
vt 0.612787 0.983661
vt 0.611425 0.983661
vt 0.612787 0.989108
vt 0.611425 0.989108
vt 0.575514 0.987709
vt 0.575514 0.982262
vt 0.580822 0.987709
vt 0.575653 0.987709
vt 0.575514 0.976816
vt 0.575514 0.971370
vt 0.575514 0.993155
vt 0.608702 0.983661
vt 0.608702 0.978215
vt 0.608702 0.972769
vt 0.608702 0.994396
vt 0.611425 0.994396
vt 0.611425 0.994554
vt 0.608702 0.994554
vt 0.607341 0.972769
vt 0.607341 0.978215
vt 0.607341 0.983661
vt 0.608702 0.989108
vt 0.607341 0.989108
vt 0.608702 0.989265
vt 0.607446 0.989265
vt 0.607446 0.994396
vt 0.607341 0.994554
vt 0.612682 0.994396
vt 0.612682 0.989265
vt 0.612787 0.994554
vt 0.611425 0.989265
vt 0.607523 0.953084
vt 0.608626 0.953084
vt 0.612682 0.958100
vt 0.611425 0.958100
vt 0.611425 0.952969
vt 0.612682 0.952969
vt 0.609081 0.957532
vt 0.609081 0.953536
vt 0.611047 0.957532
vt 0.608702 0.958100
vt 0.608702 0.952969
vt 0.611047 0.953536
vt 0.765292 0.986211
vt 0.763325 0.986211
vt 0.763325 0.982215
vt 0.765292 0.982215
vt 0.580822 0.982401
vt 0.580960 0.982262
vt 0.580960 0.987709
vt 0.575653 0.982401
vt 0.607446 0.952969
vt 0.607523 0.957985
vt 0.607446 0.958100
vt 0.608626 0.957985
vt 0.758399 0.988548
vt 0.761144 0.988548
vt 0.761144 0.986718
vt 0.758399 0.986718
vt 0.758399 0.979397
vt 0.761144 0.979397
vt 0.761144 0.977567
vt 0.758399 0.977567
vt 0.758399 0.981227
vt 0.761144 0.981227
vt 0.758399 0.983057
vt 0.761144 0.983057
vt 0.758399 0.984888
vt 0.761144 0.984888
vt 0.608688 0.951254
vt 0.343789 0.554018
vt 0.341018 0.553312
vt 0.340232 0.553927
vt 0.341115 0.557267
vt 0.336014 0.550941
vt 0.339129 0.552487
vt 0.339868 0.551779
vt 0.339776 0.548922
vt 0.342783 0.550687
vt 0.340888 0.552182
vt 0.339392 0.553463
vt 0.336014 0.556147
vt 0.042756 0.447140
vt 0.044699 0.447140
vt 0.044699 0.449082
vt 0.042756 0.449082
vt 0.042756 0.451025
vt 0.044699 0.451025
vt 0.044699 0.452967
vt 0.042756 0.452967
vt 0.044699 0.454910
vt 0.042756 0.454910
vt 0.040814 0.451025
vt 0.040814 0.452967
vt 0.046641 0.451025
vt 0.046641 0.452967
s 0
usemtl LowPoly
f 15/1/1 16/2/1 2/3/1 11/4/1
f 11/4/2 2/3/2 4/5/2 12/6/2
f 12/6/3 4/5/3 20/7/3 22/8/3
f 20/9/3 4/10/3 47/10/3 48/9/3
f 5/11/4 10/12/4 49/12/4 50/11/4
f 2/13/1 16/14/1 45/14/1 46/13/1
f 20/9/3 48/9/3 8/9/3
f 4/10/2 2/13/2 46/13/2 47/10/2
f 9/15/5 8/9/5 48/9/5 45/15/5
f 16/15/6 20/9/6 8/9/6 9/15/6
f 45/14/1 16/14/1 9/14/1
f 11/4/2 12/6/2 14/16/2 13/17/2
f 21/18/1 15/1/1 11/4/1 13/17/1
f 31/19/5 27/20/5 15/21/5 21/22/5
f 19/23/1 21/18/1 13/17/1 1/24/1
f 1/24/2 13/17/2 14/16/2 3/25/2
f 3/25/3 14/16/3 17/26/3 18/27/3
f 32/28/5 53/29/5 18/27/5 17/26/5
f 53/29/5 54/30/5 19/31/5 18/27/5
f 23/32/5 24/33/5 20/7/5 16/34/5
f 30/35/5 32/28/5 17/26/5 22/8/5
f 32/28/3 30/35/3 38/35/3 40/28/3
f 24/33/5 30/35/5 22/8/5 20/7/5
f 54/30/5 31/19/5 21/22/5 19/31/5
f 12/6/3 22/8/3 17/26/3 14/16/3
f 25/36/3 28/37/3 55/37/3 56/36/3
f 23/38/5 27/39/5 30/40/5 24/41/5
f 31/19/1 37/19/1 39/20/1 27/20/1
f 33/42/7 36/43/7 44/43/7 41/42/7
f 33/42/3 41/42/3 43/44/3 35/44/3
f 30/40/7 27/39/7 39/39/7 38/40/7
f 31/45/6 32/46/6 40/46/6 37/45/6
f 33/42/5 35/44/5 39/39/5 37/45/5
f 34/47/5 36/43/5 40/46/5 38/40/5
f 43/48/5 41/49/5 44/50/5 42/51/5
f 36/43/5 33/42/5 37/45/5 40/46/5
f 35/44/5 34/47/5 38/40/5 39/39/5
f 36/43/1 34/47/1 42/47/1 44/43/1
f 34/47/6 35/44/6 43/44/6 42/47/6
f 5/11/7 6/52/7 46/53/7 45/54/7
f 6/52/7 7/55/7 47/10/7 46/53/7
f 7/55/7 10/12/7 48/9/7 47/10/7
f 10/12/7 5/11/7 45/54/7 48/9/7
f 52/55/7 51/52/7 50/11/7 49/12/7
f 7/55/8 6/52/8 51/52/8 52/55/8
f 10/12/9 7/55/9 52/55/9 49/12/9
f 6/52/10 5/11/10 50/11/10 51/52/10
f 27/20/5 23/32/5 16/34/5 15/21/5
f 28/37/5 25/36/5 53/56/5 32/46/5
f 25/36/5 26/57/5 54/58/5 53/56/5
f 26/57/5 29/59/5 31/45/5 54/58/5
f 29/59/5 28/37/5 32/46/5 31/45/5
f 58/59/5 57/57/5 56/36/5 55/37/5
f 28/37/7 29/59/7 58/59/7 55/37/7
f 26/57/6 25/36/6 56/36/6 57/57/6
f 29/59/1 26/57/1 57/57/1 58/59/1
f 59/60/11 65/61/11 70/62/11 64/63/11
f 60/64/12 66/65/12 65/66/12 59/67/12
f 61/68/13 67/69/13 66/65/13 60/64/13
f 62/70/14 68/71/14 67/69/14 61/68/14
f 63/72/15 69/73/15 68/71/15 62/70/15
f 64/63/16 70/62/16 69/73/16 63/72/16
f 89/66/7 65/66/7 66/65/7 90/65/7
f 71/60/11 77/61/11 82/62/11 76/63/11
f 72/64/12 78/65/12 77/66/12 71/67/12
f 73/68/13 79/69/13 78/65/13 72/64/13
f 74/70/17 80/71/17 79/69/17 73/68/17
f 75/72/15 81/73/15 80/71/15 74/70/15
f 76/63/18 82/62/18 81/73/18 75/72/18
f 101/66/7 77/66/7 78/65/7 102/65/7
f 83/60/19 88/63/19 94/62/19 89/61/19
f 84/64/20 83/67/20 89/66/20 90/65/20
f 85/68/21 84/64/21 90/65/21 91/69/21
f 86/70/22 85/68/22 91/69/22 92/71/22
f 87/72/23 86/70/23 92/71/23 93/73/23
f 88/63/24 87/72/24 93/73/24 94/62/24
f 94/62/25 70/62/25 65/61/25 89/61/25
f 90/65/26 66/65/26 67/69/26 91/69/26
f 91/69/27 67/69/27 68/71/27 92/71/27
f 92/71/6 68/71/6 69/73/6 93/73/6
f 93/73/28 69/73/28 70/62/28 94/62/28
f 95/60/19 100/63/19 106/62/19 101/61/19
f 96/64/20 95/67/20 101/66/20 102/65/20
f 97/68/21 96/64/21 102/65/21 103/69/21
f 98/70/22 97/68/22 103/69/22 104/71/22
f 99/72/23 98/70/23 104/71/23 105/73/23
f 100/63/24 99/72/24 105/73/24 106/62/24
f 106/62/25 82/62/25 77/61/25 101/61/25
f 102/65/26 78/65/26 79/69/26 103/69/26
f 103/69/27 79/69/27 80/71/27 104/71/27
f 104/71/6 80/71/6 81/73/6 105/73/6
f 105/73/28 81/73/28 82/62/28 106/62/28
f 107/60/13 112/63/13 118/62/13 113/61/13
f 108/64/12 107/67/12 113/66/12 114/65/12
f 109/68/11 108/64/11 114/65/11 115/69/11
f 110/70/18 109/68/18 115/69/18 116/71/18
f 111/72/15 110/70/15 116/71/15 117/73/15
f 112/63/17 111/72/17 117/73/17 118/62/17
f 138/65/7 114/65/7 113/66/7 137/66/7
f 119/60/13 124/63/13 130/62/13 125/61/13
f 120/64/12 119/67/12 125/66/12 126/65/12
f 121/68/11 120/64/11 126/65/11 127/69/11
f 122/70/18 121/68/18 127/69/18 128/71/18
f 123/72/15 122/70/15 128/71/15 129/73/15
f 124/63/17 123/72/17 129/73/17 130/62/17
f 150/65/7 126/65/7 125/66/7 149/66/7
f 131/60/21 137/61/21 142/62/21 136/63/21
f 132/64/20 138/65/20 137/66/20 131/67/20
f 133/68/19 139/69/19 138/65/19 132/64/19
f 134/70/24 140/71/24 139/69/24 133/68/24
f 135/72/23 141/73/23 140/71/23 134/70/23
f 136/63/22 142/62/22 141/73/22 135/72/22
f 137/61/26 113/61/26 118/62/26 142/62/26
f 139/69/25 115/69/25 114/65/25 138/65/25
f 140/71/28 116/71/28 115/69/28 139/69/28
f 141/73/6 117/73/6 116/71/6 140/71/6
f 142/62/27 118/62/27 117/73/27 141/73/27
f 143/60/21 149/61/21 154/62/21 148/63/21
f 144/64/20 150/65/20 149/66/20 143/67/20
f 145/68/19 151/69/19 150/65/19 144/64/19
f 146/70/24 152/71/24 151/69/24 145/68/24
f 147/72/23 153/73/23 152/71/23 146/70/23
f 148/63/22 154/62/22 153/73/22 147/72/22
f 149/61/26 125/61/26 130/62/26 154/62/26
f 151/69/25 127/69/25 126/65/25 150/65/25
f 152/71/28 128/71/28 127/69/28 151/69/28
f 153/73/6 129/73/6 128/71/6 152/71/6
f 154/62/27 130/62/27 129/73/27 153/73/27
f 155/60/29 161/61/29 166/62/29 160/63/29
f 156/64/30 162/65/30 161/66/30 155/67/30
f 157/68/31 163/69/31 162/65/31 156/64/31
f 158/70/32 164/71/32 163/69/32 157/68/32
f 159/72/33 165/73/33 164/71/33 158/70/33
f 160/63/34 166/62/34 165/73/34 159/72/34
f 185/66/7 161/66/7 162/65/7 186/65/7
f 167/60/29 173/61/29 178/62/29 172/63/29
f 168/64/30 174/65/30 173/66/30 167/67/30
f 169/68/31 175/69/31 174/65/31 168/64/31
f 170/70/32 176/71/32 175/69/32 169/68/32
f 171/72/33 177/73/33 176/71/33 170/70/33
f 172/63/34 178/62/34 177/73/34 171/72/34
f 197/66/7 173/66/7 174/65/7 198/65/7
f 179/60/35 184/63/35 190/62/35 185/61/35
f 180/64/36 179/67/36 185/66/36 186/65/36
f 181/68/37 180/64/37 186/65/37 187/69/37
f 182/70/38 181/68/38 187/69/38 188/71/38
f 183/72/39 182/70/39 188/71/39 189/73/39
f 184/63/40 183/72/40 189/73/40 190/62/40
f 190/62/41 166/62/41 161/61/41 185/61/41
f 186/65/42 162/65/42 163/69/42 187/69/42
f 187/69/43 163/69/43 164/71/43 188/71/43
f 188/71/6 164/71/6 165/73/6 189/73/6
f 189/73/44 165/73/44 166/62/44 190/62/44
f 191/60/35 196/63/35 202/62/35 197/61/35
f 192/64/36 191/67/36 197/66/36 198/65/36
f 193/68/37 192/64/37 198/65/37 199/69/37
f 194/70/38 193/68/38 199/69/38 200/71/38
f 195/72/39 194/70/39 200/71/39 201/73/39
f 196/63/40 195/72/40 201/73/40 202/62/40
f 202/62/41 178/62/41 173/61/41 197/61/41
f 198/65/42 174/65/42 175/69/42 199/69/42
f 199/69/43 175/69/43 176/71/43 200/71/43
f 200/71/6 176/71/6 177/73/6 201/73/6
f 201/73/44 177/73/44 178/62/44 202/62/44
f 203/60/31 208/63/31 214/62/31 209/61/31
f 204/64/30 203/67/30 209/66/30 210/65/30
f 205/68/29 204/64/29 210/65/29 211/69/29
f 206/70/34 205/68/34 211/69/34 212/71/34
f 207/72/33 206/70/33 212/71/33 213/73/33
f 208/63/32 207/72/32 213/73/32 214/62/32
f 234/65/7 210/65/7 209/66/7 233/66/7
f 215/60/31 220/63/31 226/62/31 221/61/31
f 216/64/30 215/67/30 221/66/30 222/65/30
f 217/68/29 216/64/29 222/65/29 223/69/29
f 218/70/34 217/68/34 223/69/34 224/71/34
f 219/72/33 218/70/33 224/71/33 225/73/33
f 220/63/32 219/72/32 225/73/32 226/62/32
f 246/65/7 222/65/7 221/66/7 245/66/7
f 227/60/37 233/61/37 238/62/37 232/63/37
f 228/64/36 234/65/36 233/66/36 227/67/36
f 229/68/35 235/69/35 234/65/35 228/64/35
f 230/70/40 236/71/40 235/69/40 229/68/40
f 231/72/39 237/73/39 236/71/39 230/70/39
f 232/63/38 238/62/38 237/73/38 231/72/38
f 233/61/42 209/61/42 214/62/42 238/62/42
f 235/69/41 211/69/41 210/65/41 234/65/41
f 236/71/44 212/71/44 211/69/44 235/69/44
f 237/73/6 213/73/6 212/71/6 236/71/6
f 238/62/43 214/62/43 213/73/43 237/73/43
f 239/60/37 245/61/37 250/62/37 244/63/37
f 240/64/36 246/65/36 245/66/36 239/67/36
f 241/68/35 247/69/35 246/65/35 240/64/35
f 242/70/40 248/71/40 247/69/40 241/68/40
f 243/72/39 249/73/39 248/71/39 242/70/39
f 244/63/38 250/62/38 249/73/38 243/72/38
f 245/61/42 221/61/42 226/62/42 250/62/42
f 247/69/41 223/69/41 222/65/41 246/65/41
f 248/71/44 224/71/44 223/69/44 247/69/44
f 249/73/6 225/73/6 224/71/6 248/71/6
f 250/62/43 226/62/43 225/73/43 249/73/43
f 253/74/1 259/74/1 258/74/1 252/74/1
f 256/74/3 262/74/3 261/74/3 255/74/3
f 254/74/45 260/74/45 259/74/45 253/74/45
f 252/74/46 258/74/46 257/74/46 251/74/46
f 251/74/47 257/74/47 262/74/47 256/74/47
f 255/74/48 261/74/48 260/74/48 254/74/48
f 258/74/7 259/74/7 260/74/7 257/74/7
f 261/74/7 262/74/7 257/74/7 260/74/7
f 265/74/3 264/74/3 270/74/3 271/74/3
f 268/74/1 267/74/1 273/74/1 274/74/1
f 266/74/48 265/74/48 271/74/48 272/74/48
f 264/74/47 263/74/47 269/74/47 270/74/47
f 263/74/46 268/74/46 274/74/46 269/74/46
f 267/74/45 266/74/45 272/74/45 273/74/45
f 270/74/7 269/74/7 272/74/7 271/74/7
f 273/74/7 272/74/7 269/74/7 274/74/7
f 277/74/1 276/74/1 282/74/1 283/74/1
f 280/74/3 279/74/3 285/74/3 286/74/3
f 278/74/46 277/74/46 283/74/46 284/74/46
f 276/74/45 275/74/45 281/74/45 282/74/45
f 275/74/48 280/74/48 286/74/48 281/74/48
f 279/74/47 278/74/47 284/74/47 285/74/47
f 282/74/7 281/74/7 284/74/7 283/74/7
f 285/74/7 284/74/7 281/74/7 286/74/7
f 289/74/3 295/74/3 294/74/3 288/74/3
f 292/74/1 298/74/1 297/74/1 291/74/1
f 290/74/47 296/74/47 295/74/47 289/74/47
f 288/74/48 294/74/48 293/74/48 287/74/48
f 287/74/45 293/74/45 298/74/45 292/74/45
f 291/74/46 297/74/46 296/74/46 290/74/46
f 294/74/7 295/74/7 296/74/7 293/74/7
f 297/74/7 298/74/7 293/74/7 296/74/7
f 301/75/1 307/76/1 306/77/1 300/78/1
f 304/79/3 310/80/3 309/81/3 303/82/3
f 302/83/49 308/84/49 307/76/49 301/75/49
f 300/78/50 306/77/50 305/85/50 299/86/50
f 299/86/51 305/85/51 310/80/51 304/79/51
f 303/82/52 309/81/52 308/84/52 302/83/52
f 306/77/5 307/76/5 308/84/5 305/85/5
f 309/81/5 310/80/5 305/85/5 308/84/5
f 313/75/1 319/76/1 318/77/1 312/78/1
f 316/79/3 322/80/3 321/81/3 315/82/3
f 314/83/49 320/84/49 319/76/49 313/75/49
f 312/78/50 318/77/50 317/85/50 311/86/50
f 311/86/51 317/85/51 322/80/51 316/79/51
f 315/82/52 321/81/52 320/84/52 314/83/52
f 318/77/5 319/76/5 320/84/5 317/85/5
f 321/81/5 322/80/5 317/85/5 320/84/5
f 325/75/1 331/76/1 330/77/1 324/78/1
f 328/79/3 334/80/3 333/81/3 327/82/3
f 326/83/49 332/84/49 331/76/49 325/75/49
f 324/78/50 330/77/50 329/85/50 323/86/50
f 323/86/51 329/85/51 334/80/51 328/79/51
f 327/82/52 333/81/52 332/84/52 326/83/52
f 330/77/5 331/76/5 332/84/5 329/85/5
f 333/81/5 334/80/5 329/85/5 332/84/5
f 337/75/1 343/76/1 342/77/1 336/78/1
f 340/79/3 346/80/3 345/81/3 339/82/3
f 338/83/49 344/84/49 343/76/49 337/75/49
f 336/78/50 342/77/50 341/85/50 335/86/50
f 335/86/51 341/85/51 346/80/51 340/79/51
f 339/82/52 345/81/52 344/84/52 338/83/52
f 342/77/5 343/76/5 344/84/5 341/85/5
f 345/81/5 346/80/5 341/85/5 344/84/5
f 349/75/1 355/76/1 354/77/1 348/78/1
f 352/79/3 358/80/3 357/81/3 351/82/3
f 350/83/49 356/84/49 355/76/49 349/75/49
f 348/78/50 354/77/50 353/85/50 347/86/50
f 347/86/51 353/85/51 358/80/51 352/79/51
f 351/82/52 357/81/52 356/84/52 350/83/52
f 354/77/5 355/76/5 356/84/5 353/85/5
f 357/81/5 358/80/5 353/85/5 356/84/5
f 359/87/1 360/88/1 362/89/1 361/90/1
f 365/91/3 366/92/3 364/93/3 363/94/3
f 363/94/5 364/93/5 360/95/5 359/96/5
f 361/97/6 365/91/6 363/94/6 359/98/6
f 366/92/7 362/99/7 360/100/7 364/93/7
f 367/87/1 368/88/1 370/89/1 369/90/1
f 373/91/3 374/92/3 372/93/3 371/94/3
f 371/94/5 372/93/5 368/95/5 367/96/5
f 369/97/6 373/91/6 371/94/6 367/98/6
f 374/92/7 370/99/7 368/100/7 372/93/7
