# Blender 4.2.1 LTS
# www.blender.org
mtllib Table.mtl
o Plane.006
v -0.994671 0.906900 0.639432
v 0.994671 0.906900 0.639432
v -0.994671 0.906900 -0.639430
v 0.994671 0.906900 -0.639430
v -0.994671 0.958305 -0.639430
v -0.994671 0.958306 0.639432
v 0.994671 0.958306 0.639432
v 0.994671 0.958305 -0.639430
v 0.801095 0.000000 0.529025
v 0.891785 0.000000 0.529025
v 0.801095 0.000000 0.438335
v 0.891785 0.000000 0.438335
v 0.801095 0.906900 0.529025
v 0.891785 0.906900 0.529025
v 0.801095 0.906900 0.438335
v 0.891785 0.906900 0.438335
v -0.801095 0.000000 0.529025
v -0.891785 0.000000 0.529025
v -0.801095 0.000000 0.438335
v -0.891785 0.000000 0.438335
v -0.801095 0.906900 0.529025
v -0.891785 0.906900 0.529025
v -0.801095 0.906900 0.438335
v -0.891785 0.906900 0.438335
v 0.801095 -0.000000 -0.529025
v 0.891785 -0.000000 -0.529025
v 0.801095 -0.000000 -0.438335
v 0.891785 -0.000000 -0.438335
v 0.801095 0.906900 -0.529025
v 0.891785 0.906900 -0.529025
v 0.801095 0.906900 -0.438335
v 0.891785 0.906900 -0.438335
v -0.801095 -0.000000 -0.529025
v -0.891785 -0.000000 -0.529025
v -0.801095 -0.000000 -0.438335
v -0.891785 -0.000000 -0.438335
v -0.801095 0.906900 -0.529025
v -0.891785 0.906900 -0.529025
v -0.801095 0.906900 -0.438335
v -0.891785 0.906900 -0.438335
v 0.876670 0.785980 0.513910
v 0.876670 0.785980 -0.513910
v 0.876670 0.906900 0.513910
v 0.876670 0.906900 -0.513910
v 0.816210 0.785980 0.453450
v 0.816210 0.785980 -0.453450
v 0.816210 0.906900 0.453450
v 0.816210 0.906900 -0.453450
v -0.876670 0.785980 0.513910
v -0.876670 0.785980 -0.513910
v -0.876670 0.906900 0.513910
v -0.876670 0.906900 -0.513910
v -0.816210 0.785980 0.453450
v -0.816210 0.785980 -0.453450
v -0.816210 0.906900 0.453450
v -0.816210 0.906900 -0.453450
vn -0.0000 -1.0000 -0.0000
vn -0.0000 1.0000 -0.0000
vn -0.0000 -0.0000 -1.0000
vn -0.0000 -0.0000 1.0000
vn 1.0000 -0.0000 -0.0000
vn -1.0000 -0.0000 -0.0000
vt 0.475684 0.884848
vt 0.481308 0.884848
vt 0.481308 0.894690
vt 0.475684 0.894690
vt 0.486932 0.884848
vt 0.486932 0.894690
vt 0.491862 0.884848
vt 0.491862 0.894690
vt 0.491812 0.894690
vt 0.491812 0.884848
vt 0.491913 0.884848
vt 0.491913 0.894690
vt 0.487462 0.893522
vt 0.487462 0.899146
vt 0.487411 0.899146
vt 0.487411 0.893522
vt 0.487513 0.893522
vt 0.487513 0.899146
vt 0.485098 0.863033
vt 0.484699 0.863033
vt 0.484699 0.862136
vt 0.485098 0.862136
vt 0.485497 0.863033
vt 0.485497 0.862136
vt 0.481558 0.863033
vt 0.481110 0.863033
vt 0.481110 0.862136
vt 0.481558 0.862136
vt 0.482007 0.863033
vt 0.482007 0.862136
vt 0.485896 0.862136
vt 0.485896 0.863033
vt 0.486295 0.862136
vt 0.486295 0.863033
vt 0.482456 0.862136
vt 0.482456 0.863033
vt 0.482904 0.862136
vt 0.482904 0.863033
vt 0.486693 0.862136
vt 0.486693 0.863033
vt 0.487092 0.862136
vt 0.487092 0.863033
vt 0.483353 0.862136
vt 0.483353 0.863033
vt 0.483802 0.862136
vt 0.483802 0.863033
vt 0.487491 0.863033
vt 0.487491 0.862136
vt 0.487890 0.863033
vt 0.487890 0.862136
vt 0.484251 0.863033
vt 0.484251 0.862136
vt 0.482401 0.835390
vt 0.482401 0.839910
vt 0.482282 0.839910
vt 0.482282 0.835390
vt 0.486802 0.835390
vt 0.486802 0.826715
vt 0.486922 0.826715
vt 0.486922 0.835390
vt 0.482641 0.839378
vt 0.482521 0.839378
vt 0.482521 0.835390
vt 0.482641 0.835390
vt 0.482548 0.835091
vt 0.486536 0.835091
vt 0.487161 0.826715
vt 0.487161 0.834792
vt 0.487041 0.834792
vt 0.487041 0.826715
vt 0.487041 0.835390
vt 0.482282 0.826715
vt 0.482548 0.827014
vt 0.487161 0.842868
vt 0.487041 0.842868
vt 0.482521 0.839910
vt 0.482760 0.835390
vt 0.482760 0.839378
vt 0.486536 0.827014
s 0
usemtl LowPoly
f 1/1/1 3/2/1 4/3/1 2/4/1
f 6/3/2 7/2/2 8/5/2 5/6/2
f 4/7/3 3/8/3 5/9/3 8/10/3
f 1/11/4 2/12/4 7/8/4 6/7/4
f 2/13/5 4/14/5 8/15/5 7/16/5
f 3/17/6 1/18/6 6/14/6 5/13/6
f 10/19/5 12/20/5 16/21/5 14/22/5
f 11/23/6 9/19/6 13/22/6 15/24/6
f 12/25/3 11/26/3 15/27/3 16/28/3
f 9/29/4 10/25/4 14/28/4 13/30/4
f 18/23/6 22/24/6 24/31/6 20/32/6
f 19/32/5 23/31/5 21/33/5 17/34/5
f 20/29/3 24/30/3 23/35/3 19/36/3
f 17/36/4 21/35/4 22/37/4 18/38/4
f 26/34/5 30/33/5 32/39/5 28/40/5
f 27/40/6 31/39/6 29/41/6 25/42/6
f 28/38/4 32/37/4 31/43/4 27/44/4
f 25/44/3 29/43/3 30/45/3 26/46/3
f 34/47/6 36/42/6 40/41/6 38/48/6
f 35/49/5 33/47/5 37/48/5 39/50/5
f 36/51/4 35/46/4 39/45/4 40/52/4
f 33/20/3 34/51/3 38/52/3 37/21/3
f 41/53/5 42/54/5 44/55/5 43/56/5
f 43/57/4 51/58/4 49/59/4 41/60/4
f 45/61/6 47/62/6 48/63/6 46/64/6
f 42/57/1 41/56/1 45/65/1 46/66/1
f 54/67/4 46/68/4 48/69/4 56/70/4
f 50/71/3 52/60/3 44/59/3 42/70/3
f 49/72/1 53/73/1 45/65/1 41/56/1
f 45/68/3 53/74/3 55/75/3 47/69/3
f 49/76/6 51/54/6 52/53/6 50/63/6
f 53/77/5 54/78/5 56/61/5 55/64/5
f 50/58/1 54/79/1 53/73/1 49/72/1
f 46/66/1 54/79/1 50/58/1 42/57/1
