# Blender 4.2.1 LTS
# www.blender.org
mtllib Table Runner.mtl
o Plane.001
v -0.452829 0.008305 -1.122716
v -0.452829 0.007810 -0.014171
v 0.452829 0.007810 -0.014171
v 0.452829 0.008305 -1.122716
v -0.452829 -0.008833 0.007538
v 0.452829 -0.008833 0.007538
v -0.452829 -0.217246 0.008617
v 0.452829 -0.217246 0.008617
v -0.452829 -0.001695 -1.122716
v -0.452829 -0.001694 -0.017282
v 0.452829 -0.001694 -0.017282
v 0.452829 -0.001695 -1.122716
v -0.452829 -0.013354 -0.001383
v 0.452829 -0.013354 -0.001383
v -0.452829 -0.217246 -0.001383
v 0.452829 -0.217246 -0.001383
vn -0.0000 1.0000 0.0004
vn -0.0000 0.7936 0.6084
vn -0.0000 0.0052 1.0000
vn -0.0000 -1.0000 -0.0000
vn -0.0000 -0.8064 -0.5914
vn -0.0000 -0.0000 -1.0000
vn -1.0000 -0.0000 -0.0000
vn 1.0000 -0.0000 -0.0000
vt 0.998517 0.080186
vt 0.941272 0.080186
vt 0.941272 0.009539
vt 0.998517 0.009539
vt 0.998517 0.081446
vt 0.941272 0.081446
vt 0.998517 0.094709
vt 0.941272 0.094709
s 0
usemtl LowPoly
f 2/1/1 3/2/1 4/3/1 1/4/1
f 3/2/2 2/1/2 5/5/2 6/6/2
f 6/6/3 5/5/3 7/7/3 8/8/3
f 10/1/4 9/4/4 12/3/4 11/2/4
f 11/2/5 14/6/5 13/5/5 10/1/5
f 14/6/6 16/8/6 15/7/6 13/5/6
f 2/1/7 1/4/7 9/4/7 10/1/7
f 4/3/8 3/2/8 11/2/8 12/3/8
f 1/4/6 4/3/6 12/3/6 9/4/6
f 5/5/7 2/1/7 10/1/7 13/5/7
f 3/2/8 6/6/8 14/6/8 11/2/8
f 8/8/4 7/7/4 15/7/4 16/8/4
f 7/7/7 5/5/7 13/5/7 15/7/7
f 6/6/8 8/8/8 16/8/8 14/6/8
