# Blender 4.2.1 LTS
# www.blender.org
mtllib Wall Shelves_1.mtl
o Cube.018
v -0.120000 0.087987 0.900000
v 0.300000 0.087987 0.900000
v -0.120000 0.060000 0.120000
v 0.300000 0.060000 0.900000
v -0.120000 0.060000 0.900000
v 0.300000 0.087987 -0.300000
v -0.900000 0.060000 -0.300000
v 0.300000 0.060000 -0.300000
v -0.900000 0.060000 0.120000
v -0.900000 0.087987 0.120000
v -0.120000 0.087987 0.120000
v -0.900000 0.087987 -0.300000
v -0.750000 0.030000 0.060000
v -0.750000 0.057987 0.060000
v -0.750000 0.057987 -0.300000
v -0.750000 0.030000 -0.300000
v -0.780000 0.057987 -0.300000
v -0.780000 0.057987 0.060000
v -0.780000 0.030000 0.060000
v -0.780000 0.030000 -0.300000
v -0.270000 0.030000 0.060000
v -0.270000 0.057987 0.060000
v -0.270000 0.057987 -0.300000
v -0.270000 0.030000 -0.300000
v -0.300000 0.057987 -0.300000
v -0.300000 0.057987 0.060000
v -0.300000 0.030000 0.060000
v -0.300000 0.030000 -0.300000
v -0.060000 0.030000 0.750000
v -0.060000 0.057987 0.750000
v 0.300000 0.057987 0.750000
v 0.300000 0.030000 0.750000
v -0.060000 0.030000 0.780000
v 0.300000 0.030000 0.780000
v 0.300000 0.057987 0.780000
v -0.060000 0.057987 0.780000
v -0.060000 0.030000 0.300000
v -0.060000 0.057987 0.300000
v 0.300000 0.057987 0.300000
v 0.300000 0.030000 0.300000
v -0.060000 0.030000 0.330000
v 0.300000 0.030000 0.330000
v 0.300000 0.057987 0.330000
v -0.060000 0.057987 0.330000
v -0.120000 0.447987 0.900000
v 0.300000 0.447987 0.900000
v -0.120000 0.420000 0.120000
v 0.300000 0.420000 0.900000
v -0.120000 0.420000 0.900000
v 0.300000 0.447987 -0.300000
v -0.900000 0.420000 -0.300000
v 0.300000 0.420000 -0.300000
v -0.900000 0.420000 0.120000
v -0.900000 0.447987 0.120000
v -0.120000 0.447987 0.120000
v -0.900000 0.447987 -0.300000
v -0.750000 0.390000 0.060000
v -0.750000 0.417987 0.060000
v -0.750000 0.417987 -0.300000
v -0.750000 0.390000 -0.300000
v -0.780000 0.417987 -0.300000
v -0.780000 0.417987 0.060000
v -0.780000 0.390000 0.060000
v -0.780000 0.390000 -0.300000
v -0.270000 0.390000 0.060000
v -0.270000 0.417987 0.060000
v -0.270000 0.417987 -0.300000
v -0.270000 0.390000 -0.300000
v -0.300000 0.417987 -0.300000
v -0.300000 0.417987 0.060000
v -0.300000 0.390000 0.060000
v -0.300000 0.390000 -0.300000
v -0.060000 0.390000 0.750000
v -0.060000 0.417987 0.750000
v 0.300000 0.417987 0.750000
v 0.300000 0.390000 0.750000
v -0.060000 0.390000 0.780000
v 0.300000 0.390000 0.780000
v 0.300000 0.417987 0.780000
v -0.060000 0.417987 0.780000
v -0.060000 0.390000 0.300000
v -0.060000 0.417987 0.300000
v 0.300000 0.417987 0.300000
v 0.300000 0.390000 0.300000
v -0.060000 0.390000 0.330000
v 0.300000 0.390000 0.330000
v 0.300000 0.417987 0.330000
v -0.060000 0.417987 0.330000
vn -0.0000 -0.0000 1.0000
vn 1.0000 -0.0000 -0.0000
vn -0.0000 1.0000 -0.0000
vn -1.0000 -0.0000 -0.0000
vn -0.0000 -1.0000 -0.0000
vn -0.0000 -0.0000 -1.0000
vt 0.479785 0.928650
vt 0.483325 0.928650
vt 0.483325 0.927016
vt 0.479785 0.927016
vt 0.479785 0.923204
vt 0.477879 0.927016
vt 0.477879 0.923204
vt 0.876316 0.833360
vt 0.876316 0.837172
vt 0.872410 0.911485
vt 0.872410 0.915297
vt 0.874316 0.916931
vt 0.877856 0.916931
s 0
usemtl Material.001
f 5/1/1 4/2/1 2/2/1 1/1/1
f 4/2/2 8/3/2 6/3/2 2/2/2
f 11/4/3 1/1/3 2/2/3 6/3/3
f 3/4/4 5/1/4 1/1/4 11/4/4
f 4/2/5 5/1/5 3/4/5 8/3/5
f 8/5/5 3/4/5 9/6/5 7/7/5
f 9/6/1 3/4/1 11/4/1 10/6/1
f 7/7/4 9/6/4 10/6/4 12/7/4
f 8/5/6 7/7/6 12/7/6 6/5/6
f 17/8/6 15/8/6 16/8/6 20/8/6
f 20/8/5 16/8/5 13/9/5 19/9/5
f 19/9/1 13/9/1 14/9/1 18/9/1
f 16/8/2 15/8/2 14/9/2 13/9/2
f 20/8/4 19/9/4 18/9/4 17/8/4
f 28/10/5 24/10/5 21/11/5 27/11/5
f 27/11/1 21/11/1 22/11/1 26/11/1
f 24/10/2 23/10/2 22/11/2 21/11/2
f 28/10/4 27/11/4 26/11/4 25/10/4
f 33/12/5 29/12/5 32/13/5 34/13/5
f 29/12/6 30/12/6 31/13/6 32/13/6
f 33/12/1 34/13/1 35/13/1 36/12/1
f 36/12/4 30/12/4 29/12/4 33/12/4
f 41/12/5 37/12/5 40/13/5 42/13/5
f 37/12/6 38/12/6 39/13/6 40/13/6
f 41/12/1 42/13/1 43/13/1 44/12/1
f 44/12/4 38/12/4 37/12/4 41/12/4
f 49/1/1 48/2/1 46/2/1 45/1/1
f 48/2/2 52/3/2 50/3/2 46/2/2
f 55/4/3 45/1/3 46/2/3 50/3/3
f 12/7/3 10/6/3 11/4/3 6/5/3
f 47/4/4 49/1/4 45/1/4 55/4/4
f 48/2/5 49/1/5 47/4/5 52/3/5
f 52/5/5 47/4/5 53/6/5 51/7/5
f 53/6/1 47/4/1 55/4/1 54/6/1
f 51/7/4 53/6/4 54/6/4 56/7/4
f 52/5/6 51/7/6 56/7/6 50/5/6
f 61/10/6 59/10/6 60/10/6 64/10/6
f 64/10/5 60/10/5 57/11/5 63/11/5
f 63/11/1 57/11/1 58/11/1 62/11/1
f 60/10/2 59/10/2 58/11/2 57/11/2
f 64/10/4 63/11/4 62/11/4 61/10/4
f 72/10/5 68/10/5 65/11/5 71/11/5
f 71/11/1 65/11/1 66/11/1 70/11/1
f 68/10/2 67/10/2 66/11/2 65/11/2
f 72/10/4 71/11/4 70/11/4 69/10/4
f 77/12/5 73/12/5 76/13/5 78/13/5
f 73/12/6 74/12/6 75/13/6 76/13/6
f 77/12/1 78/13/1 79/13/1 80/12/1
f 80/12/4 74/12/4 73/12/4 77/12/4
f 56/7/3 54/6/3 55/4/3 50/5/3
f 85/12/5 81/12/5 84/13/5 86/13/5
f 81/12/6 82/12/6 83/13/6 84/13/6
f 85/12/1 86/13/1 87/13/1 88/12/1
f 88/12/4 82/12/4 81/12/4 85/12/4
