# Blender 4.2.1 LTS
# www.blender.org
mtllib Wall Kitchen Cabinet_2.mtl
o Cube.011
v -0.300000 -0.000000 -0.300000
v -0.300000 0.900000 -0.300000
v 0.300000 -0.000000 -0.300000
v 0.300000 0.900000 -0.300000
v -0.300000 0.900000 0.300000
v 0.300000 0.000000 0.300000
v -0.300000 0.000000 0.300000
v 0.300000 0.900000 0.300000
v -0.282637 0.882637 0.300000
v 0.282637 0.882637 0.300000
v 0.282637 0.017363 0.300000
v -0.282637 0.017363 0.300000
v -0.282637 0.882637 0.309552
v 0.282637 0.017363 0.309552
v -0.282637 0.017363 0.309552
v 0.282637 0.882637 0.309552
v -0.240000 0.129000 0.320396
v -0.240000 0.147000 0.320396
v -0.240000 0.129000 0.260396
v -0.240000 0.147000 0.260396
v -0.180000 0.129000 0.320396
v -0.180000 0.147000 0.320396
v -0.180000 0.129000 0.260396
v -0.180000 0.147000 0.260396
vn -1.0000 -0.0000 -0.0000
vn -0.0000 -1.0000 -0.0000
vn -0.0000 1.0000 -0.0000
vn -0.0000 -0.0000 -1.0000
vn 1.0000 -0.0000 -0.0000
vn -0.0000 -0.0000 1.0000
vt 0.203615 0.863483
vt 0.203615 0.868929
vt 0.198169 0.868929
vt 0.198169 0.863483
vt 0.192723 0.874376
vt 0.198169 0.874376
vt 0.198169 0.879822
vt 0.192723 0.879822
vt 0.203615 0.885268
vt 0.203615 0.879822
vt 0.203615 0.874376
vt 0.203510 0.885110
vt 0.203510 0.879979
vt 0.198274 0.885110
vt 0.198169 0.885268
vt 0.198274 0.879979
vt 0.594758 0.859308
vt 0.599994 0.859308
vt 0.599994 0.864439
vt 0.594758 0.864439
vt 0.835725 0.394406
vt 0.837667 0.394406
vt 0.837667 0.396348
vt 0.835725 0.396348
vt 0.835725 0.398290
vt 0.837667 0.398290
vt 0.837667 0.400233
vt 0.835725 0.400233
vt 0.837667 0.402175
vt 0.835725 0.402175
vt 0.833782 0.398290
vt 0.833782 0.400233
vt 0.839610 0.398290
vt 0.839610 0.400233
s 0
usemtl Material.001
f 5/1/1 2/2/1 1/3/1 7/4/1
f 1/5/2 3/6/2 6/7/2 7/8/2
f 5/9/3 8/10/3 4/11/3 2/2/3
f 2/2/4 4/11/4 3/6/4 1/3/4
f 4/11/5 8/10/5 6/7/5 3/6/5
f 9/12/6 10/13/6 8/10/6 5/9/6
f 12/14/6 9/12/6 5/9/6 7/15/6
f 10/13/6 11/16/6 6/7/6 8/10/6
f 11/17/5 10/18/5 16/18/5 14/17/5
f 9/19/1 12/20/1 15/20/1 13/19/1
f 13/19/6 15/20/6 14/17/6 16/18/6
f 11/16/6 12/14/6 7/15/6 6/7/6
f 12/20/2 11/17/2 14/17/2 15/20/2
f 10/18/3 9/19/3 13/19/3 16/18/3
f 17/21/1 18/22/1 20/23/1 19/24/1
f 23/25/5 24/26/5 22/27/5 21/28/5
f 21/28/6 22/27/6 18/29/6 17/30/6
f 19/31/2 23/25/2 21/28/2 17/32/2
f 24/26/3 20/33/3 18/34/3 22/27/3
