# Blender 4.2.1 LTS
# www.blender.org
mtllib Wall Shelves_2.mtl
o Cube.026
v 0.300000 0.060000 0.121000
v 0.300000 0.087987 -0.299000
v -0.300000 0.060000 -0.299000
v 0.300000 0.060000 -0.299000
v -0.300000 0.060000 0.121000
v -0.300000 0.087987 0.121000
v 0.300000 0.087987 0.121000
v -0.300000 0.087987 -0.299000
v -0.150000 0.030000 0.061000
v -0.150000 0.057987 0.061000
v -0.150000 0.057987 -0.299000
v -0.150000 0.030000 -0.299000
v -0.180000 0.057987 -0.299000
v -0.180000 0.057987 0.061000
v -0.180000 0.030000 0.061000
v -0.180000 0.030000 -0.299000
v 0.150000 0.030000 0.061000
v 0.150000 0.057987 0.061000
v 0.150000 0.057987 -0.299000
v 0.150000 0.030000 -0.299000
v 0.120000 0.057987 -0.299000
v 0.120000 0.057987 0.061000
v 0.120000 0.030000 0.061000
v 0.120000 0.030000 -0.299000
v 0.300000 0.420000 0.121000
v 0.300000 0.447987 -0.299000
v -0.300000 0.420000 -0.299000
v 0.300000 0.420000 -0.299000
v -0.300000 0.420000 0.121000
v -0.300000 0.447987 0.121000
v 0.300000 0.447987 0.121000
v -0.300000 0.447987 -0.299000
v -0.150000 0.390000 0.061000
v -0.150000 0.417987 0.061000
v -0.150000 0.417987 -0.299000
v -0.150000 0.390000 -0.299000
v -0.180000 0.417987 -0.299000
v -0.180000 0.417987 0.061000
v -0.180000 0.390000 0.061000
v -0.180000 0.390000 -0.299000
v 0.150000 0.390000 0.061000
v 0.150000 0.417987 0.061000
v 0.150000 0.417987 -0.299000
v 0.150000 0.390000 -0.299000
v 0.120000 0.417987 -0.299000
v 0.120000 0.417987 0.061000
v 0.120000 0.390000 0.061000
v 0.120000 0.390000 -0.299000
vn -0.0000 1.0000 -0.0000
vn -0.0000 -0.0000 1.0000
vn -0.0000 -1.0000 -0.0000
vn -1.0000 -0.0000 -0.0000
vn -0.0000 -0.0000 -1.0000
vn 1.0000 -0.0000 -0.0000
vt 0.477879 0.923204
vt 0.477879 0.927016
vt 0.479785 0.927016
vt 0.479785 0.923204
vt 0.860691 0.907579
vt 0.860691 0.911391
s 0
usemtl Material.001
f 32/1/1 30/2/1 31/3/1 26/4/1
f 5/2/2 1/3/2 7/3/2 6/2/2
f 4/4/3 1/3/3 5/2/3 3/1/3
f 3/1/4 5/2/4 6/2/4 8/1/4
f 4/4/5 3/1/5 8/1/5 2/4/5
f 16/5/3 12/5/3 9/6/3 15/6/3
f 15/6/2 9/6/2 10/6/2 14/6/2
f 12/5/6 11/5/6 10/6/6 9/6/6
f 16/5/4 15/6/4 14/6/4 13/5/4
f 24/5/3 20/5/3 17/6/3 23/6/3
f 23/6/2 17/6/2 18/6/2 22/6/2
f 20/5/6 19/5/6 18/6/6 17/6/6
f 24/5/4 23/6/4 22/6/4 21/5/4
f 29/2/2 25/3/2 31/3/2 30/2/2
f 28/4/3 25/3/3 29/2/3 27/1/3
f 27/1/4 29/2/4 30/2/4 32/1/4
f 28/4/5 27/1/5 32/1/5 26/4/5
f 40/5/3 36/5/3 33/6/3 39/6/3
f 39/6/2 33/6/2 34/6/2 38/6/2
f 36/5/6 35/5/6 34/6/6 33/6/6
f 40/5/4 39/6/4 38/6/4 37/5/4
f 48/5/3 44/5/3 41/6/3 47/6/3
f 47/6/2 41/6/2 42/6/2 46/6/2
f 44/5/6 43/5/6 42/6/6 41/6/6
f 48/5/4 47/6/4 46/6/4 45/5/4
f 26/4/6 31/3/6 25/3/6 28/4/6
f 2/4/6 7/3/6 1/3/6 4/4/6
f 8/1/1 6/2/1 7/3/1 2/4/1
